<svg xmlns="http://www.w3.org/2000/svg" viewBox="0 0 24 24">
  <path fill-rule="evenodd" d="M8.627 21.15a.746.746 0 0 0 .255.09A9.74 9.74 0 0 0 12 21.75a9.74 9.74 0 0 0 3.118-.51.747.747 0 0 0 .255-.09A9.754 9.754 0 0 0 21.75 12c0-5.385-4.365-9.75-9.75-9.75S2.25 6.615 2.25 12a9.75 9.75 0 0 0 6.377 9.15M3.75 12a8.25 8.25 0 1 1 12 7.35V14a.75.75 0 0 0-.08-.335l-2.552-5.106c-.46-.921-1.775-.921-2.236 0l-2.553 5.106A.75.75 0 0 0 8.25 14v5.35A8.25 8.25 0 0 1 3.75 12m10.5 7.94A8.26 8.26 0 0 1 12 20.25a8.26 8.26 0 0 1-2.25-.31V15.4l.334.223a.75.75 0 0 0 .832 0L12 14.901l1.084.723a.75.75 0 0 0 .832 0l.334-.223v4.538m-3.75-5.841-.533-.356L12 9.677l2.033 4.066L13.5 14.1l-1.084-.723a.75.75 0 0 0-.832 0L10.5 14.099" clip-rule="evenodd" fill="currentColor"/>
</svg>
