<svg xmlns="http://www.w3.org/2000/svg" viewBox="0 0 24 24">
  <g clip-path="url(#icon-grade-clip)"><path fill-rule="evenodd" d="M4.5 2.759a1.25 1.25 0 0 0-1.25 1.25V8.73c0 9.392 7.29 12.1 8.395 12.455a1.147 1.147 0 0 0 .71 0C13.46 20.83 20.75 18.122 20.75 8.73V4.01a1.25 1.25 0 0 0-1.25-1.25h-15m.25 5.97V4.26h14.5v4.47c0 8.106-6.024 10.573-7.25 10.992-1.226-.419-7.25-2.886-7.25-10.992" clip-rule="evenodd" fill="currentColor"/><path d="M12.506 7.388a.548.548 0 0 0-1.012 0l-.88 2.117L8.327 9.69a.548.548 0 0 0-.313.963l1.741 1.491-.532 2.23a.548.548 0 0 0 .82.596L12 13.774l1.957 1.195a.548.548 0 0 0 .819-.595l-.532-2.23 1.741-1.492a.548.548 0 0 0-.313-.963l-2.285-.184-.88-2.117" fill="currentColor"/></g><defs><clipPath id="icon-grade-clip"><path d="M0 0h24v24H0z"/></clipPath></defs>
</svg>
