<svg xmlns="http://www.w3.org/2000/svg" viewBox="0 0 24 24">
  <g clip-path="url(#icon-package-clip)"><path fill-rule="evenodd" d="M3.5 4.25A1.25 1.25 0 0 0 2.25 5.5v13a1.25 1.25 0 0 0 1.25 1.25h17a1.25 1.25 0 0 0 1.25-1.25v-13a1.25 1.25 0 0 0-1.25-1.25h-17m.25 14V5.75H10v5.765a.3.3 0 0 0 .434.268l1.432-.716a.3.3 0 0 1 .268 0l1.432.716A.3.3 0 0 0 14 11.515V5.75h6.25v12.5H3.75" clip-rule="evenodd" fill="currentColor"/></g><defs><clipPath id="icon-package-clip"><path d="M0 0h24v24H0z"/></clipPath></defs>
</svg>
