<svg xmlns="http://www.w3.org/2000/svg" viewBox="0 0 24 24">
  <path fill-rule="evenodd" d="M6 3.25a.75.75 0 0 0-.53 1.28l.78.78V7a5.748 5.748 0 0 0 2.909 5 5.748 5.748 0 0 0-2.909 5v1.69l-.78.78A.75.75 0 0 0 6 20.75h12a.75.75 0 0 0 .53-1.28l-.78-.78V17a5.748 5.748 0 0 0-2.908-5 5.748 5.748 0 0 0 2.908-5V5.31l.78-.78A.75.75 0 0 0 18 3.25H6m6 9.5h-.003A4.25 4.25 0 0 0 7.75 17v1.25h8.5V17A4.25 4.25 0 0 0 12 12.75m.003-1.5A4.25 4.25 0 0 0 16.25 7V5.75h-8.5V7A4.25 4.25 0 0 0 12 11.25h.003" clip-rule="evenodd" fill="currentColor"/>
</svg>
