<svg xmlns="http://www.w3.org/2000/svg" viewBox="0 0 24 24">
  <path d="M6.5 2.75A2.25 2.25 0 0 0 4.25 5v13a2.25 2.25 0 0 0 2.25 2.25h5a.75.75 0 0 0 0-1.5h-5A.75.75 0 0 1 5.75 18V5A.75.75 0 0 1 6.5 4.25h11A.75.75 0 0 1 18.25 5v7a.75.75 0 0 0 1.5 0V5a2.25 2.25 0 0 0-2.25-2.25h-11" fill="currentColor"/><path fill-rule="evenodd" d="M7.25 7A1.25 1.25 0 0 1 8.5 5.75h4a1.25 1.25 0 0 1 1.23 1.02A1.25 1.25 0 0 1 14.75 8v4a1.25 1.25 0 0 1-1.25 1.25h-4a1.25 1.25 0 0 1-1.23-1.02A1.25 1.25 0 0 1 7.25 11V7m1.5.25h3.5v3.5h-3.5v-3.5M17 21.5a4 4 0 1 0 0-8 4 4 0 0 0 0 8m1.854-4.646a.5.5 0 0 0-.708-.708L16.5 17.793l-.646-.647a.5.5 0 0 0-.708.708l1 1a.5.5 0 0 0 .708 0l2-2" clip-rule="evenodd" fill="currentColor"/>
</svg>
