<svg xmlns="http://www.w3.org/2000/svg" viewBox="0 0 24 24">
  <g clip-path="url(#icon-arrow-up-left-in-circle-filled-clip)"><path d="M12 2.25c5.385 0 9.75 4.365 9.75 9.75s-4.365 9.75-9.75 9.75S2.25 17.385 2.25 12 6.615 2.25 12 2.25M9.136 7.886a1.25 1.25 0 0 0-1.25 1.25v4.571a.75.75 0 0 0 1.5 0v-3.26l5.084 5.083a.75.75 0 0 0 1.06-1.06l-5.084-5.084h3.261a.75.75 0 0 0 0-1.5H9.136" fill="currentColor"/></g><defs><clipPath id="icon-arrow-up-left-in-circle-filled-clip"><path d="M0 0h24v24H0z"/></clipPath></defs>
</svg>
