<svg xmlns="http://www.w3.org/2000/svg" viewBox="0 0 24 24">
  <g clip-path="url(#icon-hdmi-clip)"><path fill-rule="evenodd" d="M5.25 3.5A1.25 1.25 0 0 1 6.5 2.25h11a1.25 1.25 0 0 1 1.25 1.25v4.775a1.25 1.25 0 0 1 1 1.225v6a3.25 3.25 0 0 1-3.25 3.25h-3.75V21a.75.75 0 0 1-1.5 0v-2.25H7.5a3.25 3.25 0 0 1-3.25-3.25v-6a1.25 1.25 0 0 1 1-1.225V3.5M16.5 17.25a1.75 1.75 0 0 0 1.75-1.75V9.75H5.75v5.75a1.75 1.75 0 0 0 1.75 1.75h9M9.75 3.75h4.5v4.5h-4.5v-4.5m6 0v4.5h1.5v-4.5h-1.5m-7.5 0h-1.5v4.5h1.5v-4.5" clip-rule="evenodd" fill="currentColor"/></g><defs><clipPath id="icon-hdmi-clip"><path d="M0 0h24v24H0z"/></clipPath></defs>
</svg>
