<svg xmlns="http://www.w3.org/2000/svg" viewBox="0 0 24 24">
  <path fill-rule="evenodd" d="M20.132 4.118a2.25 2.25 0 0 0-3.182 0l-.884.884-1.237-1.237a.75.75 0 0 0-1.061 1.06l5.657 5.657a.75.75 0 1 0 1.06-1.06l-1.237-1.238.884-.884a2.25 2.25 0 0 0 0-3.182m-1.06 2.122-.885.883-1.06-1.06.884-.884a.75.75 0 1 1 1.06 1.06m-4.596.708a1.25 1.25 0 0 0-1.768 0l-6.64 6.64a1.25 1.25 0 0 0-.287.446l-1.697 4.525c-.377 1.005.604 1.986 1.609 1.61l4.12-1.546a3.251 3.251 0 0 0 1.157-.744l6.334-6.335a1.25 1.25 0 0 0 0-1.768l-2.828-2.828M9.39 12.384l4.2-4.2 2.475 2.475-1.725 1.725H9.39m-1.5 1.5h4.95l-2.933 2.933a1.75 1.75 0 0 1-.623.4L5.68 18.57l1.485-3.96.726-.726" clip-rule="evenodd" fill="currentColor"/>
</svg>
