<svg xmlns="http://www.w3.org/2000/svg" viewBox="0 0 24 24">
  <g clip-path="url(#icon-avatar-clip)"><path fill-rule="evenodd" d="M12 3.25a4.75 4.75 0 1 0 0 9.5 4.75 4.75 0 0 0 0-9.5M8.75 8a3.25 3.25 0 1 1 6.5 0 3.25 3.25 0 0 1-6.5 0" clip-rule="evenodd" fill="currentColor"/><path d="M8 14.25A4.75 4.75 0 0 0 3.25 19v1a.75.75 0 0 0 1.5 0v-1A3.25 3.25 0 0 1 8 15.75h8A3.25 3.25 0 0 1 19.25 19v1a.75.75 0 0 0 1.5 0v-1A4.75 4.75 0 0 0 16 14.25H8" fill="currentColor"/></g><defs><clipPath id="icon-avatar-clip"><path d="M0 0h24v24H0z"/></clipPath></defs>
</svg>
