<svg xmlns="http://www.w3.org/2000/svg" viewBox="0 0 24 24">
  <path d="M4.25 5A2.25 2.25 0 0 1 6.5 2.75h11A2.25 2.25 0 0 1 19.75 5v7a.75.75 0 0 1-1.5 0V5a.75.75 0 0 0-.75-.75h-11A.75.75 0 0 0 5.75 5v13a.75.75 0 0 0 .75.75h5a.75.75 0 0 1 0 1.5h-5A2.25 2.25 0 0 1 4.25 18V5" fill="currentColor"/><path fill-rule="evenodd" d="M17 21.5a4 4 0 1 0 0-8 4 4 0 0 0 0 8m1.854-4.646a.5.5 0 0 0-.708-.708L16.5 17.793l-.646-.647a.5.5 0 0 0-.708.708l1 1a.5.5 0 0 0 .708 0l2-2" clip-rule="evenodd" fill="currentColor"/><path d="M14.362 9.203c-.604.604-1.635.781-2.458.415l-3.671 3.67a.722.722 0 1 1-1.021-1.02l3.67-3.672c-.366-.823-.189-1.854.415-2.458.665-.664 1.545-.68 2.08-.61.22.029.288.285.13.443l-1.1 1.101a.3.3 0 0 0-.088.212v.597a.3.3 0 0 0 .3.3h.597a.3.3 0 0 0 .212-.088l1.101-1.1c.158-.158.414-.09.443.13.07.535.054 1.415-.61 2.08" fill="currentColor"/>
</svg>
