<svg xmlns="http://www.w3.org/2000/svg" viewBox="0 0 24 24">
  <path fill-rule="evenodd" d="M11.25 5.25A1.25 1.25 0 0 0 10 6.5v6a.75.75 0 0 0 .75.75h1.75a2.5 2.5 0 0 0 1.579-4.439A2.25 2.25 0 0 0 12.25 5.25h-1m1 3H11.5v-1.5h.75a.75.75 0 1 1 0 1.5m-.75 3.5v-2h1a1 1 0 1 1 0 2h-1m-4.225.943L7.024 11.75H4.976l-.251.943a.75.75 0 1 1-1.45-.386l1.662-6.232c.29-1.089 1.835-1.089 2.126 0l1.662 6.232a.75.75 0 0 1-1.45.386M6 7.911l.624 2.339H5.376L6 7.91" clip-rule="evenodd" fill="currentColor"/><path d="M17.75 7.75a1 1 0 0 1 1.904-.428.75.75 0 0 0 1.355-.644 2.5 2.5 0 0 0-4.76 1.072v3.001a2.5 2.5 0 0 0 4.76 1.072.75.75 0 0 0-1.355-.644 1 1 0 0 1-1.904-.428V7.75m-1.22 7.78a.75.75 0 1 0-1.06-1.06L11 18.94l-1.97-1.97a.75.75 0 0 0-1.06 1.06l2.146 2.147a1.25 1.25 0 0 0 1.768 0l4.646-4.647" fill="currentColor"/>
</svg>
