<svg xmlns="http://www.w3.org/2000/svg" viewBox="0 0 24 24">
  <g clip-path="url(#icon-spreadsheet-in-square-filled-clip)"><path fill-rule="evenodd" d="M18 3.25A2.75 2.75 0 0 1 20.75 6v12A2.75 2.75 0 0 1 18 20.75H6A2.75 2.75 0 0 1 3.25 18V6A2.75 2.75 0 0 1 6 3.25h12M7 12a.5.5 0 0 0-.5.5v3A.5.5 0 0 0 7 16h1.5A.5.5 0 0 0 9 15.5v-3A.5.5 0 0 0 8.5 12H7m4 0a.5.5 0 0 0-.5.5v3A.5.5 0 0 0 11 16h6a.5.5 0 0 0 .5-.5v-3A.5.5 0 0 0 17 12h-6M7 8a.5.5 0 0 0-.5.5V10A.5.5 0 0 0 7 10.5h1.5A.5.5 0 0 0 9 10V8.5A.5.5 0 0 0 8.5 8H7m4 0a.5.5 0 0 0-.5.5V10a.5.5 0 0 0 .5.5h6a.5.5 0 0 0 .5-.5V8.5A.5.5 0 0 0 17 8h-6" clip-rule="evenodd" fill="currentColor"/></g><defs><clipPath id="icon-spreadsheet-in-square-filled-clip"><path d="M0 0h24v24H0z"/></clipPath></defs>
</svg>
