<svg xmlns="http://www.w3.org/2000/svg" viewBox="0 0 24 24">
  <path d="M14.417 6.356a1.212 1.212 0 0 1 1.717 0 1.22 1.22 0 0 1 0 1.722l-5.249 5.26a.3.3 0 0 1-.424 0l-1.293-1.295a.3.3 0 0 1 0-.425l5.249-5.262m-6.895 8.226.794-1.989a.2.2 0 0 1 .327-.067l1.32 1.323a.2.2 0 0 1-.067.327l-1.984.795a.3.3 0 0 1-.39-.39" fill="currentColor"/><path fill-rule="evenodd" d="M4.25 5.5v13a2.25 2.25 0 0 0 2.25 2.25H19a.75.75 0 0 0 0-1.5H6.5a.75.75 0 0 1 0-1.5H19A.75.75 0 0 0 19.75 17V4.5a1.25 1.25 0 0 0-1.25-1.25h-12A2.25 2.25 0 0 0 4.25 5.5M6.5 4.75A.75.75 0 0 0 5.75 5.5v10.878A2.247 2.247 0 0 1 6.5 16.25h11.75V4.75H6.5" clip-rule="evenodd" fill="currentColor"/>
</svg>
