<svg xmlns="http://www.w3.org/2000/svg" viewBox="0 0 24 24">
  <g clip-path="url(#icon-bill-clip)"><path d="M7.25 7A.75.75 0 0 1 8 6.25h8a.75.75 0 0 1 0 1.5H8A.75.75 0 0 1 7.25 7M8 9.75a.75.75 0 0 0 0 1.5h8a.75.75 0 0 0 0-1.5H8M7.25 14A.75.75 0 0 1 8 13.25h4a.75.75 0 0 1 0 1.5H8A.75.75 0 0 1 7.25 14" fill="currentColor"/><path fill-rule="evenodd" d="M4.25 3.5A1.25 1.25 0 0 1 5.5 2.25h13a1.25 1.25 0 0 1 1.25 1.25v13.293a1.25 1.25 0 0 1-.366.884l-3.707 3.707a1.25 1.25 0 0 1-.884.366H5.5a1.25 1.25 0 0 1-1.25-1.25v-17m1.5.25v16.5h7.533v-3.72a1.25 1.25 0 0 1 1.25-1.25h3.717V3.75H5.75m12.41 13.03h-3.377v3.376l3.377-3.376" clip-rule="evenodd" fill="currentColor"/></g><defs><clipPath id="icon-bill-clip"><path d="M0 0h24v24H0z"/></clipPath></defs>
</svg>
