<svg xmlns="http://www.w3.org/2000/svg" viewBox="0 0 24 24">
  <path d="M18.893 5.104c-2.183-2.183-5.95-2.181-8.13.002a.75.75 0 1 0 1.06 1.06c1.596-1.597 4.412-1.598 6.01-.001 1.663 1.664 1.707 4.298-.003 6.008l-.707.707c-1.683 1.684-4.516 1.495-6.007.004a.75.75 0 0 0-1.06 1.06c2.031 2.032 5.815 2.31 8.128-.003l.707-.707c2.306-2.306 2.241-5.89.002-8.13" fill="currentColor"/><path d="M5.106 10.763c-2.307 2.306-2.24 5.89-.002 8.13 2.178 2.177 5.954 2.184 8.134.001a.75.75 0 0 0-1.061-1.06c-1.593 1.595-4.419 1.592-6.012-.002-1.664-1.664-1.709-4.299.001-6.009l.708-.707c1.682-1.683 4.518-1.492 6.01 0a.75.75 0 0 0 1.06-1.06c-2.031-2.033-5.817-2.314-8.131 0l-.707.707" fill="currentColor"/>
</svg>
