<svg xmlns="http://www.w3.org/2000/svg" viewBox="0 0 24 24">
  <g fill-rule="evenodd" clip-path="url(#icon-card-view-clip)" clip-rule="evenodd"><path d="M4.5 3.25A1.25 1.25 0 0 0 3.25 4.5v5a1.25 1.25 0 0 0 1.25 1.25h5a1.25 1.25 0 0 0 1.25-1.25v-5A1.25 1.25 0 0 0 9.5 3.25h-5m.25 6v-4.5h4.5v4.5h-4.5m-.25 4a1.25 1.25 0 0 0-1.25 1.25v5a1.25 1.25 0 0 0 1.25 1.25h5a1.25 1.25 0 0 0 1.25-1.25v-5a1.25 1.25 0 0 0-1.25-1.25h-5m.25 6v-4.5h4.5v4.5h-4.5m8.5-14.75a1.25 1.25 0 0 1 1.25-1.25h5a1.25 1.25 0 0 1 1.25 1.25v5a1.25 1.25 0 0 1-1.25 1.25h-5a1.25 1.25 0 0 1-1.25-1.25v-5m1.5.25v4.5h4.5v-4.5h-4.5m-.25 8.5a1.25 1.25 0 0 0-1.25 1.25v5a1.25 1.25 0 0 0 1.25 1.25h5a1.25 1.25 0 0 0 1.25-1.25v-5a1.25 1.25 0 0 0-1.25-1.25h-5m.25 6v-4.5h4.5v4.5h-4.5" fill="currentColor"/></g><defs><clipPath id="icon-card-view-clip"><path d="M0 0h24v24H0z"/></clipPath></defs>
</svg>
