<svg xmlns="http://www.w3.org/2000/svg" viewBox="0 0 24 24">
  <path d="M35.875 21.44a1 1 0 0 0 1.265-.12l9.33-9.33a1 1 0 0 0 .3-.71 1.003 1.003 0 0 0-.3-.71l-9.33-9.33a1 1 0 0 0-1.41 1.41l7.611 7.62H25.66a1 1 0 1 0 0 2h17.7l-7.63 7.63a1 1 0 0 0 .145 1.54M1.01 36.624v.006a1 1 0 0 0 .4.8l9.23 9.23a1 1 0 0 0 1.41 0 1 1 0 0 0 0-1.41l-7.611-7.62H21.6a1 1 0 0 0 0-2H4.42L12.05 28a1.001 1.001 0 1 0-1.41-1.42l-9.33 9.33a1 1 0 0 0-.3.71v.004" fill="currentColor"/><path fill-rule="evenodd" d="M10.08 20.34A9.07 9.07 0 1 1 10.06 2.2a9.07 9.07 0 0 1 .02 18.14m0-16.13a7.07 7.07 0 1 0 7.06 7.07 7.08 7.08 0 0 0-7.06-7.07m19.56 42.6h16.13a1 1 0 0 0 1-1V27.38a1 1 0 0 0-1-1H29.64a1 1 0 0 0-1 1v18.43a1 1 0 0 0 1 1m15.13-2H30.64V28.38h14.13v16.43" clip-rule="evenodd" fill="currentColor"/>
</svg>
