<svg xmlns="http://www.w3.org/2000/svg" viewBox="0 0 24 24">
  <path d="m7.354 10.146 1.292-1.292a.5.5 0 0 1 .708 0l1.292 1.292a.5.5 0 0 1 0 .708l-1.292 1.292a.5.5 0 0 1-.708 0l-1.292-1.292a.5.5 0 0 1 0-.708m7.292-1.292-1.292 1.292a.5.5 0 0 0 0 .708l1.292 1.292a.5.5 0 0 0 .708 0l1.292-1.292a.5.5 0 0 0 0-.708l-1.292-1.292a.5.5 0 0 0-.708 0m-4.292-1.708 1.292-1.292a.5.5 0 0 1 .708 0l1.292 1.292a.5.5 0 0 1 0 .708l-1.292 1.292a.5.5 0 0 1-.708 0l-1.292-1.292a.5.5 0 0 1 0-.708m1.292 4.708-1.292 1.292a.5.5 0 0 0 0 .708l1.292 1.292a.5.5 0 0 0 .708 0l1.292-1.292a.5.5 0 0 0 0-.708l-1.292-1.292a.5.5 0 0 0-.708 0" fill="currentColor"/><path fill-rule="evenodd" d="M21.75 4.5v11a2.25 2.25 0 0 1-2.25 2.25h-4.584l-1.856 2.97a1.25 1.25 0 0 1-2.12 0l-1.856-2.97H4.5a2.25 2.25 0 0 1-2.25-2.25v-11A2.25 2.25 0 0 1 4.5 2.25h15a2.25 2.25 0 0 1 2.25 2.25m-1.5 11v-11a.75.75 0 0 0-.75-.75h-15A.75.75 0 0 0 3.75 4.5v11a.75.75 0 0 0 .75.75h4.723a1.25 1.25 0 0 1 1.06.587L12 19.586l1.717-2.748a1.25 1.25 0 0 1 1.06-.587H19.5a.75.75 0 0 0 .75-.75" clip-rule="evenodd" fill="currentColor"/>
</svg>
