<svg xmlns="http://www.w3.org/2000/svg" viewBox="0 0 24 24">
  <g clip-path="url(#icon-plug-clip)"><path fill-rule="evenodd" d="M9.25 3.5a.75.75 0 0 0-1.5 0v4.25H6.5A1.25 1.25 0 0 0 5.25 9v6.046a3.205 3.205 0 0 0 3.205 3.204h2.795v2.25a.75.75 0 0 0 1.5 0v-2.25h2.796a3.204 3.204 0 0 0 3.204-3.204V9a1.25 1.25 0 0 0-1.25-1.25h-1.25V3.5a.75.75 0 0 0-1.5 0v4.25h-5.5V3.5m6.296 13.25a1.705 1.705 0 0 0 1.704-1.704V9.25H6.75v5.796a1.705 1.705 0 0 0 1.705 1.704h7.09" clip-rule="evenodd" fill="currentColor"/></g><defs><clipPath id="icon-plug-clip"><path d="M0 0h24v24H0z"/></clipPath></defs>
</svg>
