<svg xmlns="http://www.w3.org/2000/svg" viewBox="0 0 24 24">
  <path d="M4.75 10.016V4.568a2.45 2.45 0 0 1 .973-.297c.64-.07 1.61.014 2.975.614 2.087.918 3.58.867 4.552.567V6a.75.75 0 0 0 1.5 0V4.716c0-.47-.322-.76-.564-.88a1.043 1.043 0 0 0-.967.01C12.8 4.08 11.6 4.523 9.302 3.512 7.742 2.825 6.506 2.676 5.56 2.78 4.613 2.883 4.003 3.235 3.69 3.477a1.143 1.143 0 0 0-.44.915V16.27a.75.75 0 0 0 1.5 0v-4.63a2.083 2.083 0 0 1 .414-.182c.482-.154 1.323-.258 2.61.148a.75.75 0 0 0 .452-1.43C6.7 9.693 5.556 9.767 4.75 10.015" fill="currentColor"/><path fill-rule="evenodd" d="M11.839 16.14a2.206 2.206 0 0 0-.589.23V21a.75.75 0 0 1-1.5 0V9.122c0-.3.113-.666.438-.915.315-.241.925-.593 1.872-.697.946-.104 2.181.045 3.742.732C18.1 9.253 19.3 8.81 19.72 8.576a1.043 1.043 0 0 1 .967-.01c.242.12.564.41.564.88v6.457a.962.962 0 0 1-.33.73c-.25.217-.83.618-1.797.762-.966.144-2.26.024-3.925-.709-1.663-.731-2.743-.697-3.36-.547m-.589-1.394V9.298a2.45 2.45 0 0 1 .973-.297c.64-.07 1.61.014 2.975.614 2.087.918 3.58.867 4.552.567v5.448a2.374 2.374 0 0 1-.849.281c-.637.096-1.645.042-3.099-.598-1.909-.84-3.328-.873-4.32-.63a3.988 3.988 0 0 0-.232.063" clip-rule="evenodd" fill="currentColor"/>
</svg>
