<svg xmlns="http://www.w3.org/2000/svg" viewBox="0 0 24 24">
  <g clip-path="url(#icon-deal-filled-clip)"><path fill-rule="evenodd" d="M9.973 4.063c.951-1.418 3.103-1.418 4.054 0A.998.998 0 0 0 15.2 4.43c1.634-.608 3.375.611 3.28 2.297a.947.947 0 0 0 .725.961c1.693.435 2.357 2.407 1.253 3.717a.917.917 0 0 0 0 1.19c1.104 1.31.44 3.282-1.253 3.716a.947.947 0 0 0-.724.962c.094 1.686-1.647 2.905-3.28 2.297a.998.998 0 0 0-1.174.367c-.951 1.418-3.103 1.418-4.054 0A.998.998 0 0 0 8.8 19.57c-1.634.608-3.375-.611-3.28-2.297a.947.947 0 0 0-.725-.962c-1.692-.434-2.357-2.406-1.253-3.716a.917.917 0 0 0 0-1.19c-1.104-1.31-.44-3.282 1.253-3.717A.947.947 0 0 0 5.52 6.727C5.425 5.04 7.166 3.822 8.8 4.43a.998.998 0 0 0 1.173-.367m4.9 8.86c-1.058 0-1.915.827-1.915 1.847s.857 1.845 1.915 1.845 1.915-.826 1.915-1.845c0-1.02-.857-1.847-1.915-1.847m1.412-4.921a.636.636 0 0 0-.854 0L7.715 15.2a.538.538 0 0 0 0 .798.636.636 0 0 0 .854 0l7.716-7.2a.538.538 0 0 0 0-.796M9.127 7.384c-1.058 0-1.915.827-1.915 1.846 0 1.02.857 1.847 1.915 1.847s1.915-.827 1.915-1.847-.857-1.846-1.915-1.846" clip-rule="evenodd" fill="currentColor"/></g><defs><clipPath id="icon-deal-filled-clip"><path d="M0 0h24v24H0z"/></clipPath></defs>
</svg>
