<svg xmlns="http://www.w3.org/2000/svg" viewBox="0 0 24 24">
  <path fill-rule="evenodd" d="M3.75 5A1.25 1.25 0 0 1 5 3.75h2.5A1.25 1.25 0 0 1 8.75 5v14.5a1.25 1.25 0 0 1-1.25 1.25H5a1.25 1.25 0 0 1-1.25-1.25V5m1.5.25v14h2v-14h-2M15.75 5A1.25 1.25 0 0 1 17 3.75h2.5A1.25 1.25 0 0 1 20.75 5v14.5a1.25 1.25 0 0 1-1.25 1.25H17a1.25 1.25 0 0 1-1.25-1.25V5m1.5.25v14h2v-14h-2M11 3.75A1.25 1.25 0 0 0 9.75 5v14.5A1.25 1.25 0 0 0 11 20.75h2.5a1.25 1.25 0 0 0 1.25-1.25V5a1.25 1.25 0 0 0-1.25-1.25H11m.25 15.5v-14h2v14h-2" clip-rule="evenodd" fill="currentColor"/>
</svg>
