<svg xmlns="http://www.w3.org/2000/svg" viewBox="0 0 24 24">
  <path fill-rule="evenodd" d="M17.129 6a.75.75 0 0 0-1.5 0v.314a3.693 3.693 0 0 0-1.52.611c-.675.483-1.147 1.236-1.147 2.218 0 1.031.542 1.708 1.217 2.162.43.289.95.512 1.45.705v4.148c-.945-.245-1.5-.945-1.5-1.658a.75.75 0 0 0-1.5 0c0 1.714 1.369 2.904 3 3.186V18a.75.75 0 0 0 1.5 0v-.314c1.631-.282 3-1.472 3-3.186 0-1.133-.467-1.94-1.153-2.516-.547-.46-1.226-.766-1.847-1.01V7.85a2.059 2.059 0 0 1 .647.297c.325.232.52.55.52.997a.75.75 0 0 0 1.5 0c0-.982-.473-1.735-1.148-2.218a3.693 3.693 0 0 0-1.52-.611V6m-1.5 1.849a2.059 2.059 0 0 0-.648.297c-.324.232-.519.55-.519.997 0 .397.167.657.554.918a4.038 4.038 0 0 0 .613.328v-2.54m1.5 4.753v3.556c.945-.245 1.5-.945 1.5-1.658 0-.653-.242-1.051-.618-1.368a3.892 3.892 0 0 0-.882-.53M9.156 13.75l.995 4.041a.75.75 0 0 0 1.456-.358L8.984 6.778c-.311-1.266-2.11-1.27-2.426-.005L3.894 17.43a.75.75 0 0 0 1.455.364L6.36 13.75h2.796m-.37-1.5L7.77 8.115 6.735 12.25h2.052" clip-rule="evenodd" fill="currentColor"/>
</svg>
