<svg xmlns="http://www.w3.org/2000/svg" viewBox="0 0 24 24">
  <g clip-path="url(#icon-arrow-down-right-in-circle-filled-clip)"><path d="M12 21.75c-5.385 0-9.75-4.365-9.75-9.75S6.615 2.25 12 2.25s9.75 4.365 9.75 9.75-4.365 9.75-9.75 9.75m2.864-5.636a1.25 1.25 0 0 0 1.25-1.25v-4.571a.75.75 0 0 0-1.5 0v3.26L9.53 8.47a.75.75 0 1 0-1.06 1.06l5.084 5.084h-3.261a.75.75 0 0 0 0 1.5h4.571" fill="currentColor"/></g><defs><clipPath id="icon-arrow-down-right-in-circle-filled-clip"><path d="M0 0h24v24H0z"/></clipPath></defs>
</svg>
