<svg xmlns="http://www.w3.org/2000/svg" viewBox="0 0 24 24">
  <g clip-path="url(#icon-gift-clip)"><path fill-rule="evenodd" d="M6.841 6.23C6.354 4.31 7.861 2.5 9.811 2.5A3.114 3.114 0 0 1 12 3.4a3.117 3.117 0 0 1 2.19-.9c1.948 0 3.456 1.81 2.969 3.73A2.977 2.977 0 0 1 16.844 7H19.5a1.25 1.25 0 0 1 1.25 1.25v3a1.25 1.25 0 0 1-1.25 1.25h-.25v7.75A1.25 1.25 0 0 1 18 21.5H6a1.25 1.25 0 0 1-1.25-1.25V12.5H4.5a1.25 1.25 0 0 1-1.25-1.25v-3A1.25 1.25 0 0 1 4.5 7h2.656a2.98 2.98 0 0 1-.315-.77M12.75 20h5v-7.5h-5V20m-1.5-7.5V20h-5v-7.5h5m1.5-1.5h6.5V8.5h-6.5V11m-1.5-2.5V11h-6.5V8.5h6.5m4.455-2.639A1.529 1.529 0 0 1 14.215 7h-1.467l-.005-1.816a3.46 3.46 0 0 0-.009-.25A1.587 1.587 0 0 1 14.19 4c1.025 0 1.748.941 1.515 1.861m-4.462-.673L11.248 7H9.785a1.529 1.529 0 0 1-1.49-1.139C8.061 4.941 8.785 4 9.81 4a1.6 1.6 0 0 1 1.345.726c.049.076.088.213.088.462" clip-rule="evenodd" fill="currentColor"/></g><defs><clipPath id="icon-gift-clip"><path d="M0 0h24v24H0z"/></clipPath></defs>
</svg>
