<svg xmlns="http://www.w3.org/2000/svg" viewBox="0 0 24 24">
  <g clip-path="url(#icon-medal-clip)"><path d="m13.106 12.99-.837-1.695a.3.3 0 0 0-.538 0l-.837 1.696a.3.3 0 0 1-.226.164l-1.87.272a.3.3 0 0 0-.167.511l1.354 1.32a.3.3 0 0 1 .086.266l-.32 1.863a.3.3 0 0 0 .436.316l1.673-.88a.3.3 0 0 1 .28 0l1.673.88a.3.3 0 0 0 .435-.316l-.32-1.864a.3.3 0 0 1 .087-.265l1.354-1.32a.3.3 0 0 0-.166-.511l-1.871-.272a.3.3 0 0 1-.226-.164" fill="currentColor"/><path fill-rule="evenodd" d="M3.217 4.328A1.25 1.25 0 0 1 4.325 2.5h3.872a1.25 1.25 0 0 1 1.108.672l2.52 4.83a6.883 6.883 0 0 1 .35 0l2.52-4.83A1.25 1.25 0 0 1 15.803 2.5h3.872a1.25 1.25 0 0 1 1.108 1.828l-3.348 6.418a6.75 6.75 0 1 1-10.87 0L3.217 4.328M8.045 4l2.207 4.229a6.732 6.732 0 0 0-2.6 1.358L4.737 4h3.308m8.303 5.587a6.732 6.732 0 0 0-2.6-1.358L15.956 4h3.308l-2.915 5.587M12 9.5A5.25 5.25 0 1 0 12 20a5.25 5.25 0 0 0 0-10.5" clip-rule="evenodd" fill="currentColor"/></g><defs><clipPath id="icon-medal-clip"><path d="M0 0h24v24H0z"/></clipPath></defs>
</svg>
