<svg xmlns="http://www.w3.org/2000/svg" viewBox="0 0 24 24">
  <path d="M8.25 9.5V8.25h3v7.5H10a.75.75 0 0 0 0 1.5h4a.75.75 0 0 0 0-1.5h-1.25v-7.5h3V9.5a.75.75 0 1 0 1.5 0V8A1.25 1.25 0 0 0 16 6.75H8A1.25 1.25 0 0 0 6.75 8v1.5a.75.75 0 1 0 1.5 0" fill="currentColor"/><path fill-rule="evenodd" d="M4.5 3.25A1.25 1.25 0 0 0 3.25 4.5v15a1.25 1.25 0 0 0 1.25 1.25h15a1.25 1.25 0 0 0 1.25-1.25v-15a1.25 1.25 0 0 0-1.25-1.25h-15m.25 16V4.75h14.5v14.5H4.75" clip-rule="evenodd" fill="currentColor"/>
</svg>
