<svg xmlns="http://www.w3.org/2000/svg" viewBox="0 0 24 24">
  <path fill-rule="evenodd" d="M19 8.75h-6.085l.476-2.383a3.046 3.046 0 0 0-1.624-3.322 1.21 1.21 0 0 0-1.648.593L6.947 10.83a5.25 5.25 0 0 0-.165.42H4.75A1.25 1.25 0 0 0 3.5 12.5v6a1.25 1.25 0 0 0 1.25 1.25h2.5a.762.762 0 0 0 .08-.004 2.242 2.242 0 0 0 1.42.504h7.75c.66 0 1.229-.21 1.638-.593a1.924 1.924 0 0 0 .464-2.147c.706-.342 1.124-1.013 1.13-1.753a1.92 1.92 0 0 0-.25-.968 1.924 1.924 0 0 0 .623-2.271 2.067 2.067 0 0 0 .533-.361 1.924 1.924 0 0 0 0-2.813C20.228 8.96 19.661 8.75 19 8.75m-1.888 9.188c-.09-.085-.273-.188-.612-.188H16a.75.75 0 1 1 0-1.5h1.5c.323 0 .5-.1.59-.186a.446.446 0 0 0 .143-.32.415.415 0 0 0-.131-.31c-.085-.08-.26-.183-.596-.184H16.5a.75.75 0 0 1 0-1.5h.974l.066-.001h.01L18 13.75c.34 0 .521-.103.612-.188a.424.424 0 0 0 0-.624c-.09-.085-.273-.188-.612-.188h-1.5a.75.75 0 0 1 0-1.5H19c.34 0 .521-.103.612-.188a.424.424 0 0 0 0-.624C19.522 10.353 19.34 10.25 19 10.25h-6.985a.745.745 0 0 1-.586-.264.748.748 0 0 1-.161-.65l.653-3.263a1.547 1.547 0 0 0-.565-1.522L8.32 11.435A3.75 3.75 0 0 0 8 12.949V18a.75.75 0 0 0 .75.75h7.75c.34 0 .521-.103.612-.188a.424.424 0 0 0 0-.624M6.514 18.25A2.274 2.274 0 0 1 6.5 18v-5.05a5.233 5.233 0 0 1 .004-.199H5v5.5h1.514" clip-rule="evenodd" fill="currentColor"/>
</svg>
