<svg xmlns="http://www.w3.org/2000/svg" viewBox="0 0 24 24">
  <g fill-rule="evenodd" clip-path="url(#icon-cell-signal-clip)" clip-rule="evenodd"><path d="M17.5 3.25a1.25 1.25 0 0 0-1.25 1.25v15a1.25 1.25 0 0 0 1.25 1.25h3a1.25 1.25 0 0 0 1.25-1.25v-15a1.25 1.25 0 0 0-1.25-1.25h-3m.25 16V4.75h2.5v14.5h-2.5M9.25 8.5a1.25 1.25 0 0 1 1.25-1.25h3a1.25 1.25 0 0 1 1.25 1.25v11a1.25 1.25 0 0 1-1.25 1.25h-3a1.25 1.25 0 0 1-1.25-1.25v-11m1.5.25v10.5h2.5V8.75h-2.5m-8.5 3.75a1.25 1.25 0 0 1 1.25-1.25h3a1.25 1.25 0 0 1 1.25 1.25v7a1.25 1.25 0 0 1-1.25 1.25h-3a1.25 1.25 0 0 1-1.25-1.25v-7m1.5.25v6.5h2.5v-6.5h-2.5" fill="currentColor"/></g><defs><clipPath id="icon-cell-signal-clip"><path d="M0 0h24v24H0z"/></clipPath></defs>
</svg>
