<svg xmlns="http://www.w3.org/2000/svg" viewBox="0 0 24 24">
  <g clip-path="url(#icon-arrow-down-left-in-circle-filled-clip)"><path d="M2.25 12c0-5.385 4.365-9.75 9.75-9.75s9.75 4.365 9.75 9.75-4.365 9.75-9.75 9.75S2.25 17.385 2.25 12m5.636 2.864a1.25 1.25 0 0 0 1.25 1.25h4.571a.75.75 0 0 0 0-1.5h-3.26L15.53 9.53a.75.75 0 1 0-1.06-1.06l-5.084 5.084v-3.261a.75.75 0 0 0-1.5 0v4.571" fill="currentColor"/></g><defs><clipPath id="icon-arrow-down-left-in-circle-filled-clip"><path d="M0 0h24v24H0z"/></clipPath></defs>
</svg>
