<svg xmlns="http://www.w3.org/2000/svg" viewBox="0 0 24 24">
  <g clip-path="url(#icon-tab-bar-sell-active-clip)"><path d="m37.88.586 9.29 9.33a1.999 1.999 0 0 1 .59 1.42 2 2 0 0 1-.59 1.41l-9.33 9.33a1.999 1.999 0 0 1-3.412-1.41 2 2 0 0 1 .582-1.41l5.92-5.93H25.65a2 2 0 0 1 0-4h15.23l-5.83-5.91a2.002 2.002 0 0 1 2.83-2.83m-31 34.1h14.71a2 2 0 0 1 0 4H6.88l5.83 5.91a2.002 2.002 0 0 1-2.83 2.83l-9.29-9.37a2.08 2.08 0 0 1-.55-1 .41.41 0 0 0 0-.11 2.4 2.4 0 0 1 0-.28 2.08 2.08 0 0 1 .55-1.35v-.05l9.29-9.33a2.03 2.03 0 0 1 2.92 2.82l-5.92 5.93" fill="currentColor"/><path fill-rule="evenodd" d="M10.07 21.396a10.07 10.07 0 1 0 0-20.139 10.07 10.07 0 0 0 0 20.14m0-16.13A6.07 6.07 0 1 1 4 11.336a6.08 6.08 0 0 1 6.07-6.07m19.56 20.17h16.13a2 2 0 0 1 2 2v18.43a2 2 0 0 1-2 2H29.63a2 2 0 0 1-2-2v-18.43a2 2 0 0 1 2-2m2 18.43h12.13v-14.43H31.63v14.43" clip-rule="evenodd" fill="currentColor"/></g><defs><clipPath id="icon-tab-bar-sell-active-clip"><path d="M0 0h48v48H0z"/></clipPath></defs>
</svg>
