<svg xmlns="http://www.w3.org/2000/svg" viewBox="0 0 24 24">
  <g clip-path="url(#icon-product-collection-clip)"><path d="M17.25 7v8.6c0 .432 0 .712-.018.924-.016.204-.045.28-.064.317a.75.75 0 0 1-.327.327c-.037.019-.113.048-.317.064A12.8 12.8 0 0 1 15.6 17.25H7a.75.75 0 0 0 0 1.5h8.6c.407 0 .759.001 1.047-.023a2.292 2.292 0 0 0 .875-.222 2.25 2.25 0 0 0 .983-.983 2.292 2.292 0 0 0 .223-.875c.023-.288.022-.64.022-1.047V7a.75.75 0 0 0-1.5 0" fill="currentColor"/><path d="M20.25 10v8.6c0 .432 0 .712-.018.924-.016.204-.045.28-.064.317a.75.75 0 0 1-.327.327c-.037.019-.113.048-.317.064A12.8 12.8 0 0 1 18.6 20.25H10a.75.75 0 0 0 0 1.5h8.6c.407 0 .759.001 1.046-.023a2.292 2.292 0 0 0 .875-.222 2.25 2.25 0 0 0 .984-.983 2.292 2.292 0 0 0 .223-.875c.023-.288.022-.64.022-1.047V10a.75.75 0 0 0-1.5 0" fill="currentColor"/><path d="M14.25 12.6c0 .432 0 .712-.018.924-.016.204-.045.28-.064.317a.75.75 0 0 1-.327.327c-.037.019-.113.048-.317.064A12.8 12.8 0 0 1 12.6 14.25H5.4a12.8 12.8 0 0 1-.924-.018c-.204-.016-.28-.045-.317-.064a.75.75 0 0 1-.327-.327c-.019-.037-.048-.113-.064-.317A12.821 12.821 0 0 1 3.75 12.6V5.4c0-.432 0-.712.018-.924.016-.204.045-.28.064-.317a.75.75 0 0 1 .327-.327c.037-.019.113-.048.317-.064A12.821 12.821 0 0 1 5.4 3.75h7.2c.432 0 .712 0 .924.018.204.016.28.045.317.064a.75.75 0 0 1 .327.327c.019.037.048.113.064.317A12.8 12.8 0 0 1 14.25 5.4v7.2m1.5-7.2c0-.407.001-.759-.023-1.046a2.292 2.292 0 0 0-.222-.875 2.25 2.25 0 0 0-.984-.984c-.283-.144-.578-.198-.875-.223C13.36 2.25 13.008 2.25 12.6 2.25H5.4c-.407 0-.759-.001-1.046.022a2.291 2.291 0 0 0-.875.223A2.25 2.25 0 0 0 2.495 3.48a2.291 2.291 0 0 0-.223.875C2.25 4.64 2.25 4.993 2.25 5.4v7.2c0 .407-.001.759.022 1.047a2.315 2.315 0 0 0 .223.874 2.25 2.25 0 0 0 .984.984 2.292 2.292 0 0 0 .875.222C4.64 15.751 4.993 15.75 5.4 15.75h7.2c.407 0 .759.001 1.047-.023a2.292 2.292 0 0 0 .874-.222 2.25 2.25 0 0 0 .984-.984 2.292 2.292 0 0 0 .222-.875c.024-.287.023-.639.023-1.046V5.4" fill="currentColor"/></g><defs><clipPath id="icon-product-collection-clip"><path d="M0 0h24v24H0z"/></clipPath></defs>
</svg>
