<svg xmlns="http://www.w3.org/2000/svg" viewBox="0 0 24 24">
  <path fill-rule="evenodd" d="M3.807 2.713A.75.75 0 0 1 4.5 2.25H19a.75.75 0 0 1 .53 1.28l-1.28 1.28V5.5a3.25 3.25 0 0 1-1.98 2.993l.48 12.478a.75.75 0 1 1-1.5.058l-.376-9.779h-1.106L14 20.982a.75.75 0 0 1-1.5.036l-.232-9.768h-1.036L11 21.018a.75.75 0 1 1-1.5-.036l.232-9.732H8.626l-.377 9.779a.75.75 0 1 1-1.498-.058L7.23 8.493A3.25 3.25 0 0 1 5.25 5.5V4.81L3.97 3.53a.75.75 0 0 1-.163-.817M8.683 9.75h6.134l-.039-1H8.722l-.039 1M16.75 5.5A1.75 1.75 0 0 1 15 7.25H8.5A1.75 1.75 0 0 1 6.75 5.5V5.25h10V5.5" clip-rule="evenodd" fill="currentColor"/>
</svg>
