<svg xmlns="http://www.w3.org/2000/svg" viewBox="0 0 24 24">
  <path d="M5.5 19.75a2.25 2.25 0 0 1-2.25-2.25v-13a.75.75 0 0 1 1.5 0v13a.75.75 0 0 0 .75.75h13a.75.75 0 0 0 .75-.75v-13a.75.75 0 0 1 1.5 0v13a2.25 2.25 0 0 1-2.25 2.25h-13" fill="currentColor"/><path d="m7.354 10.646 1.292-1.292a.5.5 0 0 1 .708 0l1.292 1.292a.5.5 0 0 1 0 .708l-1.292 1.292a.5.5 0 0 1-.708 0l-1.292-1.292a.5.5 0 0 1 0-.708m7.292-1.292-1.292 1.292a.5.5 0 0 0 0 .708l1.292 1.292a.5.5 0 0 0 .708 0l1.292-1.292a.5.5 0 0 0 0-.708l-1.292-1.292a.5.5 0 0 0-.708 0m-4.292-1.708 1.292-1.292a.5.5 0 0 1 .708 0l1.292 1.292a.5.5 0 0 1 0 .708l-1.292 1.292a.5.5 0 0 1-.708 0l-1.292-1.292a.5.5 0 0 1 0-.708m1.292 4.708-1.292 1.292a.5.5 0 0 0 0 .708l1.292 1.292a.5.5 0 0 0 .708 0l1.292-1.292a.5.5 0 0 0 0-.708l-1.292-1.292a.5.5 0 0 0-.708 0" fill="currentColor"/>
</svg>
