<svg xmlns="http://www.w3.org/2000/svg" viewBox="0 0 24 24">
  <path d="M3.25 17.948V5.75h4.63c2.315 0 3.963 1.644 3.963 3.925 0 1.68-.912 3.005-2.315 3.588l2.595 4.685H9.862L7.46 13.6H5.267v4.35H3.25m2.017-6.276h2.385c1.297 0 2.157-.777 2.157-1.997 0-1.256-.86-1.998-2.157-1.998H5.267v3.995m11.722 6.451c-2.56 0-4.507-2.015-4.507-4.561 0-2.563 1.946-4.561 4.419-4.561 2.543 0 4.349 1.91 4.349 4.508 0 .212 0 .442-.035.654H14.41c.228 1.432 1.21 2.245 2.578 2.245 1.052 0 1.858-.53 2.314-1.326l1.614.92c-.877 1.325-2.245 2.121-3.928 2.121m-2.526-5.392h4.823c-.176-1.184-1.087-2.033-2.403-2.033-1.21 0-2.139.76-2.42 2.033" fill="currentColor"/>
</svg>
