<svg xmlns="http://www.w3.org/2000/svg" viewBox="0 0 24 24">
  <g clip-path="url(#icon-info-clip)"><path d="M12.75 7.5a1 1 0 1 1-2 0 1 1 0 0 1 2 0m-3 3a.75.75 0 0 1 .75-.75h1A1.25 1.25 0 0 1 12.75 11v4.75h.75a.75.75 0 0 1 0 1.5h-3a.75.75 0 0 1 0-1.5h.75v-4.5H10.5a.75.75 0 0 1-.75-.75" fill="currentColor"/><path fill-rule="evenodd" d="M12 2.25c-5.385 0-9.75 4.365-9.75 9.75s4.365 9.75 9.75 9.75 9.75-4.365 9.75-9.75S17.385 2.25 12 2.25M3.75 12a8.25 8.25 0 1 1 16.5 0 8.25 8.25 0 0 1-16.5 0" clip-rule="evenodd" fill="currentColor"/></g><defs><clipPath id="icon-info-clip"><path d="M0 0h24v24H0z"/></clipPath></defs>
</svg>
