<svg xmlns="http://www.w3.org/2000/svg" viewBox="0 0 24 24">
  <g fill-rule="evenodd" clip-path="url(#icon-equalizer-small-clip)" clip-rule="evenodd"><path d="M10.647 8.25A2.751 2.751 0 0 0 5.25 9a2.75 2.75 0 0 0 5.397.75H18a.75.75 0 0 0 0-1.5h-7.353M9.25 9a1.25 1.25 0 1 0-2.5 0 1.25 1.25 0 0 0 2.5 0m4.104 6.75a2.751 2.751 0 1 0 0-1.5H6a.75.75 0 0 0 0 1.5h7.354m2.646-2a1.25 1.25 0 1 0 0 2.5 1.25 1.25 0 0 0 0-2.5" fill="currentColor"/></g><defs><clipPath id="icon-equalizer-small-clip"><path d="M0 0h24v24H0z"/></clipPath></defs>
</svg>
