<svg xmlns="http://www.w3.org/2000/svg" viewBox="0 0 24 24">
  <g clip-path="url(#icon-mail-clip)"><path fill-rule="evenodd" d="M21.75 6a1.25 1.25 0 0 0-1.25-1.25h-17A1.25 1.25 0 0 0 2.25 6v12a1.25 1.25 0 0 0 1.25 1.25h17A1.25 1.25 0 0 0 21.75 18V6m-1.5 1.099V6.25H3.75v.849l8.25 5.5 8.25-5.5M3.75 8.9v8.849h16.5V8.901l-7.556 5.038a1.25 1.25 0 0 1-1.387 0L3.75 8.901" clip-rule="evenodd" fill="currentColor"/></g><defs><clipPath id="icon-mail-clip"><path d="M0 0h24v24H0z"/></clipPath></defs>
</svg>
