<svg xmlns="http://www.w3.org/2000/svg" viewBox="0 0 24 24">
  <g clip-path="url(#icon-history-clip)"><path d="M10.14 2.43c5.285-1.028 10.403 2.424 11.431 7.71 1.028 5.285-2.425 10.404-7.71 11.431a9.745 9.745 0 0 1-9.13-3.07.75.75 0 0 1 1.117-1.001A8.25 8.25 0 1 0 5.13 7.434l-.033.05 1.88-.365a.75.75 0 0 1 .286 1.473L4.318 9.164a1.25 1.25 0 0 1-1.466-.989L2.184 4.74a.75.75 0 1 1 1.473-.286l.375 1.931a9.718 9.718 0 0 1 6.107-3.956" fill="currentColor"/><path d="M12 6.25A.75.75 0 0 1 12.75 7v4.69l2.78 2.78a.75.75 0 0 1-1.06 1.06l-2.854-2.853a1.25 1.25 0 0 1-.366-.884V7A.75.75 0 0 1 12 6.25" fill="currentColor"/></g><defs><clipPath id="icon-history-clip"><path d="M0 0h24v24H0z"/></clipPath></defs>
</svg>
