<svg xmlns="http://www.w3.org/2000/svg" viewBox="0 0 24 24">
  <path fill-rule="evenodd" d="M17.75 8.949a5.75 5.75 0 0 0-11.5 0A5.75 5.75 0 1 0 12 18.906a5.75 5.75 0 1 0 5.75-9.957M12 4.75a4.251 4.251 0 0 0-4.205 3.626A5.773 5.773 0 0 1 12 9.094a5.774 5.774 0 0 1 4.205-.717A4.251 4.251 0 0 0 12 4.75m4.153 5.158a4.253 4.253 0 0 0-2.904.218 5.74 5.74 0 0 1 1.28 2.29 4.252 4.252 0 0 0 1.624-2.508m-5.402.218a4.254 4.254 0 0 0-2.903-.218 4.252 4.252 0 0 0 1.623 2.508 5.74 5.74 0 0 1 1.28-2.29m.096 2.966A4.242 4.242 0 0 1 12 10.99a4.242 4.242 0 0 1 1.153 2.102 4.251 4.251 0 0 1-2.306 0m-1.597.96a5.764 5.764 0 0 1-2.779-3.468 4.25 4.25 0 0 0 4.28 7.29 5.729 5.729 0 0 1-1.5-3.823M12 17.01a4.239 4.239 0 0 1-1.205-2.386 5.774 5.774 0 0 0 2.41 0A4.239 4.239 0 0 1 12 17.01m1.25.864a5.728 5.728 0 0 0 1.5-3.823 5.764 5.764 0 0 0 2.779-3.467 4.25 4.25 0 0 1-4.28 7.29" clip-rule="evenodd" fill="currentColor"/>
</svg>
