<svg xmlns="http://www.w3.org/2000/svg" viewBox="0 0 24 24">
  <path d="M6.5 4.25A2.25 2.25 0 0 0 4.25 6.5v11a2.25 2.25 0 0 0 2.25 2.25H12a.75.75 0 0 0 0-1.5H6.5a.75.75 0 0 1-.75-.75v-11A.75.75 0 0 1 6.5 5.75h11a.75.75 0 0 1 .75.75V12a.75.75 0 0 0 1.5 0V6.5a2.25 2.25 0 0 0-2.25-2.25h-11" fill="currentColor"/><path fill-rule="evenodd" d="M13.27 12.3a.75.75 0 0 0-.97.97l2.5 6.5a.75.75 0 0 0 1.412-.033l.881-2.644 2.644-.881A.75.75 0 0 0 19.77 14.8l-6.5-2.5m2.44 4.2-.26.78-1.144-2.974 2.974 1.144-.78.26a1.25 1.25 0 0 0-.79.79" clip-rule="evenodd" fill="currentColor"/>
</svg>
