<svg xmlns="http://www.w3.org/2000/svg" viewBox="0 0 24 24">
  <g clip-path="url(#icon-cross-in-circle-clip)"><path d="M8.53 7.47a.75.75 0 0 0-1.06 1.06L10.94 12l-3.47 3.47a.75.75 0 1 0 1.06 1.06L12 13.06l3.47 3.47a.75.75 0 1 0 1.06-1.06L13.06 12l3.47-3.47a.75.75 0 0 0-1.06-1.06L12 10.94 8.53 7.47" fill="currentColor"/><path fill-rule="evenodd" d="M12 2.25c-5.385 0-9.75 4.365-9.75 9.75s4.365 9.75 9.75 9.75 9.75-4.365 9.75-9.75S17.385 2.25 12 2.25M3.75 12a8.25 8.25 0 1 1 16.5 0 8.25 8.25 0 0 1-16.5 0" clip-rule="evenodd" fill="currentColor"/></g><defs><clipPath id="icon-cross-in-circle-clip"><path d="M0 0h24v24H0z"/></clipPath></defs>
</svg>
