<svg xmlns="http://www.w3.org/2000/svg" viewBox="0 0 24 24">
  <g clip-path="url(#icon-shopping-bag-clip)"><path fill-rule="evenodd" d="M7.309 6.25a4.751 4.751 0 0 1 9.382 0H18.5a1.25 1.25 0 0 1 1.25 1.25v11a3.25 3.25 0 0 1-3.25 3.25h-9a3.25 3.25 0 0 1-3.25-3.25v-11A1.25 1.25 0 0 1 5.5 6.25h1.809m1.528 0a3.251 3.251 0 0 1 6.326 0H8.837M5.75 18.5V7.75h12.5V18.5a1.75 1.75 0 0 1-1.75 1.75h-9a1.75 1.75 0 0 1-1.75-1.75" clip-rule="evenodd" fill="currentColor"/></g><defs><clipPath id="icon-shopping-bag-clip"><path d="M0 0h24v24H0z"/></clipPath></defs>
</svg>
