<svg xmlns="http://www.w3.org/2000/svg" viewBox="0 0 24 24">
  <g clip-path="url(#icon-arrow-right-in-circle-clip)"><path d="M6.166 17.834A8.25 8.25 0 1 0 17.834 6.167 8.25 8.25 0 0 0 6.166 17.834m-1.06 1.06c-3.808-3.807-3.808-9.98 0-13.788 3.807-3.808 9.98-3.808 13.788 0 3.808 3.807 3.808 9.98 0 13.788-3.807 3.808-9.98 3.808-13.788 0" fill="currentColor"/><path d="M16.243 12.75a.75.75 0 0 0 0-1.5H7.757a.75.75 0 0 0 0 1.5h8.486" fill="currentColor"/><path d="M12.641 15.056a.75.75 0 0 0 1.06 1.06l3.233-3.232a1.25 1.25 0 0 0 0-1.768l-3.232-3.232a.75.75 0 1 0-1.06 1.06L15.696 12l-3.056 3.056" fill="currentColor"/><path d="M13.702 16.116a.75.75 0 0 1-1.06-1.06l2.305-2.306h-7.19a.75.75 0 1 1 0-1.5h7.19l-2.306-2.306a.75.75 0 0 1 1.06-1.06l3.233 3.232a1.25 1.25 0 0 1 0 1.768l-3.232 3.232" fill="currentColor"/></g><defs><clipPath id="icon-arrow-right-in-circle-clip"><path d="M0 0h24v24H0z"/></clipPath></defs>
</svg>
