<svg xmlns="http://www.w3.org/2000/svg" viewBox="0 0 24 24">
  <path fill-rule="evenodd" d="M12.178 2C6.55 2 2 6.583 2 12.254c0 4.532 2.915 8.369 6.96 9.727.505.102.69-.221.69-.493 0-.237-.016-1.052-.016-1.901-2.832.611-3.421-1.222-3.421-1.222-.455-1.189-1.13-1.494-1.13-1.494-.926-.628.068-.628.068-.628 1.028.068 1.567 1.052 1.567 1.052.91 1.562 2.376 1.12 2.966.85.084-.663.354-1.121.64-1.376-2.258-.238-4.634-1.12-4.634-5.059a4.014 4.014 0 0 1 1.045-2.75C6.634 8.706 6.28 7.653 6.836 6.244c0 0 .86-.272 2.797 1.052a9.786 9.786 0 0 1 2.545-.34 9.788 9.788 0 0 1 2.544.34c1.938-1.324 2.798-1.052 2.798-1.052.556 1.409.202 2.462.1 2.716.658.713 1.045 1.63 1.045 2.75 0 3.939-2.375 4.804-4.65 5.06.37.322.69.933.69 1.9 0 1.375-.016 2.479-.016 2.818 0 .272.185.595.69.493a10.246 10.246 0 0 0 6.96-9.728C22.356 6.584 17.789 2 12.178 2" clip-rule="evenodd" fill="currentColor"/>
</svg>
