<svg xmlns="http://www.w3.org/2000/svg" viewBox="0 0 24 24">
  <g clip-path="url(#icon-warning-clip)"><path d="M11.171 13.778V9.356a.83.83 0 1 1 1.658 0v4.422a.83.83 0 1 1-1.658 0M12 17.979a.995.995 0 1 0 0-1.99.995.995 0 0 0 0 1.99" fill="currentColor"/><path fill-rule="evenodd" d="M10.803 3.69a1.382 1.382 0 0 1 2.394 0l8.616 14.924a1.382 1.382 0 0 1-1.197 2.073H3.384a1.382 1.382 0 0 1-1.197-2.073l8.616-14.923M12 4.936 3.863 19.029h16.274L12 4.935" clip-rule="evenodd" fill="currentColor"/></g><defs><clipPath id="icon-warning-clip"><path d="M0 0h24v24H0z"/></clipPath></defs>
</svg>
