<svg xmlns="http://www.w3.org/2000/svg" viewBox="0 0 24 24">
  <g clip-path="url(#icon-check-in-circle-clip)"><path d="M17.03 9.53a.75.75 0 0 0-1.06-1.06l-5.47 5.47-2.47-2.47a.75.75 0 0 0-1.06 1.06l2.646 2.647a1.25 1.25 0 0 0 1.768 0L17.03 9.53" fill="currentColor"/><path fill-rule="evenodd" d="M12 2.25c-5.385 0-9.75 4.365-9.75 9.75s4.365 9.75 9.75 9.75 9.75-4.365 9.75-9.75S17.385 2.25 12 2.25M3.75 12a8.25 8.25 0 1 1 16.5 0 8.25 8.25 0 0 1-16.5 0" clip-rule="evenodd" fill="currentColor"/></g><defs><clipPath id="icon-check-in-circle-clip"><path d="M0 0h24v24H0z"/></clipPath></defs>
</svg>
