<svg xmlns="http://www.w3.org/2000/svg" viewBox="0 0 24 24">
  <g clip-path="url(#icon-alert-filled-clip)"><path fill-rule="evenodd" d="M18.5 2.25a3.25 3.25 0 0 1 3.25 3.25v9a3.25 3.25 0 0 1-3.25 3.25h-6.237l-4.794 3.836A.75.75 0 0 1 6.25 21v-3.25H5.5a3.25 3.25 0 0 1-3.25-3.25v-9A3.25 3.25 0 0 1 5.5 2.25h13M12 12.48a.9.9 0 1 0 0 1.802.9.9 0 0 0 0-1.802m0-6.75a.75.75 0 0 0-.75.75v4a.75.75 0 0 0 1.5 0v-4A.75.75 0 0 0 12 5.73" clip-rule="evenodd" fill="currentColor"/></g><defs><clipPath id="icon-alert-filled-clip"><path d="M0 0h24v24H0z"/></clipPath></defs>
</svg>
