<svg xmlns="http://www.w3.org/2000/svg" viewBox="0 0 24 24">
  <path d="M15.782 10.166c-.68.679-1.839.879-2.765.466l-4.13 4.13a.813.813 0 0 1-1.149-1.15l4.13-4.129c-.413-.926-.213-2.085.466-2.765.774-.773 1.807-.766 2.4-.678.22.032.288.29.13.447l-1.293 1.292a.3.3 0 0 0-.088.213v.724a.3.3 0 0 0 .3.3h.725a.3.3 0 0 0 .213-.087l1.292-1.293c.158-.158.415-.09.447.13.088.593.095 1.626-.678 2.4" fill="currentColor"/><path fill-rule="evenodd" d="M4.25 5.5v13a2.25 2.25 0 0 0 2.25 2.25H19a.75.75 0 0 0 0-1.5H6.5a.75.75 0 0 1 0-1.5H19A.75.75 0 0 0 19.75 17V4.5a1.25 1.25 0 0 0-1.25-1.25h-12A2.25 2.25 0 0 0 4.25 5.5M6.5 4.75A.75.75 0 0 0 5.75 5.5v10.878A2.247 2.247 0 0 1 6.5 16.25h11.75V4.75H6.5" clip-rule="evenodd" fill="currentColor"/>
</svg>
