<svg xmlns="http://www.w3.org/2000/svg" viewBox="0 0 24 24">
  <path d="M7.272 8.818a.75.75 0 0 1 .91-.546L12 9.227l3.818-.955a.75.75 0 0 1 .364 1.456l-3.432.858v2.22l2.406 4.33a.75.75 0 1 1-1.312.728L12 14.544l-1.844 3.32a.75.75 0 1 1-1.312-.728l2.406-4.33v-2.22L7.818 9.728a.75.75 0 0 1-.546-.91m4.021-1.111a1 1 0 1 0 1.414-1.414 1 1 0 0 0-1.414 1.414" fill="currentColor"/><path fill-rule="evenodd" d="M2.25 12c0-5.385 4.365-9.75 9.75-9.75s9.75 4.365 9.75 9.75-4.365 9.75-9.75 9.75S2.25 17.385 2.25 12M12 3.75a8.25 8.25 0 1 0 0 16.5 8.25 8.25 0 0 0 0-16.5" clip-rule="evenodd" fill="currentColor"/>
</svg>
