<svg xmlns="http://www.w3.org/2000/svg" viewBox="0 0 24 24">
  <path d="M6.782 14.375c0 1.04-.85 1.89-1.891 1.89A1.896 1.896 0 0 1 3 14.375a1.895 1.895 0 0 1 1.89-1.891h1.892v1.89m.953.001a1.895 1.895 0 0 1 1.89-1.891 1.895 1.895 0 0 1 1.891 1.89v4.735c0 1.04-.85 1.891-1.89 1.891a1.895 1.895 0 0 1-1.891-1.89v-4.735m1.89-7.593c-1.04 0-1.89-.85-1.89-1.891A1.895 1.895 0 0 1 9.625 3a1.895 1.895 0 0 1 1.891 1.89v1.892h-1.89M9.625 7.735a1.895 1.895 0 0 1 1.891 1.89 1.895 1.895 0 0 1-1.89 1.891H4.89c-1.04 0-1.89-.85-1.89-1.89a1.895 1.895 0 0 1 1.89-1.891h4.735m7.593 1.89c0-1.04.85-1.89 1.891-1.89 1.04 0 1.891.85 1.891 1.89a1.895 1.895 0 0 1-1.89 1.891h-1.892v-1.89m-.952-.001c0 1.041-.85 1.891-1.891 1.891s-1.891-.85-1.891-1.89V4.89c0-1.04.85-1.891 1.89-1.891a1.895 1.895 0 0 1 1.891 1.89v4.735m-1.89 7.594c1.04 0 1.89.85 1.89 1.891 0 1.04-.85 1.891-1.89 1.891a1.895 1.895 0 0 1-1.891-1.89v-1.892h1.89m.001-.952c-1.041 0-1.891-.85-1.891-1.891s.85-1.891 1.89-1.891h4.735c1.04 0 1.891.85 1.891 1.89a1.895 1.895 0 0 1-1.89 1.891h-4.735" fill="currentColor"/>
</svg>
