<svg xmlns="http://www.w3.org/2000/svg" viewBox="0 0 24 24">
  <g clip-path="url(#icon-list-view2-clip)"><path d="M6.875 11a.75.75 0 0 1 .75-.75h8.75a.75.75 0 0 1 0 1.5h-8.75A.75.75 0 0 1 6.875 11m.75 2.25a.75.75 0 0 0 0 1.5h8.75a.75.75 0 0 0 0-1.5h-8.75m0 3a.75.75 0 0 0 0 1.5h8.75a.75.75 0 0 0 0-1.5h-8.75" fill="currentColor"/><path fill-rule="evenodd" d="M5.5 3.25A2.25 2.25 0 0 0 3.25 5.5v13a2.25 2.25 0 0 0 2.25 2.25h13a2.25 2.25 0 0 0 2.25-2.25v-13a2.25 2.25 0 0 0-2.25-2.25h-13M4.75 5.5A.75.75 0 0 1 5.5 4.75h13a.75.75 0 0 1 .75.75v13a.75.75 0 0 1-.75.75h-13a.75.75 0 0 1-.75-.75v-13" clip-rule="evenodd" fill="currentColor"/></g><defs><clipPath id="icon-list-view2-clip"><path d="M0 0h24v24H0z"/></clipPath></defs>
</svg>
