<svg xmlns="http://www.w3.org/2000/svg" viewBox="0 0 24 24">
  <path d="M11.25 10.75v-4a.75.75 0 0 1 1.5 0v4a.75.75 0 0 1-1.5 0m.75 3.8a.9.9 0 1 0 0-1.8.9.9 0 0 0 0 1.8" fill="currentColor"/><path fill-rule="evenodd" d="M21.75 5.75v9A3.25 3.25 0 0 1 18.5 18h-6.237L7.47 21.836a.75.75 0 0 1-1.22-.586V18H5.5a3.25 3.25 0 0 1-3.25-3.25v-9A3.25 3.25 0 0 1 5.5 2.5h13a3.25 3.25 0 0 1 3.25 3.25m-1.5 9v-9A1.75 1.75 0 0 0 18.5 4h-13a1.75 1.75 0 0 0-1.75 1.75v9A1.75 1.75 0 0 0 5.5 16.5h1a1.25 1.25 0 0 1 1.25 1.25v1.94l3.645-2.916a1.25 1.25 0 0 1 .78-.274H18.5a1.75 1.75 0 0 0 1.75-1.75" clip-rule="evenodd" fill="currentColor"/>
</svg>
