<svg xmlns="http://www.w3.org/2000/svg" viewBox="0 0 24 24">
  <g clip-path="url(#icon-currency-swedish-krone-clip)"><path d="M4.25 3.5a.75.75 0 0 0-1.5 0v17a.75.75 0 0 0 1.5 0v-4.676l.782-.736 6.46 5.963a.75.75 0 1 0 1.017-1.102l-6.382-5.891 6.387-6.012a.75.75 0 1 0-1.028-1.092l-7.236 6.81V3.5M15 7.25A.75.75 0 0 1 15.75 8v.2a9.496 9.496 0 0 1 .111-.059c.46-.242.998-.478 1.586-.57a3.05 3.05 0 0 1 1.903.3c.639.329 1.227.892 1.774 1.713a.75.75 0 1 1-1.248.832c-.453-.679-.865-1.032-1.21-1.21a1.552 1.552 0 0 0-.988-.152c-.35.054-.718.203-1.117.414a14.159 14.159 0 0 0-.595.337L15.75 9.933V20.5a.75.75 0 0 1-1.5 0V8A.75.75 0 0 1 15 7.25" fill="currentColor"/></g><defs><clipPath id="icon-currency-swedish-krone-clip"><path d="M2 2h20v20H2z"/></clipPath></defs>
</svg>
