<svg xmlns="http://www.w3.org/2000/svg" viewBox="0 0 24 24">
  <path d="M8.534 8.497a.75.75 0 1 0-1.06 1.06l2.47 2.47-2.47 2.47a.75.75 0 1 0 1.06 1.06l3-3a.75.75 0 0 0 0-1.06l-3-3" fill="currentColor"/><path d="M18.4 18.9v1.5H5.6v-1.5h12.8m.5-.5V5.6a.5.5 0 0 0-.5-.5H5.6a.5.5 0 0 0-.5.5v12.8a.5.5 0 0 0 .5.5v1.5a2 2 0 0 1-2-2V5.6a2 2 0 0 1 2-2h12.8a2 2 0 0 1 2 2v12.8a2 2 0 0 1-2 2v-1.5a.5.5 0 0 0 .5-.5" fill="currentColor"/><path d="M15.996 15.33a.75.75 0 0 1 0 1.5h-4.035a.75.75 0 1 1 0-1.5h4.035" fill="currentColor"/>
</svg>
