<svg xmlns="http://www.w3.org/2000/svg" viewBox="0 0 24 24">
  <path fill-rule="evenodd" d="M3.25 9.5A1.25 1.25 0 0 1 4.5 8.25h5a1.25 1.25 0 0 1 1.25 1.25v5a1.25 1.25 0 0 1-1.25 1.25h-5a1.25 1.25 0 0 1-1.25-1.25v-5m1.5.25v4.5h4.5v-4.5h-4.5m11.75-5a2.75 2.75 0 1 0 0 5.5 2.75 2.75 0 0 0 0-5.5M12.25 7.5a4.25 4.25 0 1 1 8.5 0 4.25 4.25 0 0 1-8.5 0m2.25 5.75a.75.75 0 0 1 .65.375l3.464 6a.75.75 0 0 1-.65 1.125h-6.928a.75.75 0 0 1-.65-1.125l3.465-6A.75.75 0 0 1 14.5 13.25m-2.165 6h4.33L14.5 15.5l-2.165 3.75" clip-rule="evenodd" fill="currentColor"/>
</svg>
