<svg xmlns="http://www.w3.org/2000/svg" viewBox="0 0 24 24">
  <path fill-rule="evenodd" d="M11.324 4.043a1.25 1.25 0 0 1 1.352 0l6.73 4.326a.75.75 0 0 1 0 1.262l-6.73 4.326a1.25 1.25 0 0 1-1.352 0l-6.73-4.326a.75.75 0 0 1 0-1.262l6.73-4.326M6.387 9 12 12.608 17.613 9 12 5.392 6.387 9" clip-rule="evenodd" fill="currentColor"/><path fill-rule="evenodd" d="M4.37 11.594a.75.75 0 0 1 1.036-.225L12 15.61l6.595-4.24a.75.75 0 0 1 .81 1.262l-6.729 4.326a1.25 1.25 0 0 1-1.352 0l-6.73-4.326a.75.75 0 0 1-.225-1.037" clip-rule="evenodd" fill="currentColor"/><path fill-rule="evenodd" d="M4.37 14.594a.75.75 0 0 1 1.036-.225L12 18.61l6.595-4.24a.75.75 0 0 1 .81 1.262l-6.729 4.326a1.25 1.25 0 0 1-1.352 0l-6.73-4.326a.75.75 0 0 1-.225-1.037" clip-rule="evenodd" fill="currentColor"/>
</svg>
