<svg xmlns="http://www.w3.org/2000/svg" viewBox="0 0 24 24">
  <g clip-path="url(#icon-log-out-clip)"><path d="M6.854 3.25a3.25 3.25 0 0 0-3.25 3.25v11a3.25 3.25 0 0 0 3.25 3.25h2a.75.75 0 0 0 0-1.5h-2a1.75 1.75 0 0 1-1.75-1.75v-11a1.75 1.75 0 0 1 1.75-1.75h2a.75.75 0 0 0 0-1.5h-2" fill="currentColor"/><path d="M15.323 16.53a.75.75 0 0 1 0-1.06l2.72-2.72h-9.19a.75.75 0 0 1 0-1.5h9.19l-2.72-2.72a.75.75 0 0 1 1.06-1.06l3.647 3.646a1.25 1.25 0 0 1 0 1.768l-3.646 3.646a.75.75 0 0 1-1.06 0" fill="currentColor"/></g><defs><clipPath id="icon-log-out-clip"><path d="M0 0h24v24H0z"/></clipPath></defs>
</svg>
