<svg xmlns="http://www.w3.org/2000/svg" viewBox="0 0 24 24">
  <g clip-path="url(#icon-reassurance-calendar14days-clip)"><path d="M17.68 32.49v-9.88L15 24.48V22l2.76-2h2.41v12.49h-2.49" fill="currentColor"/><path fill-rule="evenodd" d="M28.89 29.9v2.59l2.43-.04v-2.59h1.53v-2h-1.53V20h-2.91l-5.69 7.81v2.09h6.17m-3.71-2.04 3.71-5.18v5.18h-3.71" clip-rule="evenodd" fill="currentColor"/><path fill-rule="evenodd" d="M32 6H16V2a2 2 0 1 0-4 0v4H5.83A5.87 5.87 0 0 0 0 11.9v30.2A5.87 5.87 0 0 0 5.83 48h36.34A5.87 5.87 0 0 0 48 42.1V11.9A5.87 5.87 0 0 0 42.17 6H36V2a2 2 0 1 0-4 0v4M5.83 10h36.34A1.87 1.87 0 0 1 44 11.9v30.2a1.87 1.87 0 0 1-1.83 1.9H5.83A1.87 1.87 0 0 1 4 42.1V11.9A1.87 1.87 0 0 1 5.83 10" clip-rule="evenodd" fill="currentColor"/></g><defs><clipPath id="icon-reassurance-calendar14days-clip"><path d="M0 0h48v48H0z"/></clipPath></defs>
</svg>
