<svg xmlns="http://www.w3.org/2000/svg" viewBox="0 0 24 24">
  <path fill-rule="evenodd" d="M8.75 7.5a3.25 3.25 0 1 1 6.5 0 3.25 3.25 0 0 1-6.5 0M12 5.75a1.75 1.75 0 1 0 0 3.5 1.75 1.75 0 0 0 0-3.5" clip-rule="evenodd" fill="currentColor"/><path d="M18 16.38c1.523-.846 2.25-1.895 2.25-2.88 0-.946-.685-1.954-2.046-2.765l.014.049a.75.75 0 0 1-1.436.432l-.5-1.657a.75.75 0 0 1 .35-.871l1.5-.842a.75.75 0 1 1 .735 1.308l-.21.118c1.801.982 3.093 2.437 3.093 4.228 0 1.777-1.288 3.228-3.022 4.191-1.76.978-4.14 1.559-6.728 1.559s-4.968-.581-6.728-1.559C3.537 16.728 2.25 15.277 2.25 13.5c0-1.79 1.292-3.246 3.092-4.228l-.21-.118a.75.75 0 1 1 .735-1.308l1.5.842a.75.75 0 0 1 .351.87l-.5 1.659a.75.75 0 1 1-1.436-.434l.014-.048c-1.36.81-2.046 1.819-2.046 2.765 0 .985.727 2.034 2.25 2.88 1.498.832 3.618 1.37 6 1.37s4.502-.538 6-1.37" fill="currentColor"/><path d="M10.4 11.25a3.15 3.15 0 0 0-3.15 3.15V15a.75.75 0 0 0 1.5 0v-.6a1.65 1.65 0 0 1 1.65-1.65h3.2a1.65 1.65 0 0 1 1.65 1.65V15a.75.75 0 0 0 1.5 0v-.6a3.15 3.15 0 0 0-3.15-3.15h-3.2" fill="currentColor"/>
</svg>
