<svg xmlns="http://www.w3.org/2000/svg" viewBox="0 0 24 24">
  <g clip-path="url(#icon-crosshair-clip)"><path d="M12 14a2 2 0 1 0 0-4 2 2 0 0 0 0 4" fill="currentColor"/><path fill-rule="evenodd" d="M12 2.25A.75.75 0 0 1 12.75 3v1.286a7.752 7.752 0 0 1 6.964 6.964H21a.75.75 0 0 1 0 1.5h-1.286a7.752 7.752 0 0 1-6.964 6.964V21a.75.75 0 0 1-1.5 0v-1.286a7.752 7.752 0 0 1-6.964-6.964H3a.75.75 0 0 1 0-1.5h1.286a7.752 7.752 0 0 1 6.964-6.964V3A.75.75 0 0 1 12 2.25m-6.205 10.5H7a.75.75 0 0 0 0-1.5H5.795a6.253 6.253 0 0 1 5.455-5.455V7a.75.75 0 0 0 1.5 0V5.795a6.253 6.253 0 0 1 5.456 5.455H17a.75.75 0 0 0 0 1.5h1.206a6.253 6.253 0 0 1-5.456 5.456V17a.75.75 0 0 0-1.5 0v1.206a6.253 6.253 0 0 1-5.455-5.456" clip-rule="evenodd" fill="currentColor"/></g><defs><clipPath id="icon-crosshair-clip"><path d="M0 0h24v24H0z"/></clipPath></defs>
</svg>
