<svg xmlns="http://www.w3.org/2000/svg" viewBox="0 0 24 24">
  <g clip-path="url(#icon-edit-clip)"><path fill-rule="evenodd" d="M20.27 3.73a2.871 2.871 0 0 0-4.06 0L4.724 15.214a.742.742 0 0 0-.183.278l-1.56 3.901c-.408 1.02.604 2.033 1.625 1.625l3.903-1.561a.75.75 0 0 0 .278-.184L20.27 7.79a2.871 2.871 0 0 0 0-4.06m-3 1.06a1.371 1.371 0 0 1 1.94 1.94l-.675.674-1.94-1.939.676-.675M5.519 17.09l1.391 1.392-2.32.928.928-2.32M15.53 6.53l-9.226 9.226 1.939 1.94 9.226-9.227-1.939-1.94" clip-rule="evenodd" fill="currentColor"/></g><defs><clipPath id="icon-edit-clip"><path d="M0 0h24v24H0z"/></clipPath></defs>
</svg>
