<svg xmlns="http://www.w3.org/2000/svg" viewBox="0 0 24 24">
  <path fill-rule="evenodd" d="M12.884 3.823a1.25 1.25 0 0 0-1.768 0L8.823 6.116a1.25 1.25 0 0 0 0 1.768l2.293 2.293a1.25 1.25 0 0 0 1.768 0l2.293-2.293a1.25 1.25 0 0 0 0-1.768l-2.293-2.293M10.06 7 12 5.06 13.94 7 12 8.94 10.06 7m5.117 9.116-2.293-2.293a1.25 1.25 0 0 0-1.768 0l-2.293 2.293a1.25 1.25 0 0 0 0 1.768l2.293 2.293a1.25 1.25 0 0 0 1.768 0l2.293-2.293a1.25 1.25 0 0 0 0-1.768M10.06 17 12 15.06 13.94 17 12 18.94 10.06 17M6.116 8.823a1.25 1.25 0 0 1 1.768 0l2.293 2.293a1.25 1.25 0 0 1 0 1.768l-2.293 2.293a1.25 1.25 0 0 1-1.768 0l-2.293-2.293a1.25 1.25 0 0 1 0-1.768l2.293-2.293M7 10.061 5.06 12 7 13.94 8.94 12 7 10.06m10.884-1.237a1.25 1.25 0 0 0-1.768 0l-2.293 2.293a1.25 1.25 0 0 0 0 1.768l2.293 2.293a1.25 1.25 0 0 0 1.768 0l2.293-2.293a1.25 1.25 0 0 0 0-1.768l-2.293-2.293M15.06 12 17 10.06 18.94 12 17 13.94 15.06 12" clip-rule="evenodd" fill="currentColor"/>
</svg>
