<svg xmlns="http://www.w3.org/2000/svg" viewBox="0 0 24 24">
  <g clip-path="url(#icon-arrow-down-in-circle-filled-clip)"><path d="M12 21.752c-5.385 0-9.75-4.366-9.75-9.75C2.25 6.616 6.615 2.25 12 2.25s9.75 4.366 9.75 9.75A9.75 9.75 0 0 1 12 21.75m-.884-4.816a1.25 1.25 0 0 0 1.768 0l3.232-3.232a.75.75 0 0 0-1.06-1.061l-2.306 2.305v-7.19a.75.75 0 1 0-1.5 0v7.19l-2.306-2.305a.75.75 0 0 0-1.06 1.06l3.232 3.233" fill="currentColor"/></g><defs><clipPath id="icon-arrow-down-in-circle-filled-clip"><path d="M0 0h24v24H0z"/></clipPath></defs>
</svg>
