<svg xmlns="http://www.w3.org/2000/svg" viewBox="0 0 24 24">
  <g clip-path="url(#icon-share-clip)"><path d="m12.75 4.707 1.22 1.22a.75.75 0 1 0 1.06-1.06L12.884 2.72a1.25 1.25 0 0 0-1.768 0L8.97 4.866a.75.75 0 0 0 1.06 1.06l1.22-1.219v9.69a.75.75 0 0 0 1.5 0v-9.69" fill="currentColor"/><path d="M7 9.646a.75.75 0 0 0-.75.75v9A.75.75 0 0 0 7 20.146h10a.75.75 0 0 0 .75-.75v-9A.75.75 0 0 0 17 9.646h-2a.75.75 0 0 1 0-1.5h2a2.25 2.25 0 0 1 2.25 2.25v9a2.25 2.25 0 0 1-2.25 2.25H7a2.25 2.25 0 0 1-2.25-2.25v-9A2.25 2.25 0 0 1 7 8.146h2a.75.75 0 0 1 0 1.5H7" fill="currentColor"/></g><defs><clipPath id="icon-share-clip"><path d="M0 0h24v24H0z"/></clipPath></defs>
</svg>
