<svg xmlns="http://www.w3.org/2000/svg" viewBox="0 0 24 24">
  <g clip-path="url(#icon-info-filled-clip)"><path fill-rule="evenodd" d="M2.25 12c0-5.385 4.365-9.75 9.75-9.75s9.75 4.365 9.75 9.75-4.365 9.75-9.75 9.75S2.25 17.385 2.25 12m10.5-4.5a1 1 0 1 1-2 0 1 1 0 0 1 2 0m-3 3a.75.75 0 0 1 .75-.75h1A1.25 1.25 0 0 1 12.75 11v4.75h.75a.75.75 0 0 1 0 1.5h-3a.75.75 0 0 1 0-1.5h.75v-4.5H10.5a.75.75 0 0 1-.75-.75" clip-rule="evenodd" fill="currentColor"/></g><defs><clipPath id="icon-info-filled-clip"><path d="M0 0h24v24H0z"/></clipPath></defs>
</svg>
