<svg xmlns="http://www.w3.org/2000/svg" viewBox="0 0 24 24">
  <g clip-path="url(#icon-expand-clip)"><path d="M4 7.75A.75.75 0 0 1 3.25 7V4.5A1.25 1.25 0 0 1 4.5 3.25H7a.75.75 0 1 1 0 1.5H5.81l3.72 3.72a.75.75 0 1 1-1.06 1.06L4.75 5.81V7A.75.75 0 0 1 4 7.75m11.53 6.72a.75.75 0 1 0-1.06 1.06l3.72 3.72H17a.75.75 0 0 0 0 1.5h2.5a1.25 1.25 0 0 0 1.25-1.25V17a.75.75 0 0 0-1.5 0v1.19l-3.72-3.72m-1.06-4.94a.75.75 0 0 1 0-1.06l3.72-3.72H17a.75.75 0 0 1 0-1.5h2.5a1.25 1.25 0 0 1 1.25 1.25V7a.75.75 0 1 1-1.5 0V5.81l-3.72 3.72a.75.75 0 0 1-1.06 0m-4.94 6a.75.75 0 1 0-1.06-1.06l-3.72 3.72V17a.75.75 0 0 0-1.5 0v2.5a1.25 1.25 0 0 0 1.25 1.25H7a.75.75 0 0 0 0-1.5H5.81l3.72-3.72" fill="currentColor"/></g><defs><clipPath id="icon-expand-clip"><path d="M0 0h24v24H0z"/></clipPath></defs>
</svg>
