<svg xmlns="http://www.w3.org/2000/svg" viewBox="0 0 24 24">
  <g clip-path="url(#icon-double-chevron-up-clip)"><path d="M15.47 12.177 12 8.707l-3.47 3.47a.75.75 0 1 1-1.06-1.06l3.646-3.647a1.25 1.25 0 0 1 1.768 0l3.646 3.646a.75.75 0 0 1-1.06 1.06" fill="currentColor"/><path d="M15.47 16.677 12 13.207l-3.47 3.47a.75.75 0 1 1-1.06-1.06l3.646-3.647a1.25 1.25 0 0 1 1.768 0l3.646 3.646a.75.75 0 0 1-1.06 1.06" fill="currentColor"/></g><defs><clipPath id="icon-double-chevron-up-clip"><path d="M0 0h24v24H0z"/></clipPath></defs>
</svg>
