<svg xmlns="http://www.w3.org/2000/svg" viewBox="0 0 24 24">
  <g clip-path="url(#icon-chart-clip)"><path d="M10.5 6.125a.5.5 0 0 1 .5-.5h2a.5.5 0 0 1 .5.5v9a.5.5 0 0 1-.5.5h-2a.5.5 0 0 1-.5-.5v-9M6 9.625a.5.5 0 0 0-.5.5v5a.5.5 0 0 0 .5.5h2a.5.5 0 0 0 .5-.5v-5a.5.5 0 0 0-.5-.5H6m-1.5 7.25a.75.75 0 0 0 0 1.5h15a.75.75 0 0 0 0-1.5h-15m11.5-5.25a.5.5 0 0 0-.5.5v3a.5.5 0 0 0 .5.5h2a.5.5 0 0 0 .5-.5v-3a.5.5 0 0 0-.5-.5h-2" fill="currentColor"/></g><defs><clipPath id="icon-chart-clip"><path d="M0 0h24v24H0z"/></clipPath></defs>
</svg>
