<svg xmlns="http://www.w3.org/2000/svg" viewBox="0 0 24 24">
  <g clip-path="url(#icon-text-in-square-filled-clip)"><path fill-rule="evenodd" d="M18 3.25A2.75 2.75 0 0 1 20.75 6v12A2.75 2.75 0 0 1 18 20.75H6A2.75 2.75 0 0 1 3.25 18V6A2.75 2.75 0 0 1 6 3.25h12M8 14.75a.75.75 0 0 0 0 1.5h3a.75.75 0 0 0 0-1.5H8m0-3.5a.75.75 0 0 0 0 1.5h8a.75.75 0 0 0 0-1.5H8m0-3.5a.75.75 0 0 0 0 1.5h8a.75.75 0 0 0 0-1.5H8" clip-rule="evenodd" fill="currentColor"/></g><defs><clipPath id="icon-text-in-square-filled-clip"><path d="M0 0h24v24H0z"/></clipPath></defs>
</svg>
