<svg xmlns="http://www.w3.org/2000/svg" viewBox="0 0 24 24">
  <g clip-path="url(#icon-cross-in-circle-filled-small-clip)"><path fill-rule="evenodd" d="M12 4a8 8 0 1 1 0 16 8 8 0 0 1 0-16m3.53 4.47a.75.75 0 0 0-1.06 0L12 10.94 9.53 8.47a.75.75 0 1 0-1.06 1.06L10.94 12l-2.47 2.47a.75.75 0 1 0 1.06 1.06L12 13.06l2.47 2.47a.75.75 0 0 0 1.06-1.06L13.06 12l2.47-2.47a.75.75 0 0 0 0-1.06" clip-rule="evenodd" fill="currentColor"/></g><defs><clipPath id="icon-cross-in-circle-filled-small-clip"><path d="M0 0h24v24H0z"/></clipPath></defs>
</svg>
