<svg xmlns="http://www.w3.org/2000/svg" viewBox="0 0 24 24">
  <path d="M17.75 19.128a1 1 0 1 0 0-2 1 1 0 0 0 0 2" fill="currentColor"/><path d="M20 13.628a.75.75 0 0 0-.75-.75h-3a.75.75 0 0 0-.75.75v6a.75.75 0 0 0 .75.75h3a.75.75 0 0 0 .75-.75v-6m1.5 6a2.25 2.25 0 0 1-2.25 2.25h-3a2.25 2.25 0 0 1-2.25-2.25v-6a2.25 2.25 0 0 1 2.25-2.25h3a2.25 2.25 0 0 1 2.25 2.25v6" fill="currentColor"/><path d="M17.75 2.8A1.25 1.25 0 0 1 19 4.05v6a.5.5 0 0 1-.5.5H18a.5.5 0 0 1-.5-.5V4.3H5.75A.75.75 0 0 0 5 5.05v10.878A2.247 2.247 0 0 1 5.75 15.8h6.975a.5.5 0 0 1 .5.5v.5a.5.5 0 0 1-.5.5H5.75a.75.75 0 0 0 0 1.5h6.977a.5.5 0 0 1 .5.498l.002.5a.5.5 0 0 1-.5.502H5.75a2.25 2.25 0 0 1-2.25-2.25v-13A2.25 2.25 0 0 1 5.75 2.8h12" fill="currentColor"/><path d="M11.584 6.268c.773-.773 1.807-.765 2.4-.678.22.033.288.29.13.447L12.821 7.33a.3.3 0 0 0-.088.212v.726a.3.3 0 0 0 .3.3h.726a.3.3 0 0 0 .212-.088l1.292-1.293c.157-.158.414-.09.447.13.087.593.095 1.627-.678 2.4-.68.68-1.839.879-2.765.467l-4.13 4.129a.812.812 0 1 1-1.149-1.149l4.13-4.13c-.413-.926-.213-2.086.466-2.765" fill="currentColor"/>
</svg>
