<svg xmlns="http://www.w3.org/2000/svg" viewBox="0 0 24 24">
  <g clip-path="url(#icon-copy-clip)"><path d="M11.5 3.25A2.25 2.25 0 0 0 9.25 5.5V6a.75.75 0 0 0 1.5 0V5.5a.75.75 0 0 1 .75-.75h6a.75.75 0 0 1 .75.75v9a.75.75 0 0 1-.75.75H16a.75.75 0 0 0 0 1.5h1.5a2.25 2.25 0 0 0 2.25-2.25v-9a2.25 2.25 0 0 0-2.25-2.25h-6" fill="currentColor"/><path fill-rule="evenodd" d="M6.5 7.25A2.25 2.25 0 0 0 4.25 9.5v9a2.25 2.25 0 0 0 2.25 2.25h6a2.25 2.25 0 0 0 2.25-2.25v-9a2.25 2.25 0 0 0-2.25-2.25h-6M5.75 9.5A.75.75 0 0 1 6.5 8.75h6a.75.75 0 0 1 .75.75v9a.75.75 0 0 1-.75.75h-6a.75.75 0 0 1-.75-.75v-9" clip-rule="evenodd" fill="currentColor"/></g><defs><clipPath id="icon-copy-clip"><path d="M0 0h24v24H0z"/></clipPath></defs>
</svg>
