<svg xmlns="http://www.w3.org/2000/svg" viewBox="0 0 24 24">
  <path d="M28.735 19.308c.67-.458.51-1.86-.36-3.133-.869-1.272-2.117-1.932-2.787-1.474-.67.457-.51 1.86.36 3.133.869 1.272 2.117 1.932 2.787 1.474m-8.181-2.043c.784 1.39.893 2.814.244 3.18-.65.367-1.812-.463-2.596-1.854-.784-1.39-.893-2.814-.243-3.18.649-.366 1.811.464 2.595 1.854" fill="currentColor"/><path fill-rule="evenodd" d="M5.54 25.4c.5 6.676 6.596 11.917 14.45 13.093a.48.48 0 0 0 .12.017 22.652 22.652 0 0 0 4.914.167.47.47 0 0 0 .056.003l.03-.01h.01a21.05 21.05 0 0 0 8.106-2.161.499.499 0 0 0 .226-.114A21.046 21.046 0 0 0 37.8 33.43a13.331 13.331 0 0 0 4.67-10.83c-.58-8.09-9.4-14.06-19.58-13.28-9.926.76-17.58 7.634-17.38 15.476a.5.5 0 0 0 .01.28A11.805 11.805 0 0 0 5.54 25.4m8.655-12.487c-4.624 2.6-7.641 6.833-7.695 11.461l6.132-.56a23.518 23.518 0 0 1-.072-3.374.49.49 0 0 1 .072-.211 30.926 30.926 0 0 1 1.563-7.316M12.75 24.8l-6.217.566c.463 5.805 5.517 10.423 12.202 11.89A25.54 25.54 0 0 1 12.77 24.95l-.018-.15m1.029.03-.016-.122 9.725-.884.281 3.712a17.243 17.243 0 0 1-1.99.724A19.492 19.492 0 0 1 17.41 29l-.04.02a.18.18 0 0 0-.18.16.2.2 0 0 0 .16.23A13.459 13.459 0 0 0 22 29.25a13.671 13.671 0 0 0 1.862-.507l.68 8.967a21.804 21.804 0 0 1-4.186-.167A24.54 24.54 0 0 1 13.78 24.83m11.048 3.533.704 9.278a20.1 20.1 0 0 0 7.22-2.037c1.526-3.316 1.973-7.898 1.238-12.644l-.017-.09-2.966.27A12.726 12.726 0 0 1 30 24.55a13.001 13.001 0 0 1-3.6 3 13.67 13.67 0 0 1-1.572.813m6.767-6.28a19.146 19.146 0 0 0 .715-1.573.25.25 0 0 0-.29-.36.251.251 0 0 0-.15.12 25.542 25.542 0 0 1-1.364 1.912l-6.104.557-.945-12.457c.407-.022.807-.022 1.213-.022a21.25 21.25 0 0 1 5.687.763 58.284 58.284 0 0 1 3.088 9.096H33.44l.341 1.763-2.186.2m-1.991 1.185a25.064 25.064 0 0 1-.454.502 15.52 15.52 0 0 1-3.37 2.73 17.271 17.271 0 0 1-1.049.582l-.254-3.348 5.127-.467m5.386-.478-.002-.012 6.397-.582a10.876 10.876 0 0 1 .045.484 12.35 12.35 0 0 1-4.34 10 20.094 20.094 0 0 1-2.928 2.15c1.224-3.365 1.518-7.57.828-12.04m-.167-1.003 6.4-.584c-.942-4.45-4.64-8.037-9.61-9.786a60.932 60.932 0 0 1 2.807 8.493v.004l.02-.004c.15.62.27 1.24.38 1.84a.774.774 0 0 1 .003.037M13.64 23.722l9.774-.893-.946-12.466a21.41 21.41 0 0 0-6.967 1.88 30.098 30.098 0 0 0-1.871 8.287.5.5 0 0 1-.06.211 22.71 22.71 0 0 0 .07 2.981" clip-rule="evenodd" fill="currentColor"/>
</svg>
