<svg xmlns="http://www.w3.org/2000/svg" viewBox="0 0 24 24">
  <g clip-path="url(#icon-calendar-clip)"><path fill-rule="evenodd" d="M8.25 4a.75.75 0 0 0-1.5 0v1.25H4.5A2.25 2.25 0 0 0 2.25 7.5v11a2.25 2.25 0 0 0 2.25 2.25h15a2.25 2.25 0 0 0 2.25-2.25v-11a2.25 2.25 0 0 0-2.25-2.25h-2.25V4a.75.75 0 0 0-1.5 0v1.25h-7.5V4m12 5.75V7.5a.75.75 0 0 0-.75-.75h-2.25V8a.75.75 0 0 1-1.5 0V6.75h-7.5V8a.75.75 0 0 1-1.5 0V6.75H4.5A.75.75 0 0 0 3.75 7.5v2.25h16.5m-16.5 1.5h16.5v7.25a.75.75 0 0 1-.75.75h-15a.75.75 0 0 1-.75-.75v-7.25" clip-rule="evenodd" fill="currentColor"/></g><defs><clipPath id="icon-calendar-clip"><path d="M0 0h24v24H0z"/></clipPath></defs>
</svg>
