<svg xmlns="http://www.w3.org/2000/svg" viewBox="0 0 24 24">
  <path fill-rule="evenodd" d="M4.985 4.5h13.85a1.316 1.316 0 0 1 1.317 1.314v12.372a1.317 1.317 0 0 1-1.318 1.314H4.984a1.316 1.316 0 0 1-1.317-1.314V5.814A1.316 1.316 0 0 1 4.985 4.5m4.943 12.044h2.719a.083.083 0 0 0 .059-.14l-4.307-4.307a.138.138 0 0 1 0-.195l4.307-4.306a.083.083 0 0 0-.06-.141H9.929a.326.326 0 0 0-.23.096l-4.352 4.351a.138.138 0 0 0 0 .195l4.351 4.351a.326.326 0 0 0 .231.096m8.478-.14L14.1 12.096v-.001a.138.138 0 0 1 0-.195l4.306-4.306a.083.083 0 0 0-.06-.141H15.63a.326.326 0 0 0-.231.096L11.046 11.9a.138.138 0 0 0 0 .195l4.352 4.352a.326.326 0 0 0 .23.096h2.719a.083.083 0 0 0 .059-.14" clip-rule="evenodd" fill="currentColor"/>
</svg>
