<svg xmlns="http://www.w3.org/2000/svg" viewBox="0 0 24 24">
  <path d="M29.403 28.079c.342.063.726-.459.856-1.161.13-.703-.04-1.327-.383-1.39-.342-.064-.725.458-.856 1.16-.13.703.041 1.328.383 1.39m2.993-2.628c-.027.711.227 1.303.578 1.32.387.025.658-.556.684-1.269.027-.712-.227-1.304-.577-1.321-.35-.017-.658.557-.685 1.27m-6.55 2.312a.254.254 0 0 0-.093.042l.037.007a.263.263 0 0 0-.181.31 5.642 5.642 0 0 0 1.889 2.655 7.966 7.966 0 0 0 .908.618 6.76 6.76 0 0 0 2.063.736 6.524 6.524 0 0 0 2.158.018.264.264 0 0 0-.038-.514 7.617 7.617 0 0 1-3.734-1.008 7.203 7.203 0 0 1-1.502-1.235 10.578 10.578 0 0 1-1.239-1.52.254.254 0 0 0-.268-.109" fill="currentColor"/><path fill-rule="evenodd" d="M9.836 10.954A2.5 2.5 0 0 1 12.75 8.95l26.075 4.833a2.5 2.5 0 0 1 2.003 2.914l-3.662 19.758a2.5 2.5 0 0 1-2.914 2.002l-26.075-4.83a2.5 2.5 0 0 1-2.003-2.914l3.662-19.758m2.731-1.02 8.598 1.594-1.665 8.985a.5.5 0 0 0 .81.476l4.366-3.623 2.777 4.946a.5.5 0 0 0 .927-.153l1.665-8.985 8.598 1.593a1.5 1.5 0 0 1 1.202 1.749l-3.662 19.758a1.5 1.5 0 0 1-1.749 1.201L8.36 32.642a1.5 1.5 0 0 1-1.202-1.748l3.662-19.758a1.5 1.5 0 0 1 1.748-1.201m9.581 1.776 6.914 1.282-1.414 7.627-2.687-4.79-4.226 3.508 1.413-7.627" clip-rule="evenodd" fill="currentColor"/>
</svg>
