<svg xmlns="http://www.w3.org/2000/svg" viewBox="0 0 24 24">
  <path fill-rule="evenodd" d="M16.97 3.97a2.164 2.164 0 1 1 3.06 3.06l-.472.473a2.25 2.25 0 0 1-.088 3.088l-3.94 3.94a.75.75 0 0 1-1.06-1.061l3.939-3.94a.75.75 0 0 0 .083-.962L7.614 19.447a1.25 1.25 0 0 1-.489.302l-2.888.963a.75.75 0 0 1-.948-.95l.962-2.887a1.25 1.25 0 0 1 .302-.489L16.97 3.97m1.53 2.47.47-.47a.664.664 0 1 0-.94-.94L17.56 5.5l.94.94m-2 .12.94.94L6.594 18.345l-1.41.47.47-1.41L16.5 6.561" clip-rule="evenodd" fill="currentColor"/>
</svg>
