<svg xmlns="http://www.w3.org/2000/svg" viewBox="0 0 24 24">
  <g clip-path="url(#icon-bolt-disabled-clip)"><path d="M2.47 2.47a.75.75 0 0 1 1.06 0l18 18a.75.75 0 1 1-1.06 1.06l-18-18a.75.75 0 0 1 0-1.06m5.301 8.462L6.464 12.75H9.59l2.754 2.754-.88 4.176 2.117-2.939 1.075 1.075-2.665 3.702c-.79 1.097-2.516.334-2.237-.988l1.321-6.28H5.976a1.25 1.25 0 0 1-1.014-1.98l1.735-2.413 1.074 1.075" fill="currentColor"/><path d="M12.009 2.481c.79-1.096 2.515-.334 2.237.989l-1.321 6.28h5.098a1.25 1.25 0 0 1 1.015 1.98l-3.494 4.853-1.075-1.075 3.067-4.258H12a.75.75 0 0 1-.735-.905l1.269-6.026L8.66 9.7 7.585 8.624l4.424-6.143" fill="currentColor"/><path d="M12 12.75a.75.75 0 0 1 .734.904l-.021.098-1.002-1.002H12" fill="currentColor"/></g><defs><clipPath id="icon-bolt-disabled-clip"><path d="M0 0h24v24H0z"/></clipPath></defs>
</svg>
