<svg xmlns="http://www.w3.org/2000/svg" viewBox="0 0 24 24">
  <g clip-path="url(#icon-emoji-unhappy-clip)"><path d="M9.5 10a1 1 0 1 1-2 0 1 1 0 0 1 2 0" fill="currentColor"/><path fill-rule="evenodd" d="M12 2.25c-5.385 0-9.75 4.365-9.75 9.75s4.365 9.75 9.75 9.75 9.75-4.365 9.75-9.75S17.385 2.25 12 2.25M3.75 12a8.25 8.25 0 1 1 16.5 0 8.25 8.25 0 0 1-16.5 0" clip-rule="evenodd" fill="currentColor"/><path d="M16.509 10a1 1 0 1 1-2 0 1 1 0 0 1 2 0m-7.868 4.516a.75.75 0 0 0 1.06 1.061 3.25 3.25 0 0 1 4.597 0 .75.75 0 0 0 1.06-1.06 4.75 4.75 0 0 0-6.717 0" fill="currentColor"/></g><defs><clipPath id="icon-emoji-unhappy-clip"><path d="M0 0h24v24H0z"/></clipPath></defs>
</svg>
