<svg xmlns="http://www.w3.org/2000/svg" viewBox="0 0 24 24">
  <g clip-path="url(#icon-question-mark-in-circle-clip)"><path d="M20.25 12a8.25 8.25 0 1 0-16.5 0 8.25 8.25 0 0 0 16.5 0m1.5 0c0 5.385-4.365 9.75-9.75 9.75S2.25 17.385 2.25 12 6.615 2.25 12 2.25s9.75 4.365 9.75 9.75" fill="currentColor"/><path d="M12 18a1 1 0 1 0 0-2 1 1 0 0 0 0 2m-.75-4c0-1.46 1.152-2.17 1.834-2.624.818-.545 1.166-.836 1.166-1.376 0-.853-.825-1.75-2.25-1.75S9.75 9.147 9.75 10a.75.75 0 0 1-1.5 0c0-1.908 1.743-3.25 3.75-3.25 2.007 0 3.75 1.342 3.75 3.25 0 1.46-1.152 2.17-1.834 2.624C13.098 13.169 12.75 13.46 12.75 14a.75.75 0 0 1-1.5 0" fill="currentColor"/></g><defs><clipPath id="icon-question-mark-in-circle-clip"><path d="M0 0h24v24H0z"/></clipPath></defs>
</svg>
