<svg xmlns="http://www.w3.org/2000/svg" viewBox="0 0 24 24">
  <g clip-path="url(#icon-tab-bar-avatar-clip)"><path fill-rule="evenodd" d="M16.5 24.725A13.5 13.5 0 0 0 24 27a13.51 13.51 0 0 0 13.5-13.5 13.5 13.5 0 1 0-21 11.225m1.11-20.787A11.5 11.5 0 0 1 24 2a11.51 11.51 0 0 1 11.5 11.5 11.5 11.5 0 1 1-17.89-9.562" clip-rule="evenodd" fill="currentColor"/><path d="M43.293 47.707A1 1 0 0 0 45 47v-7.45c0-2.77-2-5.2-5.2-6.21A53.998 53.998 0 0 0 24.04 31h-.12a53.378 53.378 0 0 0-16 2.43C4.93 34.4 3 36.79 3 39.51V47a1 1 0 0 0 2 0v-7.49a4.64 4.64 0 0 1 3.54-4.18A52.287 52.287 0 0 1 23.94 33h.12a51.839 51.839 0 0 1 15.15 2.25c2.3.73 3.79 2.42 3.79 4.3V47a1 1 0 0 0 .293.707" fill="currentColor"/></g><defs><clipPath id="icon-tab-bar-avatar-clip"><path d="M0 0h48v48H0z"/></clipPath></defs>
</svg>
