<svg xmlns="http://www.w3.org/2000/svg" viewBox="0 0 24 24">
  <g clip-path="url(#icon-sort-clip)"><path d="M15.116 3.823 12.47 6.47a.75.75 0 0 0 1.06 1.06l1.72-1.72V17a.75.75 0 0 0 1.5 0V5.81l1.72 1.72a.75.75 0 1 0 1.06-1.06l-2.646-2.647a1.25 1.25 0 0 0-1.768 0M8.75 7a.75.75 0 0 0-1.5 0v11.19l-1.72-1.72a.75.75 0 1 0-1.06 1.06l2.646 2.647a1.25 1.25 0 0 0 1.768 0l2.646-2.647a.75.75 0 0 0-1.06-1.06l-1.72 1.72V7" fill="currentColor"/></g><defs><clipPath id="icon-sort-clip"><path d="M0 0h24v24H0z"/></clipPath></defs>
</svg>
