<svg xmlns="http://www.w3.org/2000/svg" viewBox="0 0 24 24">
  <g clip-path="url(#icon-text-and-image-in-square-filled-clip)"><path fill-rule="evenodd" d="M18 3.25A2.75 2.75 0 0 1 20.75 6v12A2.75 2.75 0 0 1 18 20.75H6A2.75 2.75 0 0 1 3.25 18V6A2.75 2.75 0 0 1 6 3.25h12M8 15.501a.75.75 0 0 0 0 1.5h8a.75.75 0 0 0 0-1.5H8m0-3.5a.75.75 0 0 0 0 1.5h8a.75.75 0 0 0 0-1.5H8M7.75 7a.5.5 0 0 0-.5.5v2.001a.5.5 0 0 0 .5.5h2a.5.5 0 0 0 .5-.5V7.5A.5.5 0 0 0 9.75 7h-2" clip-rule="evenodd" fill="currentColor"/></g><defs><clipPath id="icon-text-and-image-in-square-filled-clip"><path d="M0 0h24v24H0z"/></clipPath></defs>
</svg>
