<svg xmlns="http://www.w3.org/2000/svg" viewBox="0 0 24 24">
  <path d="M9.2 2.643a.75.75 0 0 1 0 1.06A3.237 3.237 0 0 0 8.25 6 3.237 3.237 0 0 0 9.2 8.296a.75.75 0 1 1-1.061 1.06A4.737 4.737 0 0 1 6.75 6a4.737 4.737 0 0 1 1.389-3.357.75.75 0 0 1 1.06 0m5.601 0a.75.75 0 0 1 1.061 0A4.738 4.738 0 0 1 17.25 6a4.738 4.738 0 0 1-1.389 3.357.75.75 0 0 1-1.061-1.06A3.237 3.237 0 0 0 15.75 6a3.237 3.237 0 0 0-.95-2.297.75.75 0 0 1 0-1.06" fill="currentColor"/><path fill-rule="evenodd" d="M12.848 7.238a1.5 1.5 0 1 0-1.696 0L7.28 20.794a.75.75 0 1 0 1.442.412L9.28 19.25h5.44l.559 1.956a.75.75 0 1 0 1.442-.412L12.848 7.238M14.29 17.75l-.714-2.5h-3.154l-.714 2.5h4.582m-3.44-4h2.298L12 9.73l-1.149 4.02" clip-rule="evenodd" fill="currentColor"/>
</svg>
