<svg xmlns="http://www.w3.org/2000/svg" viewBox="0 0 24 24">
  <g clip-path="url(#icon-arrow-left-in-circle-clip)"><path d="M17.834 6.166A8.25 8.25 0 1 0 6.166 17.834 8.25 8.25 0 0 0 17.834 6.166m1.06-1.06c3.808 3.807 3.808 9.98 0 13.788-3.807 3.808-9.98 3.808-13.788 0-3.808-3.807-3.808-9.98 0-13.788 3.807-3.808 9.98-3.808 13.788 0" fill="currentColor"/><path d="M7.757 11.25a.75.75 0 0 0 0 1.5h8.486a.75.75 0 0 0 0-1.5H7.757" fill="currentColor"/><path d="M11.359 8.944a.75.75 0 0 0-1.06-1.06l-3.233 3.232a1.25 1.25 0 0 0 0 1.768l3.232 3.232a.75.75 0 1 0 1.06-1.06L8.304 12l3.056-3.056" fill="currentColor"/><path d="M10.298 7.884a.75.75 0 0 1 1.06 1.06L9.054 11.25h7.19a.75.75 0 1 1 0 1.5h-7.19l2.306 2.306a.75.75 0 0 1-1.06 1.06l-3.233-3.232a1.25 1.25 0 0 1 0-1.768l3.232-3.232" fill="currentColor"/></g><defs><clipPath id="icon-arrow-left-in-circle-clip"><path d="M0 0h24v24H0z"/></clipPath></defs>
</svg>
