<svg xmlns="http://www.w3.org/2000/svg" viewBox="0 0 24 24">
  <path fill-rule="evenodd" d="M11.25 3A.75.75 0 0 1 12 2.25 9.75 9.75 0 0 1 21.75 12a9.718 9.718 0 0 1-2.7 6.735H21a.75.75 0 1 1 0 1.5h-4a.75.75 0 0 1-.75-.75V15.5a.75.75 0 0 1 1.5 0v2.416A8.25 8.25 0 0 0 12 3.75.75.75 0 0 1 11.25 3m-9 1.5A.75.75 0 0 1 3 3.75h4.023a.75.75 0 0 1 .75.75v4a.75.75 0 0 1-1.5 0V6.061A8.25 8.25 0 0 0 12 20.25a.75.75 0 0 1 0 1.5A9.75 9.75 0 0 1 2.25 12a9.718 9.718 0 0 1 2.714-6.75H3A.75.75 0 0 1 2.25 4.5" clip-rule="evenodd" fill="currentColor"/>
</svg>
