<svg xmlns="http://www.w3.org/2000/svg" viewBox="0 0 24 24">
  <g clip-path="url(#icon-pie-chart-in-square-filled-clip)"><path fill-rule="evenodd" d="M18 3.25A2.75 2.75 0 0 1 20.75 6v12A2.75 2.75 0 0 1 18 20.75H6A2.75 2.75 0 0 1 3.25 18V6A2.75 2.75 0 0 1 6 3.25h12m-6.5 5.944c0-.521-.428-.954-.937-.84a4.255 4.255 0 0 0-2.99 2.52 4.251 4.251 0 0 0 5.553 5.553 4.252 4.252 0 0 0 2.52-2.99c.114-.509-.319-.937-.84-.937h-2.362a.945.945 0 0 1-.944-.944V9.194m2.437-2.34C13.428 6.74 13 7.173 13 7.694v2.362A.945.945 0 0 0 13.944 11h2.362c.521 0 .954-.428.84-.937a4.256 4.256 0 0 0-3.21-3.209" clip-rule="evenodd" fill="currentColor"/></g><defs><clipPath id="icon-pie-chart-in-square-filled-clip"><path d="M0 0h24v24H0z"/></clipPath></defs>
</svg>
