<svg xmlns="http://www.w3.org/2000/svg" viewBox="0 0 24 24">
  <path fill-rule="evenodd" d="M20.219 3.006c0-.021 0-.042-.002-.063a1.012 1.012 0 0 0-1.077-.941l-1.118.069.084 2.308a.15.15 0 0 1-.147.155.153.153 0 0 1-.099-.032l-.75-.586-.89.668a.153.153 0 0 1-.213-.029l-.014-.022a.15.15 0 0 1-.017-.075l.097-2.266L4.953 2.88A1.01 1.01 0 0 0 4 3.92l.626 16.51a1.01 1.01 0 0 0 .97.966L19.156 22h.022a1.01 1.01 0 0 0 1.04-1.005V3.006m-3.714 6.461c-.358.275-3.02.462-3.02.071.056-1.493-.62-1.558-.994-1.558-.357 0-.957.107-.957.906 0 .815.877 1.275 1.907 1.815 1.462.768 3.233 1.696 3.233 4.032 0 2.24-1.839 3.476-4.183 3.476-2.42 0-4.535-.969-4.296-4.328.094-.394 3.17-.3 3.17 0-.037 1.386.282 1.794 1.088 1.794.62 0 .9-.338.9-.906 0-.86-.913-1.369-1.965-1.953-1.423-.791-3.099-1.722-3.099-3.859 0-2.132 1.482-3.554 4.127-3.554 2.644 0 4.089 1.4 4.089 4.064" clip-rule="evenodd" fill="currentColor"/>
</svg>
