<svg xmlns="http://www.w3.org/2000/svg" viewBox="0 0 24 24">
  <g clip-path="url(#icon-repair-mail-in-clip)"><path d="M5.5 6.5V16h4.75a.75.75 0 0 1 0 1.5h-5A1.25 1.25 0 0 1 4 16.25v-10A1.25 1.25 0 0 1 5.25 5h13.5A1.25 1.25 0 0 1 20 6.25V8a.75.75 0 0 1-1.5 0V6.5H14v3.8a.3.3 0 0 1-.415.277l-1.47-.612a.3.3 0 0 0-.23 0l-1.47.612A.3.3 0 0 1 10 10.3V6.5H5.5" fill="currentColor"/><path d="M20.683 14.81c-.837.836-2.263 1.082-3.404.575l-5.082 5.082a1 1 0 1 1-1.414-1.414l5.082-5.083c-.507-1.14-.261-2.566.575-3.403 1.002-1.001 2.358-.939 3.064-.817.22.038.286.296.128.454l-1.69 1.69a.3.3 0 0 0-.088.212v.99a.3.3 0 0 0 .3.3h.99a.3.3 0 0 0 .212-.088l1.69-1.69c.158-.158.416-.092.454.128.122.706.184 2.063-.817 3.064" fill="currentColor"/></g><defs><clipPath id="icon-repair-mail-in-clip"><path d="M0 0h24v24H0z"/></clipPath></defs>
</svg>
