<svg xmlns="http://www.w3.org/2000/svg" viewBox="0 0 24 24">
  <path d="M11.53 5.47a.75.75 0 0 1 0 1.06l-2 2a.75.75 0 0 1-1.06 0l-1-1a.75.75 0 0 1 1.06-1.06L9 6.94l1.47-1.47a.75.75 0 0 1 1.06 0m0 6.06a.75.75 0 1 0-1.06-1.06L9 11.94l-.47-.47a.75.75 0 0 0-1.06 1.06l1 1a.75.75 0 0 0 1.06 0l2-2m0 5a.75.75 0 1 0-1.06-1.06L9 16.94l-.47-.47a.75.75 0 0 0-1.06 1.06l1 1a.75.75 0 0 0 1.06 0l2-2M13.5 6.25a.75.75 0 0 0 0 1.5H16a.75.75 0 0 0 0-1.5h-2.5m0 5a.75.75 0 0 0 0 1.5H16a.75.75 0 0 0 0-1.5h-2.5m0 5a.75.75 0 0 0 0 1.5H16a.75.75 0 0 0 0-1.5h-2.5" fill="currentColor"/><path fill-rule="evenodd" d="M4.25 4.5A2.25 2.25 0 0 1 6.5 2.25h11a2.25 2.25 0 0 1 2.25 2.25v15a2.25 2.25 0 0 1-2.25 2.25h-11a2.25 2.25 0 0 1-2.25-2.25v-15M6.5 3.75A.75.75 0 0 0 5.75 4.5v15a.75.75 0 0 0 .75.75h11a.75.75 0 0 0 .75-.75v-15a.75.75 0 0 0-.75-.75h-11" clip-rule="evenodd" fill="currentColor"/>
</svg>
