<svg xmlns="http://www.w3.org/2000/svg" viewBox="0 0 24 24">
  <g clip-path="url(#icon-money-clip)"><path fill-rule="evenodd" d="M8.75 10.5a3.25 3.25 0 1 1 6.5 0 3.25 3.25 0 0 1-6.5 0M12 8.75a1.75 1.75 0 1 0 0 3.5 1.75 1.75 0 0 0 0-3.5" clip-rule="evenodd" fill="currentColor"/><path fill-rule="evenodd" d="M21.75 5.5a1.25 1.25 0 0 0-1.25-1.25h-17A1.25 1.25 0 0 0 2.25 5.5v10a1.25 1.25 0 0 0 1.25 1.25h17a1.25 1.25 0 0 0 1.25-1.25v-10m-4.17.25H6.42a3.505 3.505 0 0 1-2.67 2.67v4.16a3.505 3.505 0 0 1 2.67 2.67h11.16a3.505 3.505 0 0 1 2.67-2.67V8.42a3.505 3.505 0 0 1-2.67-2.67" clip-rule="evenodd" fill="currentColor"/><path d="M5 18.25a.75.75 0 0 0 0 1.5h14a.75.75 0 0 0 0-1.5H5" fill="currentColor"/></g><defs><clipPath id="icon-money-clip"><path d="M0 0h24v24H0z"/></clipPath></defs>
</svg>
