<svg xmlns="http://www.w3.org/2000/svg" viewBox="0 0 24 24">
  <g clip-path="url(#icon-smartphone-clip)"><path d="M12 19a1 1 0 1 0 0-2 1 1 0 0 0 0 2M10.5 4.75a.75.75 0 0 0 0 1.5h3a.75.75 0 0 0 0-1.5h-3" fill="currentColor"/><path fill-rule="evenodd" d="M5.25 5.5A3.25 3.25 0 0 1 8.5 2.25h7a3.25 3.25 0 0 1 3.25 3.25v13a3.25 3.25 0 0 1-3.25 3.25h-7a3.25 3.25 0 0 1-3.25-3.25v-13M8.5 3.75A1.75 1.75 0 0 0 6.75 5.5v13a1.75 1.75 0 0 0 1.75 1.75h7a1.75 1.75 0 0 0 1.75-1.75v-13a1.75 1.75 0 0 0-1.75-1.75h-7" clip-rule="evenodd" fill="currentColor"/></g><defs><clipPath id="icon-smartphone-clip"><path d="M0 0h24v24H0z"/></clipPath></defs>
</svg>
