<svg xmlns="http://www.w3.org/2000/svg" viewBox="0 0 24 24">
  <g clip-path="url(#icon-arrow-up-right-in-circle-filled-clip)"><path d="M21.75 12c0 5.385-4.365 9.75-9.75 9.75S2.25 17.385 2.25 12 6.615 2.25 12 2.25s9.75 4.365 9.75 9.75m-5.636-2.864a1.25 1.25 0 0 0-1.25-1.25h-4.571a.75.75 0 0 0 0 1.5h3.26L8.47 14.47a.75.75 0 0 0 1.06 1.06l5.084-5.084v3.261a.75.75 0 0 0 1.5 0V9.136" fill="currentColor"/></g><defs><clipPath id="icon-arrow-up-right-in-circle-filled-clip"><path d="M0 0h24v24H0z"/></clipPath></defs>
</svg>
