<svg xmlns="http://www.w3.org/2000/svg" viewBox="0 0 24 24">
  <path d="M9 11a2 2 0 1 0 0-4 2 2 0 0 0 0 4" fill="currentColor"/><path fill-rule="evenodd" d="M4.5 4.25A2.25 2.25 0 0 0 2.25 6.5v11a2.25 2.25 0 0 0 2.25 2.25h15a2.25 2.25 0 0 0 2.25-2.25v-11a2.25 2.25 0 0 0-2.25-2.25h-15M3.75 16.892V17.5a.75.75 0 0 0 .75.75h1.215l3.1-2.755-1.8-1.505-3.265 2.902m6.198-2.405 4.232-3.762a1.25 1.25 0 0 1 1.63-.026l4.44 3.7V6.5a.75.75 0 0 0-.75-.75h-15A.75.75 0 0 0 3.75 6.5v8.385l2.43-2.16a1.25 1.25 0 0 1 1.632-.024l2.136 1.786M19.5 18.25H7.973l7.043-6.26 5.234 4.361V17.5a.75.75 0 0 1-.75.75" clip-rule="evenodd" fill="currentColor"/>
</svg>
