<svg xmlns="http://www.w3.org/2000/svg" viewBox="0 0 24 24">
  <path d="M12 2.25c5.385 0 9.75 4.365 9.75 9.75s-4.365 9.75-9.75 9.75S2.25 17.385 2.25 12 6.615 2.25 12 2.25m-2.49 8.355a1 1 0 0 0-1 1v7.87A8.217 8.217 0 0 0 12 20.25a8.218 8.218 0 0 0 3.51-.783v-7.862a1 1 0 0 0-1-1h-5M12 3.75a8.25 8.25 0 0 0-4.99 14.818v-6.964a2.501 2.501 0 0 1 2.244-2.487L9.51 9.104h5l.256.013a2.5 2.5 0 0 1 2.244 2.487v6.949A8.25 8.25 0 0 0 12 3.75m-1.483 8.105a.75.75 0 1 1-.001 1.5.75.75 0 0 1 0-1.5" fill="currentColor"/>
</svg>
