<svg xmlns="http://www.w3.org/2000/svg" viewBox="0 0 24 24">
  <g clip-path="url(#icon-reassurance-fevad-clip)"><path d="M9.21 7.673A3.79 3.79 0 0 1 8.22 9a3.76 3.76 0 0 1-1.56-2.83A3.76 3.76 0 0 1 8 3.23a3.76 3.76 0 0 1 1.54 2.82 3.79 3.79 0 0 1-.33 1.623m-3.1 4.777A3.78 3.78 0 0 0 6.8 9.29a3.77 3.77 0 0 0-2.1-2.44A3.81 3.81 0 0 0 4 10a3.8 3.8 0 0 0 2.11 2.45m31.376-2.438A3.06 3.06 0 0 1 36.17 9.84a3 3 0 0 1-1.73-1.92 2.9 2.9 0 0 1 4.31 1.69 3.06 3.06 0 0 1-1.264.402M13.078 9.071A3.06 3.06 0 0 1 12 9.84a3.049 3.049 0 0 1-2.56-.23 3 3 0 0 1 1.71-1.92 3 3 0 0 1 2.58.23 3.059 3.059 0 0 1-.652 1.151M8.76 10.74a3 3 0 0 0-1.55 2.07 3 3 0 0 0 2.58 0 3 3 0 0 0 1.55-2.07 3 3 0 0 0-2.58 0m.513 4.283A3.06 3.06 0 0 1 8.38 16a3 3 0 0 1-2.57.3 3 3 0 0 1 1.29-2.23 3 3 0 0 1 2.57-.31 3.06 3.06 0 0 1-.397 1.263M7.69 19.49a3 3 0 0 0 1-2.36 3 3 0 0 0-2.52.59 3 3 0 0 0-1 2.37 3 3 0 0 0 2.52-.6m.908 2.41A3 3 0 0 1 7.86 23a3.05 3.05 0 0 1-2.49.7 3.06 3.06 0 0 1 .93-2.41 3 3 0 0 1 2.49-.7 3 3 0 0 1-.192 1.31M8.54 26.2A3 3 0 0 0 9 23.65a3 3 0 0 0-2.3 1.17 3 3 0 0 0-.45 2.55 3 3 0 0 0 2.29-1.17m1.554 1.635A3 3 0 0 1 9.8 29.13a3 3 0 0 1-2.06 1.55 2.89 2.89 0 0 1 2.06-4.14 3 3 0 0 1 .294 1.295M9.35 31.08a3.08 3.08 0 0 0 .54 2.54 2.9 2.9 0 0 0 1.17-4.48 3 3 0 0 0-1.71 1.94m4.103 4.035a3 3 0 0 1-.913.965 2.9 2.9 0 0 1 .32-4.62 3.08 3.08 0 0 1 1 2.39 3 3 0 0 1-.407 1.265M15.75 38.1A3 3 0 0 0 15 33.4a3.002 3.002 0 0 0 .75 4.7m4.134-.02a2.999 2.999 0 0 1-.424 1.32 2.999 2.999 0 0 1-1.83-4.46 3 3 0 0 1 2.254 3.14m.836-2.18a3.121 3.121 0 0 0 .33 2.67 3.15 3.15 0 0 0 2.34 1.35 3.21 3.21 0 0 0-.33-2.68 3.159 3.159 0 0 0-2.34-1.34m-5.88 5.649a3.779 3.779 0 0 1 1.29-1.06 3.8 3.8 0 0 1 3.23 0 3.8 3.8 0 0 1-2 2.57 3.8 3.8 0 0 1-3.23 0 3.78 3.78 0 0 1 .71-1.51m4.437 1.511a3.81 3.81 0 0 1 1.023-1.3 3.802 3.802 0 0 1 3.17-.62 3.599 3.599 0 0 1-4.57 3.53 3.81 3.81 0 0 1 .377-1.61m5.853-5.82a3.17 3.17 0 0 0-.33 2.68 3 3 0 0 0 2.67-4 3.16 3.16 0 0 0-2.34 1.32m3.192.837a3.19 3.19 0 0 1 .198-1.367 3.211 3.211 0 0 1 1.99-1.77 3.15 3.15 0 0 1 .21 2.69 3.2 3.2 0 0 1-2 1.77 3.19 3.19 0 0 1-.398-1.323m3.318-2.517a3.14 3.14 0 0 0 .79 2.54 3 3 0 0 0 .75-4.7 3.108 3.108 0 0 0-1.54 2.16m3.676-4.096.004-.004h-.01l.006.004m0 0a3 3 0 0 0-.996 2.386 3 3 0 0 0 1.31 2.23 2.9 2.9 0 0 0-.314-4.616M38.3 33.62a2.891 2.891 0 0 0-1.18-4.48 2.9 2.9 0 0 0 1.18 4.48m1.297-6.533A3 3 0 0 1 40.45 28.1a3 3 0 0 1 0 2.58 2.879 2.879 0 0 1-2.06-4.14 3.001 3.001 0 0 1 1.207.547m1.913-2.267a3 3 0 0 0-2.31-1.17 2.902 2.902 0 0 0 2.8 3.72 3 3 0 0 0-.49-2.55m1.108-2.48a3 3 0 0 1 .192 1.31 2.89 2.89 0 0 1-3.42-3.11 3.001 3.001 0 0 1 2.49.7 3.002 3.002 0 0 1 .738 1.1M42 17.72a3 3 0 0 0-2.52-.59 2.91 2.91 0 0 0 3.56 3A3.002 3.002 0 0 0 42 17.72m-3.085-2.702a3.06 3.06 0 0 1-.394-1.258 2.88 2.88 0 0 1 3.849 2.55A2.999 2.999 0 0 1 39.81 16a3.06 3.06 0 0 1-.895-.982m.515-4.278a3.001 3.001 0 0 0-2.59 0A2.89 2.89 0 0 0 41 12.81a3 3 0 0 0-1.57-2.07M15.5 39.19a3.79 3.79 0 0 0-3.16-.67 3.8 3.8 0 0 0-2.43 2.13 3.78 3.78 0 0 0 3.16.66 3.78 3.78 0 0 0 2.43-2.12m-4.86-3.152A3.798 3.798 0 0 1 12 37a3.78 3.78 0 0 1-2.79 1.63 3.771 3.771 0 0 1-3-1.25A3.78 3.78 0 0 1 9 35.75a3.799 3.799 0 0 1 1.64.288M9.08 34.31a3.78 3.78 0 0 0-2.64-1.86 3.78 3.78 0 0 0-3.07 1A3.83 3.83 0 0 0 6 35.31a3.802 3.802 0 0 0 3.08-1m-4.52-5.483c1.5.548 2.494 1.597 2.222 2.344-.273.747-1.71.909-3.209.362-1.5-.547-2.494-1.597-2.221-2.344.273-.747 1.71-.909 3.209-.362M5.18 27.64a3.83 3.83 0 0 0-1.73-2.73 3.77 3.77 0 0 0-3.22-.25A3.79 3.79 0 0 0 2 27.39a3.841 3.841 0 0 0 3.18.25M4.03 22.3a3.79 3.79 0 0 1 .25 1.63 3.828 3.828 0 0 1-3.11-.88 3.79 3.79 0 0 1-1.17-3 3.78 3.78 0 0 1 3.11.88 3.79 3.79 0 0 1 .92 1.37M4.12 20a3.85 3.85 0 0 0-.59-3.18 3.8 3.8 0 0 0-2.89-1.39 3.79 3.79 0 0 0 .58 3.17 3.81 3.81 0 0 0 2.9 1.4m.983-5.42a3.75 3.75 0 0 1-.363 1.61 3.761 3.761 0 0 1-2.57-1.99 3.8 3.8 0 0 1 0-3.23 3.8 3.8 0 0 1 2.57 2 3.75 3.75 0 0 1 .363 1.61M31.87 40.49a3.8 3.8 0 0 0-3.23 0 3.62 3.62 0 0 0 5.19 2.55 3.78 3.78 0 0 0-1.96-2.55m-5.686.607A3.802 3.802 0 0 1 27.7 41.76a3.81 3.81 0 0 1 1.4 2.91 3.6 3.6 0 0 1-4.57-3.53 3.802 3.802 0 0 1 1.654-.044m9.476-2.576a3.79 3.79 0 0 0-3.16.67 3.62 3.62 0 0 0 5.59 1.46 3.8 3.8 0 0 0-2.43-2.13m1.673-2.445a3.801 3.801 0 0 1 1.597-.285 3.781 3.781 0 0 1 2.83 1.59A3.609 3.609 0 0 1 36 37a3.801 3.801 0 0 1 1.333-.925m4.227-3.625a3.78 3.78 0 0 0-2.64 1.86 3.61 3.61 0 0 0 5.71-.86 3.78 3.78 0 0 0-3.07-1m.499-2.708a3.79 3.79 0 0 1 1.371-.922 3.78 3.78 0 0 1 3.21.34 3.61 3.61 0 0 1-5.43 2 3.79 3.79 0 0 1 .849-1.418m2.491-4.832a3.831 3.831 0 0 0-1.73 2.73A3.84 3.84 0 0 0 46 27.39a3.79 3.79 0 0 0 1.73-2.73 3.77 3.77 0 0 0-3.18.25m-.58-2.62a3.79 3.79 0 0 1 .92-1.37A3.78 3.78 0 0 1 48 20.05a3.609 3.609 0 0 1-4.28 3.87 3.79 3.79 0 0 1 .25-1.63m.5-5.43A3.85 3.85 0 0 0 43.88 20a3.81 3.81 0 0 0 2.9-1.44 3.79 3.79 0 0 0 .58-3.17 3.799 3.799 0 0 0-2.89 1.47m-1.61-2.25A3.78 3.78 0 0 1 43.22 13a3.8 3.8 0 0 1 2.57-2.01 3.8 3.8 0 0 1 0 3.23 3.75 3.75 0 0 1-2.57 2 3.78 3.78 0 0 1-.36-1.61m-.97-2.16A3.801 3.801 0 0 0 44 10a3.81 3.81 0 0 0-.7-3.15 3.77 3.77 0 0 0-2.1 2.44 3.78 3.78 0 0 0 .69 3.16m-.888-7.901A3.76 3.76 0 0 1 41.34 6.17a3.76 3.76 0 0 1-1.57 2.88 3.79 3.79 0 0 1-1.32-3A3.76 3.76 0 0 1 40 3.23a3.76 3.76 0 0 1 1.002 1.319M19.64 19.1c-.79 0-.79.87-.79.87h1.61a.79.79 0 0 0-.82-.87m6.95 2.29c-.16.72 1.36.79 1.36-.19v-.4s-1.19-.13-1.36.59m5.63.43c0 .25-1.82.52-1.49-1.24.32-1.76 1.78-1.19 1.78-1.19l-.29 2.43" fill="currentColor"/><path fill-rule="evenodd" d="M35.718 12.941A13.66 13.66 0 0 1 38 20.531a13.678 13.678 0 0 1-13.74 13.63 13.66 13.66 0 1 1 11.458-21.22m-14.748 8.58a2.18 2.18 0 0 1-1.15.41h-.05c-1.02.07-.99-1.06-.99-1.06h2.74v-.74A1.72 1.72 0 0 0 20 18.28a2.06 2.06 0 0 0-2.12 1.6h-1.31a13.837 13.837 0 0 1 .16-1.58c.15-1.02 1.54-1.44 1.54-1.44v-1a2.93 2.93 0 0 0-2.74 2.63L15.44 20h-1.27v.93h1.15L15 24s.95.77 1 .77l.52-3.85h1.23a1.91 1.91 0 0 0 1.21 1.83c1.66.33 2.25-.47 2.25-.47l-.24-.76m1.93 1.2h.92l2.12-4.28h-1.08l-1.3 2.76-.7-2.76-1.2.07 1.24 4.21m5.19 0h1.1l-.01-3a1.25 1.25 0 0 0-1-1.43 3.66 3.66 0 0 0-1.87.22v.85c2.18-.58 1.78.7 1.78.7-2.74-.4-3.09 2.07-2.09 2.6a1.9 1.9 0 0 0 1.94-.23.37.37 0 0 0 .15.29m4.1.21h1l.62-6.68h-1l-.29 2.17a2.15 2.15 0 0 0-2.81 1.51c-.72 2.25 1.48 3 2.48 3" clip-rule="evenodd" fill="currentColor"/></g><defs><clipPath id="icon-reassurance-fevad-clip"><path d="M0 0h48v48H0z"/></clipPath></defs>
</svg>
