<svg xmlns="http://www.w3.org/2000/svg" viewBox="0 0 24 24">
  <g clip-path="url(#icon-comment-solved-filled-clip)"><path fill-rule="evenodd" d="M18.5 2.25a3.25 3.25 0 0 1 3.25 3.25v9a3.25 3.25 0 0 1-3.25 3.25h-6.237l-4.794 3.836A.75.75 0 0 1 6.25 21v-3.25H5.5a3.25 3.25 0 0 1-3.25-3.25v-9A3.25 3.25 0 0 1 5.5 2.25h13m-2.47 4.72a.75.75 0 0 0-1.061 0l-4.47 4.47-1.468-1.468a.75.75 0 0 0-1.06 1.06l1.998 1.998a.75.75 0 0 0 1.06 0l5-5a.75.75 0 0 0 0-1.06" clip-rule="evenodd" fill="currentColor"/></g><defs><clipPath id="icon-comment-solved-filled-clip"><path d="M0 0h24v24H0z"/></clipPath></defs>
</svg>
