<svg xmlns="http://www.w3.org/2000/svg" viewBox="0 0 24 24">
  <path d="M3.09 17 7.095 6.65H9L13.005 17h-1.86l-.96-2.535h-4.32L4.905 17H3.09m3.375-4.14H9.6L8.025 8.705l-1.56 4.155m9.911 4.29c-1.575 0-2.58-.945-2.58-2.25 0-1.395.93-2.28 2.805-2.28h1.92v-.285c0-.975-.57-1.47-1.545-1.47-.795 0-1.425.435-1.635 1.215l-1.5-.585c.42-1.17 1.545-2.085 3.21-2.085 1.905 0 3.135 1.125 3.135 2.97V17H18.58v-.825c-.465.615-1.275.975-2.205.975m-.93-2.37c0 .645.48 1.005 1.275 1.005 1.095 0 1.8-.705 1.8-1.89v-.06h-1.755c-.9 0-1.32.33-1.32.945" fill="currentColor"/>
</svg>
