<svg xmlns="http://www.w3.org/2000/svg" viewBox="0 0 24 24">
  <path d="M6.5 2.75A2.25 2.25 0 0 0 4.25 5v13a2.25 2.25 0 0 0 2.25 2.25h5a.75.75 0 0 0 0-1.5h-5A.75.75 0 0 1 5.75 18V5A.75.75 0 0 1 6.5 4.25h11A.75.75 0 0 1 18.25 5v7a.75.75 0 0 0 1.5 0V5a2.25 2.25 0 0 0-2.25-2.25h-11" fill="currentColor"/><path d="M14.705 5.818a1.082 1.082 0 0 0-1.532 0l-4.661 4.673a.3.3 0 0 0 0 .424l1.108 1.112a.3.3 0 0 0 .424 0l4.661-4.673a1.088 1.088 0 0 0 0-1.536m-6.989 5.597-.668 1.674a.3.3 0 0 0 .39.39l1.67-.67a.2.2 0 0 0 .067-.327l-1.132-1.135a.2.2 0 0 0-.327.068" fill="currentColor"/><path fill-rule="evenodd" d="M17 21.5a4 4 0 1 0 0-8 4 4 0 0 0 0 8m1.854-4.646a.5.5 0 0 0-.708-.708L16.5 17.793l-.646-.647a.5.5 0 0 0-.708.708l1 1a.5.5 0 0 0 .708 0l2-2" clip-rule="evenodd" fill="currentColor"/>
</svg>
