<svg xmlns="http://www.w3.org/2000/svg" viewBox="0 0 24 24">
  <g clip-path="url(#icon-bank-in-clip)"><path d="M18.75 18.5a.75.75 0 0 0-1.5 0V21a.75.75 0 0 0 1.5 0v-2.5" fill="currentColor"/><path d="M20.6 18.95a.75.75 0 0 0-.091-1L20.45 17.9l-1.7-1.275a1.25 1.25 0 0 0-1.5 0l-1.7 1.275a.75.75 0 0 0 .9 1.2L18 17.938l1.55 1.162.063.043A.75.75 0 0 0 20.6 18.95m-10.1.3.077.004a.75.75 0 0 1 0 1.492L10.5 20.75H4a.75.75 0 0 1 0-1.5h6.5m.818-16.665a1.25 1.25 0 0 1 1.362 0l.087.061 7.543 5.868c.939.73.423 2.236-.767 2.236H4.457c-1.19 0-1.706-1.506-.768-2.236l7.543-5.868.086-.061M5.186 9.25h13.628l-6.815-5.3-6.813 5.3M5.25 17.5v-5a.75.75 0 0 1 1.5 0v5a.75.75 0 0 1-1.5 0m4 0v-5a.75.75 0 0 1 1.5 0v5a.75.75 0 0 1-1.5 0m4-1v-4a.75.75 0 0 1 1.5 0v4a.75.75 0 0 1-1.5 0m4-2.5v-1.5a.75.75 0 0 1 1.496-.077L18.75 12.5V14l-.004.077a.75.75 0 0 1-1.492 0L17.25 14" fill="currentColor"/><path d="M11.318 2.585a1.25 1.25 0 0 1 1.362 0l.087.061 7.543 5.868c.939.73.423 2.236-.767 2.236H4.457c-1.19 0-1.706-1.506-.768-2.236l7.543-5.868.086-.061M5.186 9.25h13.628l-6.815-5.3-6.813 5.3m8.314 10 .077.004a.75.75 0 0 1 0 1.492L13.5 20.75H4a.75.75 0 0 1 0-1.5h9.5" fill="currentColor"/></g><defs><clipPath id="icon-bank-in-clip"><path d="M0 0h24v24H0z"/></clipPath></defs>
</svg>
