<svg xmlns="http://www.w3.org/2000/svg" viewBox="0 0 24 24">
  <g clip-path="url(#icon-scooter-clip)"><path fill-rule="evenodd" d="M13 3.75a.75.75 0 0 0 0 1.5h2.874l1.24 6.593-.03.005a6.5 6.5 0 0 0-1.945.682 5.284 5.284 0 0 0-2 1.902c-.453.748-.764 1.676-.859 2.818H8.74a2.75 2.75 0 1 0-.289 1.5H13A.75.75 0 0 0 13.75 18c0-1.258.285-2.15.673-2.791a3.785 3.785 0 0 1 1.438-1.364A5 5 0 0 1 18 13.25h.003a.75.75 0 0 0 .735-.889l-1.503-8a.75.75 0 0 0-.738-.611H13m-7 15a1.25 1.25 0 1 0 0-2.5 1.25 1.25 0 0 0 0 2.5m12 0a1.25 1.25 0 1 0 0-2.5 1.25 1.25 0 0 0 0 2.5m0 1.5a2.75 2.75 0 1 0 0-5.5 2.75 2.75 0 0 0 0 5.5" clip-rule="evenodd" fill="currentColor"/></g><defs><clipPath id="icon-scooter-clip"><path d="M0 0h24v24H0z"/></clipPath></defs>
</svg>
