<svg xmlns="http://www.w3.org/2000/svg" viewBox="0 0 24 24">
  <g clip-path="url(#icon-arrow-up-in-circle-filled-clip)"><path d="M18.894 5.106c3.808 3.807 3.808 9.98 0 13.788-3.807 3.808-9.98 3.808-13.788 0-3.808-3.807-3.808-9.98 0-13.788 3.807-3.808 9.98-3.808 13.788 0m-6.01 1.96a1.25 1.25 0 0 0-1.768 0l-3.232 3.232a.75.75 0 0 0 1.06 1.06l2.306-2.305v7.19a.75.75 0 1 0 1.5 0v-7.19l2.306 2.305a.75.75 0 0 0 1.06-1.06l-3.232-3.233" fill="currentColor"/></g><defs><clipPath id="icon-arrow-up-in-circle-filled-clip"><path d="M0 0h24v24H0z"/></clipPath></defs>
</svg>
