<svg xmlns="http://www.w3.org/2000/svg" viewBox="0 0 24 24">
  <g clip-path="url(#icon-cross-in-circle-filled-clip)"><path fill-rule="evenodd" d="M2.25 12c0-5.385 4.365-9.75 9.75-9.75s9.75 4.365 9.75 9.75-4.365 9.75-9.75 9.75S2.25 17.385 2.25 12m6.28-4.53a.75.75 0 0 0-1.06 1.06L10.94 12l-3.47 3.47a.75.75 0 1 0 1.06 1.06L12 13.06l3.47 3.47a.75.75 0 1 0 1.06-1.06L13.06 12l3.47-3.47a.75.75 0 0 0-1.06-1.06L12 10.94 8.53 7.47" clip-rule="evenodd" fill="currentColor"/></g><defs><clipPath id="icon-cross-in-circle-filled-clip"><path d="M0 0h24v24H0z"/></clipPath></defs>
</svg>
