<svg xmlns="http://www.w3.org/2000/svg" viewBox="0 0 24 24">
  <g clip-path="url(#icon-equalizer-clip)"><path d="M17.75 5a.75.75 0 0 0-1.5 0v1.25H3a.75.75 0 0 0 0 1.5h13.25V9a.75.75 0 0 0 1.5 0V7.75H21a.75.75 0 0 0 0-1.5h-3.25V5M3 16.25a.75.75 0 0 0 0 1.5h9.25V19a.75.75 0 0 0 1.5 0v-1.25H21a.75.75 0 0 0 0-1.5h-7.25V15a.75.75 0 0 0-1.5 0v1.25H3M2.25 12A.75.75 0 0 1 3 11.25h3.25V10a.75.75 0 0 1 1.5 0v1.25H21a.75.75 0 0 1 0 1.5H7.75V14a.75.75 0 0 1-1.5 0v-1.25H3A.75.75 0 0 1 2.25 12" fill="currentColor"/></g><defs><clipPath id="icon-equalizer-clip"><path d="M0 0h24v24H0z"/></clipPath></defs>
</svg>
