<svg xmlns="http://www.w3.org/2000/svg" viewBox="0 0 24 24">
  <g clip-path="url(#icon-bank-clip)"><path fill-rule="evenodd" d="M12.767 3.08a1.25 1.25 0 0 0-1.535 0L3.69 8.947c-.94.73-.423 2.236.767 2.236h15.086c1.19 0 1.707-1.506.767-2.236L12.767 3.08M5.186 9.683l6.813-5.3 6.815 5.3H5.186" clip-rule="evenodd" fill="currentColor"/><path d="M4 19.683a.75.75 0 0 0 0 1.5h16a.75.75 0 0 0 0-1.5H4m2-7.5a.75.75 0 0 1 .75.75v5a.75.75 0 0 1-1.5 0v-5A.75.75 0 0 1 6 12.183m12.75.75a.75.75 0 0 0-1.5 0v5a.75.75 0 0 0 1.5 0v-5M14 12.183a.75.75 0 0 1 .75.75v5a.75.75 0 0 1-1.5 0v-5a.75.75 0 0 1 .75-.75m-3.25.75a.75.75 0 0 0-1.5 0v5a.75.75 0 0 0 1.5 0v-5" fill="currentColor"/></g><defs><clipPath id="icon-bank-clip"><path d="M0 0h24v24H0z"/></clipPath></defs>
</svg>
