<svg xmlns="http://www.w3.org/2000/svg" viewBox="0 0 24 24">
  <g clip-path="url(#icon-float-clip)"><path fill-rule="evenodd" d="M12 2.25c-5.385 0-9.75 4.365-9.75 9.75s4.365 9.75 9.75 9.75 9.75-4.365 9.75-9.75S17.385 2.25 12 2.25M3.75 12a8.217 8.217 0 0 1 1.91-5.28l2.493 2.493A4.729 4.729 0 0 0 7.25 12a4.728 4.728 0 0 0 .903 2.787L5.66 17.279A8.217 8.217 0 0 1 3.75 12m2.97 6.34A8.217 8.217 0 0 0 12 20.25a8.217 8.217 0 0 0 5.28-1.91l-2.494-2.493A4.728 4.728 0 0 1 12 16.75a4.729 4.729 0 0 1-2.787-.903L6.721 18.34M9.214 8.153 6.721 5.66A8.217 8.217 0 0 1 12 3.75a8.217 8.217 0 0 1 5.28 1.91l-2.494 2.493A4.728 4.728 0 0 0 12 7.25a4.729 4.729 0 0 0-2.787.903m6.634 1.06A4.729 4.729 0 0 1 16.75 12a4.728 4.728 0 0 1-.903 2.787l2.493 2.492A8.217 8.217 0 0 0 20.25 12a8.217 8.217 0 0 0-1.91-5.28l-2.493 2.493M8.75 12a3.25 3.25 0 1 1 6.5 0 3.25 3.25 0 0 1-6.5 0" clip-rule="evenodd" fill="currentColor"/></g><defs><clipPath id="icon-float-clip"><path d="M0 0h24v24H0z"/></clipPath></defs>
</svg>
