<svg xmlns="http://www.w3.org/2000/svg" viewBox="0 0 24 24">
  <path fill-rule="evenodd" d="M4.25 5A1.25 1.25 0 0 1 5.5 3.75h2A1.25 1.25 0 0 1 8.75 5v2A1.25 1.25 0 0 1 7.5 8.25h-2A1.25 1.25 0 0 1 4.25 7V5m1.5.25v1.5h1.5v-1.5h-1.5M4.25 11A1.25 1.25 0 0 1 5.5 9.75h2A1.25 1.25 0 0 1 8.75 11v2a1.25 1.25 0 0 1-1.25 1.25h-2A1.25 1.25 0 0 1 4.25 13v-2m1.5.25v1.5h1.5v-1.5h-1.5M4.25 17a1.25 1.25 0 0 1 1.25-1.25h2A1.25 1.25 0 0 1 8.75 17v2a1.25 1.25 0 0 1-1.25 1.25h-2A1.25 1.25 0 0 1 4.25 19v-2m1.5.25v1.5h1.5v-1.5h-1.5M10.25 6A.75.75 0 0 1 11 5.25h8a.75.75 0 0 1 0 1.5h-8A.75.75 0 0 1 10.25 6m0 12A.75.75 0 0 1 11 17.25h8a.75.75 0 0 1 0 1.5h-8A.75.75 0 0 1 10.25 18m0-6A.75.75 0 0 1 11 11.25h8a.75.75 0 0 1 0 1.5h-8A.75.75 0 0 1 10.25 12" clip-rule="evenodd" fill="currentColor"/>
</svg>
