<svg xmlns="http://www.w3.org/2000/svg" viewBox="0 0 24 24">
  <path d="M4.75 4a.75.75 0 0 0-1.5 0v.889a.75.75 0 0 0 1.5 0V4m0 4.444a.75.75 0 0 0-1.5 0v1.778a.75.75 0 0 0 1.5 0V8.444m0 5.334a.75.75 0 0 0-1.5 0v1.778a.75.75 0 0 0 1.5 0v-1.778m0 5.333a.75.75 0 0 0-1.5 0V20a.75.75 0 0 0 1.5 0v-.889" fill="currentColor"/><path fill-rule="evenodd" d="M6.25 4.5A1.25 1.25 0 0 1 7.5 3.25h9a1.25 1.25 0 0 1 1.25 1.25v15a1.25 1.25 0 0 1-1.25 1.25h-9a1.25 1.25 0 0 1-1.25-1.25v-15m1.5.25v14.5h8.5V4.75h-8.5" clip-rule="evenodd" fill="currentColor"/><path d="M20 3.25A.75.75 0 0 1 20.75 4v.889a.75.75 0 0 1-1.5 0V4A.75.75 0 0 1 20 3.25m0 4.444a.75.75 0 0 1 .75.75v1.778a.75.75 0 0 1-1.5 0V8.444A.75.75 0 0 1 20 7.694m0 5.334a.75.75 0 0 1 .75.75v1.778a.75.75 0 0 1-1.5 0v-1.778a.75.75 0 0 1 .75-.75m0 5.333a.75.75 0 0 1 .75.75V20a.75.75 0 0 1-1.5 0v-.889a.75.75 0 0 1 .75-.75" fill="currentColor"/>
</svg>
