<svg xmlns="http://www.w3.org/2000/svg" viewBox="0 0 24 24">
  <g clip-path="url(#icon-plus-in-circle-clip)"><path d="M7.25 12A.75.75 0 0 1 8 11.25h3.25V8a.75.75 0 0 1 1.5 0v3.25H16a.75.75 0 0 1 0 1.5h-3.25V16a.75.75 0 0 1-1.5 0v-3.25H8A.75.75 0 0 1 7.25 12" fill="currentColor"/><path fill-rule="evenodd" d="M2.25 12c0-5.385 4.365-9.75 9.75-9.75s9.75 4.365 9.75 9.75-4.365 9.75-9.75 9.75S2.25 17.385 2.25 12M12 3.75a8.25 8.25 0 1 0 0 16.5 8.25 8.25 0 0 0 0-16.5" clip-rule="evenodd" fill="currentColor"/></g><defs><clipPath id="icon-plus-in-circle-clip"><path d="M0 0h24v24H0z"/></clipPath></defs>
</svg>
