<svg xmlns="http://www.w3.org/2000/svg" viewBox="0 0 24 24">
  <g clip-path="url(#icon-arrow-up-in-circle-clip)"><path d="M17.834 17.834A8.25 8.25 0 1 0 6.167 6.166a8.25 8.25 0 0 0 11.667 11.668m1.06 1.06c-3.807 3.808-9.98 3.808-13.788 0-3.808-3.807-3.808-9.98 0-13.788 3.807-3.808 9.98-3.808 13.788 0 3.808 3.807 3.808 9.98 0 13.788" fill="currentColor"/><path d="M12.75 7.757a.75.75 0 0 0-1.5 0v8.486a.75.75 0 0 0 1.5 0V7.757" fill="currentColor"/><path d="M15.056 11.359a.75.75 0 0 0 1.06-1.06l-3.232-3.233a1.25 1.25 0 0 0-1.768 0l-3.232 3.232a.75.75 0 1 0 1.06 1.06L12 8.304l3.056 3.056" fill="currentColor"/><path d="M16.116 10.298a.75.75 0 0 1-1.06 1.06L12.75 9.054v7.19a.75.75 0 1 1-1.5 0v-7.19L8.944 11.36a.75.75 0 0 1-1.06-1.06l3.232-3.233a1.25 1.25 0 0 1 1.768 0l3.232 3.232" fill="currentColor"/></g><defs><clipPath id="icon-arrow-up-in-circle-clip"><path d="M0 0h24v24H0z"/></clipPath></defs>
</svg>
