<svg xmlns="http://www.w3.org/2000/svg" viewBox="0 0 24 24">
  <path d="M6.5 2.75A2.25 2.25 0 0 0 4.25 5v13a2.25 2.25 0 0 0 2.25 2.25h5a.75.75 0 0 0 0-1.5h-5A.75.75 0 0 1 5.75 18V5A.75.75 0 0 1 6.5 4.25h11A.75.75 0 0 1 18.25 5v7a.75.75 0 0 0 1.5 0V5a2.25 2.25 0 0 0-2.25-2.25h-11" fill="currentColor"/><path d="M9.293 7.207a1 1 0 1 0 1.414-1.414 1 1 0 0 0-1.414 1.414" fill="currentColor"/><path d="M7.779 7.304A.75.75 0 0 0 7.22 8.696l2.03.812v.815l-1.42 2.842a.75.75 0 1 0 1.34.67L10 12.177l.83 1.658a.75.75 0 1 0 1.34-.67l-1.42-2.842V9.508l2.028-.812a.75.75 0 0 0-.556-1.392L10 8.192 7.779 7.304" fill="currentColor"/><path fill-rule="evenodd" d="M17 21.5a4 4 0 1 0 0-8 4 4 0 0 0 0 8m1.854-4.646a.5.5 0 0 0-.708-.708L16.5 17.793l-.646-.647a.5.5 0 0 0-.708.708l1 1a.5.5 0 0 0 .708 0l2-2" clip-rule="evenodd" fill="currentColor"/>
</svg>
