<svg xmlns="http://www.w3.org/2000/svg" viewBox="0 0 24 24">
  <path fill-rule="evenodd" d="M12 2.25A.75.75 0 0 1 12.75 3v.2a1.503 1.503 0 0 1 .701.918l4.15 1.132H20.5a.75.75 0 0 1 0 1.5h-1.892l2.588 6.472A.75.75 0 0 1 21.25 13.5V14a3.75 3.75 0 1 1-7.5 0v-.5a.75.75 0 0 1 .054-.278l2.687-6.72-3.435-.937A1.505 1.505 0 0 1 12.75 5.8v13.7h1.5a1.25 1.25 0 0 1 1.25 1.25.25.25 0 0 1-.25.25h-6.5a.25.25 0 0 1-.25-.25 1.25 1.25 0 0 1 1.25-1.25h1.5V5.8a1.505 1.505 0 0 1-.306-.235L7.51 6.502l2.687 6.72A.75.75 0 0 1 10.25 13.5V14a3.75 3.75 0 1 1-7.5 0v-.5a.75.75 0 0 1 .054-.278L5.392 6.75H3.5a.75.75 0 0 1 0-1.5h2.9l4.149-1.132a1.503 1.503 0 0 1 .701-.917V3A.75.75 0 0 1 12 2.25m-7.736 12a2.25 2.25 0 0 0 4.472 0H4.264m4.128-1.5H4.608L6.5 8.02l1.892 4.73m9.108 3.5a2.25 2.25 0 0 1-2.236-2h4.472a2.25 2.25 0 0 1-2.236 2m-1.892-3.5h3.784L17.5 8.02l-1.892 4.73" clip-rule="evenodd" fill="currentColor"/>
</svg>
