<svg xmlns="http://www.w3.org/2000/svg" viewBox="0 0 24 24">
  <path d="M6.5 2.75A2.25 2.25 0 0 0 4.25 5v13a2.25 2.25 0 0 0 2.25 2.25h5a.75.75 0 0 0 0-1.5h-5A.75.75 0 0 1 5.75 18V5A.75.75 0 0 1 6.5 4.25h11A.75.75 0 0 1 18.25 5v7a.75.75 0 0 0 1.5 0V5a2.25 2.25 0 0 0-2.25-2.25h-11" fill="currentColor"/><path d="M7.746 7.754 6.854 8.646a.5.5 0 0 0 0 .708l.892.892a.5.5 0 0 0 .708 0l.892-.892a.5.5 0 0 0 0-.708L8.454 7.754a.5.5 0 0 0-.708 0m3.908.892.892-.892a.5.5 0 0 1 .708 0l.892.892a.5.5 0 0 1 0 .708l-.892.892a.5.5 0 0 1-.708 0l-.892-.892a.5.5 0 0 1 0-.708m-1.508-3.292L9.254 6.246a.5.5 0 0 0 0 .708l.892.892a.5.5 0 0 0 .708 0l.892-.892a.5.5 0 0 0 0-.708l-.892-.892a.5.5 0 0 0-.708 0m-.892 5.692.892-.892a.5.5 0 0 1 .708 0l.892.892a.5.5 0 0 1 0 .708l-.892.892a.5.5 0 0 1-.708 0l-.892-.892a.5.5 0 0 1 0-.708" fill="currentColor"/><path fill-rule="evenodd" d="M21 17.5a4 4 0 1 1-8 0 4 4 0 0 1 8 0m-2.146-1.354a.5.5 0 0 1 0 .708l-2 2a.5.5 0 0 1-.708 0l-1-1a.5.5 0 0 1 .708-.708l.646.647 1.646-1.647a.5.5 0 0 1 .708 0" clip-rule="evenodd" fill="currentColor"/>
</svg>
