<svg xmlns="http://www.w3.org/2000/svg" viewBox="0 0 24 24">
  <path fill-rule="evenodd" d="M2.25 12c0-5.385 4.365-9.75 9.75-9.75s9.75 4.365 9.75 9.75-4.365 9.75-9.75 9.75S2.25 17.385 2.25 12m10.5 8.216a8.213 8.213 0 0 0 4.53-1.876l-2.494-2.493a4.724 4.724 0 0 1-2.036.844v3.525m-1.5-3.525v3.525a8.213 8.213 0 0 1-4.53-1.876l2.493-2.493a4.725 4.725 0 0 0 2.037.844M12 15.25a3.25 3.25 0 1 0 0-6.5 3.25 3.25 0 0 0 0 6.5m-4.691-2.5H3.784a8.213 8.213 0 0 0 1.876 4.53l2.493-2.494a4.725 4.725 0 0 1-.844-2.036m0-1.5a4.725 4.725 0 0 1 .844-2.037L5.66 6.721a8.213 8.213 0 0 0-1.876 4.529h3.525M6.72 5.66l2.492 2.493a4.725 4.725 0 0 1 2.037-.844V3.784A8.213 8.213 0 0 0 6.72 5.66m6.029-1.876v3.525a4.725 4.725 0 0 1 2.037.844l2.492-2.493a8.213 8.213 0 0 0-4.529-1.876m5.59 2.937-2.493 2.492a4.725 4.725 0 0 1 .844 2.037h3.525a8.213 8.213 0 0 0-1.876-4.53m1.876 6.029H16.69a4.724 4.724 0 0 1-.844 2.037l2.493 2.492a8.213 8.213 0 0 0 1.876-4.529" clip-rule="evenodd" fill="currentColor"/>
</svg>
