<svg xmlns="http://www.w3.org/2000/svg" viewBox="0 0 24 24">
  <path d="M6.25 5.5A3.25 3.25 0 0 1 9.5 2.25h5a3.25 3.25 0 0 1 3.25 3.25v3a.75.75 0 0 1-1.5 0v-3a1.75 1.75 0 0 0-1.75-1.75h-5A1.75 1.75 0 0 0 7.75 5.5v3a.75.75 0 0 1-1.5 0v-3M7 14.75a.75.75 0 0 1 .75.75v3a1.75 1.75 0 0 0 1.75 1.75h5a1.75 1.75 0 0 0 1.75-1.75v-3a.75.75 0 0 1 1.5 0v3a3.25 3.25 0 0 1-3.25 3.25h-5a3.25 3.25 0 0 1-3.25-3.25v-3A.75.75 0 0 1 7 14.75" fill="currentColor"/><path d="M12 19a1 1 0 1 0 0-2 1 1 0 0 0 0 2M10.5 4.75a.75.75 0 0 0 0 1.5h3a.75.75 0 0 0 0-1.5h-3m7.97 4.72a.75.75 0 0 1 1.06 0l2 2a.75.75 0 0 1 0 1.06l-2 2a.75.75 0 1 1-1.06-1.06l.72-.72H15a.75.75 0 0 1 0-1.5h4.19l-.72-.72a.75.75 0 0 1 0-1.06m-14 5.06a.75.75 0 0 0 1.06-1.06l-.72-.72H9a.75.75 0 0 0 0-1.5H4.81l.72-.72a.75.75 0 1 0-1.06-1.06l-2 2a.75.75 0 0 0 0 1.06l2 2" fill="currentColor"/>
</svg>
