<svg xmlns="http://www.w3.org/2000/svg" viewBox="0 0 24 24">
  <g clip-path="url(#icon-archive-clip)"><path d="M8.25 11A.75.75 0 0 1 9 10.25h6a.75.75 0 0 1 0 1.5H9A.75.75 0 0 1 8.25 11" fill="currentColor"/><path fill-rule="evenodd" d="M3.5 3.25A1.25 1.25 0 0 0 2.25 4.5v3a1.25 1.25 0 0 0 1 1.225V19.5a1.25 1.25 0 0 0 1.25 1.25h15a1.25 1.25 0 0 0 1.25-1.25V8.725a1.25 1.25 0 0 0 1-1.225v-3a1.25 1.25 0 0 0-1.25-1.25h-17m15.75 5.5H4.75v10.5h14.5V8.75m1-1.5v-2.5H3.75v2.5h16.5" clip-rule="evenodd" fill="currentColor"/></g><defs><clipPath id="icon-archive-clip"><path d="M0 0h24v24H0z"/></clipPath></defs>
</svg>
