<svg xmlns="http://www.w3.org/2000/svg" viewBox="0 0 24 24">
  <path d="M12.75 3a.75.75 0 0 0-1.5 0v1.414a.75.75 0 0 0 1.5 0V3m6.28 3.03a.75.75 0 0 0-1.06-1.06l-1 1a.75.75 0 0 0 1.06 1.06l1-1" fill="currentColor"/><path fill-rule="evenodd" d="M6.25 11.851C6.199 8.251 9.192 6.25 12 6.25c2.821 0 5.75 2.009 5.75 5.59v.011c-.022 1.504-.498 2.573-1.455 3.585-.145.153-.264.273-.364.374-.193.196-.316.32-.424.474-.115.164-.205.358-.24.78a1.32 1.32 0 0 1-.017.12V19A2.25 2.25 0 0 1 13 21.25h-2A2.25 2.25 0 0 1 8.75 19v-1.814a1.288 1.288 0 0 1-.016-.122c-.036-.422-.126-.616-.241-.78a3.82 3.82 0 0 0-.425-.475 24.376 24.376 0 0 1-.362-.373c-.958-1.011-1.433-2.081-1.455-3.585m4 7.149v-.75h3.5V19A.75.75 0 0 1 13 19.75h-2A.75.75 0 0 1 10.25 19m4.031-3.58c-.265.376-.422.786-.49 1.33h-3.582c-.069-.544-.225-.954-.49-1.33-.183-.26-.434-.515-.676-.761a18.157 18.157 0 0 1-.248-.255c-.709-.748-1.028-1.462-1.044-2.575C7.713 9.269 9.81 7.75 12 7.75c2.176 0 4.246 1.51 4.249 4.085-.017 1.11-.337 1.822-1.044 2.57a18.025 18.025 0 0 1-.249.255c-.242.245-.493.5-.676.76" clip-rule="evenodd" fill="currentColor"/><path d="M4.97 4.97a.75.75 0 0 1 1.06 0l1 1a.75.75 0 0 1-1.06 1.06l-1-1a.75.75 0 0 1 0-1.06M5.164 11a.75.75 0 0 1-.75.75H3a.75.75 0 0 1 0-1.5h1.414A.75.75 0 0 1 5.164 11M21 11.75a.75.75 0 0 0 0-1.5h-1.414a.75.75 0 0 0 0 1.5H21" fill="currentColor"/>
</svg>
