<svg xmlns="http://www.w3.org/2000/svg" viewBox="0 0 24 24">
  <path fill-rule="evenodd" d="M11.754 5.813a10.237 10.237 0 0 1 .182-.677l-2.08-.064C9.872 5.36 9.84 5.728 9.808 6.048l-.05.444a441.83 441.83 0 0 0-.045.402 85.53 85.53 0 0 1-.64.002 26.638 26.638 0 0 1-2.945-.208l.048 1.84a91.473 91.473 0 0 1 .718.035C7.587 8.598 8.41 8.64 9.024 8.64l.508-.003a47.392 47.392 0 0 0-.149 1.996c-2.237 1.06-3.927 3.206-3.927 5.271 0 1.632.976 2.336 2.144 2.336.857 0 1.715-.267 2.49-.652a13.397 13.397 0 0 0 .198.652l1.84-.544a25.508 25.508 0 0 1-.362-1.196c1.23-1.021 2.501-2.695 3.368-4.858 1.09.423 1.666 1.275 1.666 2.23 0 1.584-1.264 3.136-4.352 3.472l1.072 1.696c3.92-.608 5.264-2.8 5.264-5.072 0-1.863-1.23-3.298-3.098-3.906a11.885 11.885 0 0 1 .298-.814l-1.968-.48a7.077 7.077 0 0 1-.139.982 7.627 7.627 0 0 0-.293-.006 10.919 10.919 0 0 0-2.388.28 34.245 34.245 0 0 1 .125-1.443C13.297 8.487 15.438 8.284 16.992 8l-.016-1.84c-1.744.422-3.473.616-5.422.693a22.352 22.352 0 0 1 .158-.869 35.661 35.661 0 0 0 .042-.171M9.35 12.544c-1.205.816-2.006 2.044-2.006 2.944 0 .528.208.8.736.8.449 0 1.011-.188 1.6-.533a21.828 21.828 0 0 1-.33-3.21m1.974 1.874a9.604 9.604 0 0 0 2.024-3.057 7.785 7.785 0 0 0-2.212.362v.037a18.02 18.02 0 0 0 .188 2.658" clip-rule="evenodd" fill="currentColor"/>
</svg>
