<svg xmlns="http://www.w3.org/2000/svg" viewBox="0 0 24 24">
  <g clip-path="url(#icon-sound-off-clip)"><path fill-rule="evenodd" d="M2.28 2.22a.75.75 0 0 0-1.06 1.06l18 18a.75.75 0 1 0 1.06-1.06L14 13.94V4.811c0-1.058-1.231-1.637-2.046-.964L8.744 6.5H7.25a3.266 3.266 0 0 0-.629.06l-4.34-4.34M8.06 8l4.44 4.44V5.341L9.63 7.714A1.25 1.25 0 0 1 8.832 8H8.061" clip-rule="evenodd" fill="currentColor"/><path d="m12.5 16.66 1.5 1.5v.528c0 1.058-1.231 1.638-2.046.964L8.744 17H7.25A3.25 3.25 0 0 1 4 13.75v-4a3.239 3.239 0 0 1 .276-1.313l1.226 1.226A1.78 1.78 0 0 0 5.5 9.75v4a1.75 1.75 0 0 0 1.75 1.75h1.583a1.25 1.25 0 0 1 .796.286l2.871 2.372V16.66" fill="currentColor"/></g><defs><clipPath id="icon-sound-off-clip"><path d="M0 0h24v24H0z"/></clipPath></defs>
</svg>
