<svg xmlns="http://www.w3.org/2000/svg" viewBox="0 0 24 24">
  <path fill-rule="evenodd" d="M6.6 2.5a2.998 2.998 0 0 1 .75 5.901v7.197A2.998 2.998 0 0 1 6.6 21.5a3 3 0 0 1-.75-5.902V8.4A2.998 2.998 0 0 1 6.6 2.5m0 14.5a1.5 1.5 0 1 0 0 3 1.5 1.5 0 0 0 0-3m0-13a1.5 1.5 0 1 0 0 3 1.5 1.5 0 0 0 0-3m7.47-1.03a.75.75 0 1 1 1.06 1.06l-.72.72h1.69A2.25 2.25 0 0 1 18.35 7v8.598A2.999 2.999 0 0 1 17.6 21.5a3 3 0 0 1-.75-5.902V7a.75.75 0 0 0-.75-.75h-1.69l.72.72a.75.75 0 0 1-1.06 1.06l-2-2a.75.75 0 0 1 0-1.06l2-2M17.6 17a1.5 1.5 0 1 0 0 3 1.5 1.5 0 0 0 0-3" clip-rule="evenodd" fill="currentColor"/>
</svg>
