<svg xmlns="http://www.w3.org/2000/svg" viewBox="0 0 24 24">
  <g clip-path="url(#icon-arrow-down-left-in-circle-clip)"><path d="M12 3.75a8.25 8.25 0 1 0 0 16.5 8.25 8.25 0 0 0 0-16.5m0-1.5c5.385 0 9.75 4.365 9.75 9.75s-4.365 9.75-9.75 9.75S2.25 17.385 2.25 12 6.615 2.25 12 2.25" fill="currentColor"/><path d="M8.47 14.47a.75.75 0 0 0 1.06 1.06l6-6a.75.75 0 0 0-1.06-1.06l-6 6" fill="currentColor"/><path d="M9.386 10.293a.75.75 0 0 0-1.5 0v4.571a1.25 1.25 0 0 0 1.25 1.25h4.571a.75.75 0 1 0 0-1.5H9.386v-4.321" fill="currentColor"/><path d="M7.886 10.293a.75.75 0 0 1 1.5 0v3.26L14.47 8.47a.75.75 0 1 1 1.06 1.06l-5.084 5.084h3.261a.75.75 0 1 1 0 1.5H9.136a1.25 1.25 0 0 1-1.25-1.25v-4.571" fill="currentColor"/></g><defs><clipPath id="icon-arrow-down-left-in-circle-clip"><path d="M0 0h24v24H0z"/></clipPath></defs>
</svg>
