<svg xmlns="http://www.w3.org/2000/svg" viewBox="0 0 24 24">
  <path fill-rule="evenodd" d="M5.5 3.25a2.25 2.25 0 1 0 2.122 3h2.256a2.25 2.25 0 0 0 3.092 1.28l3.5 3.5A2.24 2.24 0 0 0 16.25 12a2.24 2.24 0 0 0 .22.97l-3.5 3.5a2.25 2.25 0 1 0 1.06 1.06l3.5-3.5a2.25 2.25 0 1 0 0-4.061l-3.5-3.499a2.25 2.25 0 1 0-4.153-1.72H7.623A2.25 2.25 0 0 0 5.5 3.25M4.75 5.5a.75.75 0 1 1 1.5 0 .75.75 0 0 1-1.5 0m6.5 0a.75.75 0 1 1 1.5 0 .75.75 0 0 1-1.5 0m0 13a.75.75 0 1 1 1.5 0 .75.75 0 0 1-1.5 0m6.5-6.5a.75.75 0 1 1 1.5 0 .75.75 0 0 1-1.5 0" clip-rule="evenodd" fill="currentColor"/><path fill-rule="evenodd" d="M5.5 9.75a2.25 2.25 0 1 0 0 4.5 2.25 2.25 0 0 0 0-4.5M4.75 12a.75.75 0 1 1 1.5 0 .75.75 0 0 1-1.5 0m-1.5 6.5a2.25 2.25 0 1 1 4.5 0 2.25 2.25 0 0 1-4.5 0m2.25-.75a.75.75 0 1 0 0 1.5.75.75 0 0 0 0-1.5M9.75 12a2.25 2.25 0 1 1 4.5 0 2.25 2.25 0 0 1-4.5 0M12 11.25a.75.75 0 1 0 0 1.5.75.75 0 0 0 0-1.5m4.25-5.75a2.25 2.25 0 1 1 4.5 0 2.25 2.25 0 0 1-4.5 0m2.25-.75a.75.75 0 1 0 0 1.5.75.75 0 0 0 0-1.5M16.25 18.5a2.25 2.25 0 1 1 4.5 0 2.25 2.25 0 0 1-4.5 0m2.25-.75a.75.75 0 1 0 0 1.5.75.75 0 0 0 0-1.5" clip-rule="evenodd" fill="currentColor"/>
</svg>
