<svg xmlns="http://www.w3.org/2000/svg" viewBox="0 0 24 24">
  <path fill-rule="evenodd" d="M15 2.25H9A3.75 3.75 0 0 0 6.75 9a3.75 3.75 0 0 0 0 6 3.755 3.755 0 0 0-1.5 3 3.75 3.75 0 1 0 7.5 0v-3a3.75 3.75 0 1 0 4.5-6A3.75 3.75 0 0 0 15 2.25M12.75 12a2.25 2.25 0 1 0 4.5 0 2.25 2.25 0 0 0-4.5 0m-1.5 3.75H9A2.25 2.25 0 1 0 11.25 18v-2.25M9 14.25h2.25v-4.5H9a2.25 2.25 0 1 0 0 4.5m6-6h-2.25v-4.5H15a2.25 2.25 0 0 1 0 4.5m-3.75 0v-4.5H9a2.25 2.25 0 1 0 0 4.5h2.25" clip-rule="evenodd" fill="currentColor"/>
</svg>
