<svg xmlns="http://www.w3.org/2000/svg" viewBox="0 0 24 24">
  <path fill-rule="evenodd" d="M5.5 3.25a2.25 2.25 0 0 1 2.122 1.5H9a.75.75 0 0 1 0 1.5H7.622a2.25 2.25 0 1 1-2.122-3m0 1.5a.75.75 0 1 0 0 1.5.75.75 0 0 0 0-1.5" clip-rule="evenodd" fill="currentColor"/><path d="M9.638 16.985c-1.27 1.34-2.896 2.265-5.138 2.265a.75.75 0 0 1 0-1.5c1.758 0 3.008-.7 4.05-1.797 1.074-1.133 1.903-2.662 2.79-4.309l.026-.05c.856-1.588 1.77-3.287 2.996-4.579 1.27-1.34 2.896-2.265 5.138-2.265a.75.75 0 0 1 0 1.5c-1.758 0-3.008.7-4.05 1.797-1.074 1.133-1.903 2.662-2.79 4.309l-.026.05c-.856 1.588-1.77 3.287-2.996 4.579" fill="currentColor"/><path fill-rule="evenodd" d="M16.378 19.25a2.251 2.251 0 1 0 0-1.5H15a.75.75 0 0 0 0 1.5h1.378m2.872-.75a.75.75 0 1 1-1.5 0 .75.75 0 0 1 1.5 0" clip-rule="evenodd" fill="currentColor"/><path d="M11.25 5.5A.75.75 0 0 1 12 4.75h2a.75.75 0 0 1 0 1.5h-2a.75.75 0 0 1-.75-.75M12 19.25a.75.75 0 0 0 0-1.5h-2a.75.75 0 0 0 0 1.5h2" fill="currentColor"/>
</svg>
