<svg xmlns="http://www.w3.org/2000/svg" viewBox="0 0 24 24">
  <g clip-path="url(#icon-home-filled-clip)"><path d="m12.768 2.83 8.692 6.761a.75.75 0 1 1-.92 1.184l-.79-.614v10.022a1.25 1.25 0 0 1-1.25 1.25h-4a1.25 1.25 0 0 1-1.25-1.25v-3.5a1.25 1.25 0 1 0-2.5 0v3.5a1.25 1.25 0 0 1-1.25 1.25h-4a1.25 1.25 0 0 1-1.25-1.25V10.161l-.79.614a.75.75 0 1 1-.92-1.184l8.693-6.761a1.25 1.25 0 0 1 1.534 0" fill="currentColor"/></g><defs><clipPath id="icon-home-filled-clip"><path d="M0 0h24v24H0z"/></clipPath></defs>
</svg>
