<svg xmlns="http://www.w3.org/2000/svg" viewBox="0 0 24 24">
  <path d="M9 5.766V4.45a.3.3 0 0 0-.088-.213l-1.4-1.4A.3.3 0 0 0 7 3.051v1.475a.3.3 0 0 1-.3.3H5.224a.3.3 0 0 0-.212.512l1.4 1.4a.3.3 0 0 0 .212.088H7.94l4.53 4.53a.75.75 0 0 0 1.061-1.06L9 5.766" fill="currentColor"/><path fill-rule="evenodd" d="M13 5.576a5.228 5.228 0 0 0-2.187.476.75.75 0 1 1-.626-1.363 6.75 6.75 0 0 1 6.637 11.7l1.378 3.674a.75.75 0 0 1-1.404.527l-.193-.514h-7.21L9.202 20.59a.75.75 0 0 1-1.404-.527l1.377-3.674a6.743 6.743 0 0 1-2.925-5.563 6.728 6.728 0 0 1 .612-2.813.75.75 0 1 1 1.364.626A5.25 5.25 0 1 0 13 5.576m0 12a6.73 6.73 0 0 0 2.49-.474l.553 1.474H9.957l.553-1.474A6.73 6.73 0 0 0 13 17.576" clip-rule="evenodd" fill="currentColor"/><path d="M13 7.076a.75.75 0 1 0 0 1.5 2.25 2.25 0 1 1-2.25 2.25.75.75 0 0 0-1.5 0A3.75 3.75 0 1 0 13 7.076" fill="currentColor"/>
</svg>
