<svg xmlns="http://www.w3.org/2000/svg" viewBox="0 0 24 24">
  <g clip-path="url(#icon-double-chevron-sideways-clip)"><path d="M10.53 8.53 7.06 12l3.47 3.47a.75.75 0 1 1-1.06 1.06l-3.647-3.646a1.25 1.25 0 0 1 0-1.768L9.47 7.47a.75.75 0 1 1 1.06 1.06m2.94 6.94L16.94 12l-3.47-3.47a.75.75 0 0 1 1.06-1.06l3.647 3.646a1.25 1.25 0 0 1 0 1.768L14.53 16.53a.75.75 0 1 1-1.06-1.06" fill="currentColor"/></g><defs><clipPath id="icon-double-chevron-sideways-clip"><path d="M0 0h24v24H0z"/></clipPath></defs>
</svg>
