<svg xmlns="http://www.w3.org/2000/svg" viewBox="0 0 24 24">
  <g fill-rule="evenodd" clip-path="url(#icon-percentage-clip)" clip-rule="evenodd"><path d="M20.53 3.47a.75.75 0 0 1 0 1.06l-16 16a.75.75 0 0 1-1.06-1.06l16-16a.75.75 0 0 1 1.06 0M6.5 8.5a2 2 0 1 0 0-4 2 2 0 0 0 0 4m11 11a2 2 0 1 0 0-4 2 2 0 0 0 0 4M6.5 10a3.5 3.5 0 1 0 0-7 3.5 3.5 0 0 0 0 7m11 11a3.5 3.5 0 1 0 0-7 3.5 3.5 0 0 0 0 7" fill="currentColor"/></g><defs><clipPath id="icon-percentage-clip"><path d="M0 0h24v24H0z"/></clipPath></defs>
</svg>
