<svg xmlns="http://www.w3.org/2000/svg" viewBox="0 0 24 24">
  <g clip-path="url(#icon-back-market-clip)"><path fill-rule="evenodd" d="M3.69 3h16.62a1.58 1.58 0 0 1 1.581 1.577v14.846A1.58 1.58 0 0 1 20.31 21H3.69a1.579 1.579 0 0 1-1.581-1.577V4.577A1.579 1.579 0 0 1 3.69 3m5.933 14.453h3.262a.1.1 0 0 0 .07-.17l-5.167-5.167a.166.166 0 0 1 0-.233l5.167-5.168a.1.1 0 0 0-.07-.17H9.623a.39.39 0 0 0-.277.116l-5.222 5.222a.166.166 0 0 0 0 .233l5.222 5.222a.39.39 0 0 0 .277.115m10.173-.17-5.168-5.167a.166.166 0 0 1 0-.234l5.168-5.168a.1.1 0 0 0-.071-.17h-3.262a.39.39 0 0 0-.277.116l-5.222 5.222a.166.166 0 0 0 0 .233l5.222 5.223a.39.39 0 0 0 .277.115h3.262a.1.1 0 0 0 .07-.17" clip-rule="evenodd" fill="currentColor"/></g><defs><clipPath id="icon-back-market-clip"><path d="M0 0h24v24H0z"/></clipPath></defs>
</svg>
