<svg xmlns="http://www.w3.org/2000/svg" viewBox="0 0 24 24">
  <g fill-rule="evenodd" clip-path="url(#icon-bluetooth-clip)" clip-rule="evenodd"><path d="M11.083 7.56v3.063L8.917 9.176a.75.75 0 0 0-.833 1.248L10.444 12l-2.36 1.576a.75.75 0 0 0 .833 1.248l2.166-1.447v3.062c0 1.057 1.23 1.637 2.046.965l2.33-1.922a1.25 1.25 0 0 0-.102-2.004L13.145 12l2.212-1.478a1.25 1.25 0 0 0 .102-2.004l-2.33-1.922c-.816-.672-2.046-.092-2.046.965m1.5 3.011v-2.48l1.662 1.37-1.662 1.11m0 5.338v-2.48l1.662 1.11-1.662 1.37" fill="currentColor"/><path d="M5.5 3.25A2.25 2.25 0 0 0 3.25 5.5v13a2.25 2.25 0 0 0 2.25 2.25h13a2.25 2.25 0 0 0 2.25-2.25v-13a2.25 2.25 0 0 0-2.25-2.25h-13M4.75 5.5A.75.75 0 0 1 5.5 4.75h13a.75.75 0 0 1 .75.75v13a.75.75 0 0 1-.75.75h-13a.75.75 0 0 1-.75-.75v-13" fill="currentColor"/></g><defs><clipPath id="icon-bluetooth-clip"><path d="M0 0h24v24H0z"/></clipPath></defs>
</svg>
