<svg xmlns="http://www.w3.org/2000/svg" viewBox="0 0 24 24">
  <g clip-path="url(#icon-list-view1-clip)"><path d="M5.25 5a.5.5 0 0 0-.5.5v2A.5.5 0 0 0 5.25 8h2a.5.5 0 0 0 .5-.5v-2A.5.5 0 0 0 7.25 5h-2m0 5.5a.5.5 0 0 0-.5.5v2a.5.5 0 0 0 .5.5h2a.5.5 0 0 0 .5-.5v-2a.5.5 0 0 0-.5-.5h-2m-.5 6a.5.5 0 0 1 .5-.5h2a.5.5 0 0 1 .5.5v2a.5.5 0 0 1-.5.5h-2a.5.5 0 0 1-.5-.5v-2m5-10.75a.75.75 0 0 0 0 1.5h8.75a.75.75 0 0 0 0-1.5H9.75M9 17.5a.75.75 0 0 1 .75-.75h8.75a.75.75 0 0 1 0 1.5H9.75A.75.75 0 0 1 9 17.5m.75-6.25a.75.75 0 0 0 0 1.5h8.75a.75.75 0 0 0 0-1.5H9.75" fill="currentColor"/></g><defs><clipPath id="icon-list-view1-clip"><path d="M0 0h24v24H0z"/></clipPath></defs>
</svg>
