<svg xmlns="http://www.w3.org/2000/svg" viewBox="0 0 24 24">
  <g clip-path="url(#icon-add-image-clip)"><path d="M19 2a4 4 0 1 1 0 8 4 4 0 0 1 0-8m0 1.5A.5.5 0 0 0 18.5 4v1.5H17a.5.5 0 0 0 0 1h1.5V8a.5.5 0 0 0 1 0V6.5H21a.5.5 0 0 0 0-1h-1.5V4A.5.5 0 0 0 19 3.5" fill="currentColor"/><path d="M2.25 19V7A1.75 1.75 0 0 1 4 5.25h9a.75.75 0 0 1 0 1.5H4A.25.25 0 0 0 3.75 7v12A.25.25 0 0 0 4 19.25h15A.25.25 0 0 0 19.25 19v-7a.75.75 0 0 1 1.5 0v7A1.75 1.75 0 0 1 19 20.75H4A1.75 1.75 0 0 1 2.25 19" fill="currentColor"/><path d="M11 10a2 2 0 1 1-4 0 2 2 0 0 1 4 0m3.274 1.649a1.25 1.25 0 0 1 1.432-.038l.092.067 4.67 3.736a.75.75 0 0 1-.937 1.172l-4.507-3.605-8.526 7.58a.75.75 0 0 1-.996-1.122l8.685-7.72.087-.07" fill="currentColor"/><path d="M6.269 13.653a1.25 1.25 0 0 1 1.452-.021l.09.07 2.627 2.196a.75.75 0 0 1-.962 1.15l-2.461-2.059-3.517 3.127a.75.75 0 0 1-.996-1.12l3.678-3.27.089-.073" fill="currentColor"/></g><defs><clipPath id="icon-add-image-clip"><path d="M0 0h24v24H0z"/></clipPath></defs>
</svg>
