<svg xmlns="http://www.w3.org/2000/svg" viewBox="0 0 24 24">
  <g clip-path="url(#icon-external-link-clip)"><path d="M14.25 3.5A.75.75 0 0 1 15 2.75h5A1.25 1.25 0 0 1 21.25 4v5a.75.75 0 0 1-1.5 0V5.31l-6.22 6.22a.75.75 0 1 1-1.06-1.06l6.22-6.22H15a.75.75 0 0 1-.75-.75" fill="currentColor"/><path d="M5.75 6.5A.75.75 0 0 1 6.5 5.75H12a.75.75 0 0 0 0-1.5H6.5A2.25 2.25 0 0 0 4.25 6.5v11a2.25 2.25 0 0 0 2.25 2.25h11a2.25 2.25 0 0 0 2.25-2.25V12a.75.75 0 0 0-1.5 0v5.5a.75.75 0 0 1-.75.75h-11a.75.75 0 0 1-.75-.75v-11" fill="currentColor"/></g><defs><clipPath id="icon-external-link-clip"><path d="M0 0h24v24H0z"/></clipPath></defs>
</svg>
