<svg xmlns="http://www.w3.org/2000/svg" viewBox="0 0 24 24">
  <g clip-path="url(#icon-video-camera-in-square-filled-clip)"><path fill-rule="evenodd" d="M18 3.25A2.75 2.75 0 0 1 20.75 6v12A2.75 2.75 0 0 1 18 20.75H6A2.75 2.75 0 0 1 3.25 18V6A2.75 2.75 0 0 1 6 3.25h12M7.75 9.146A.75.75 0 0 0 7 9.896v4.677a.75.75 0 0 0 .75.75h5.912a.75.75 0 0 0 .75-.75v-1.14l1.946 1.191a.75.75 0 0 0 1.142-.64v-3.499a.75.75 0 0 0-1.142-.64l-1.946 1.192v-1.14a.75.75 0 0 0-.75-.75H7.75" clip-rule="evenodd" fill="currentColor"/></g><defs><clipPath id="icon-video-camera-in-square-filled-clip"><path d="M0 0h24v24H0z"/></clipPath></defs>
</svg>
