<svg xmlns="http://www.w3.org/2000/svg" viewBox="0 0 24 24">
  <g clip-path="url(#icon-emoji-happy-clip)"><path d="M14.298 13.92a.75.75 0 1 1 1.06 1.06 4.75 4.75 0 0 1-6.716 0 .75.75 0 1 1 1.06-1.06 3.25 3.25 0 0 0 4.596 0M8.5 9a1 1 0 1 1 0 2 1 1 0 0 1 0-2m7.009 0a1 1 0 1 1 0 2 1 1 0 0 1 0-2" fill="currentColor"/><path fill-rule="evenodd" d="M12 2.25c5.385 0 9.75 4.365 9.75 9.75s-4.365 9.75-9.75 9.75S2.25 17.385 2.25 12 6.615 2.25 12 2.25m0 1.5a8.25 8.25 0 1 0 0 16.5 8.25 8.25 0 0 0 0-16.5" clip-rule="evenodd" fill="currentColor"/></g><defs><clipPath id="icon-emoji-happy-clip"><path d="M0 0h24v24H0z"/></clipPath></defs>
</svg>
