<svg xmlns="http://www.w3.org/2000/svg" viewBox="0 0 24 24">
  <g clip-path="url(#icon-cookie-clip)"><path d="M7 15a1 1 0 1 0 0-2 1 1 0 0 0 0 2m7-3.5a1.5 1.5 0 1 1-3 0 1.5 1.5 0 0 1 3 0m-6.25-2a.75.75 0 1 0 0-1.5.75.75 0 0 0 0 1.5m9.75 5.25a.75.75 0 1 1-1.5 0 .75.75 0 0 1 1.5 0m-4.75 2.75a.75.75 0 1 0 0-1.5.75.75 0 0 0 0 1.5" fill="currentColor"/><path fill-rule="evenodd" d="M12.852 3.187a.75.75 0 0 0-.79-.934A.756.756 0 0 0 12 2.25c-5.385 0-9.75 4.365-9.75 9.75s4.365 9.75 9.75 9.75 9.75-4.365 9.75-9.75c0-.02 0-.042-.003-.062a.75.75 0 0 0-.934-.79A3.25 3.25 0 0 1 16.75 8 .75.75 0 0 0 16 7.25a3.25 3.25 0 0 1-3.148-4.063M20 12.75a4.73 4.73 0 0 0 .217-.005 8.25 8.25 0 1 1-8.962-8.962A4.751 4.751 0 0 0 15.3 8.7a4.751 4.751 0 0 0 4.7 4.05" clip-rule="evenodd" fill="currentColor"/><path d="M17.5 4.75a.75.75 0 1 1-1.5 0 .75.75 0 0 1 1.5 0M20 8a1 1 0 1 0 0-2 1 1 0 0 0 0 2" fill="currentColor"/></g><defs><clipPath id="icon-cookie-clip"><path d="M0 0h24v24H0z"/></clipPath></defs>
</svg>
