<svg xmlns="http://www.w3.org/2000/svg" viewBox="0 0 24 24">
  <g clip-path="url(#icon-file-clip)"><path fill-rule="evenodd" d="M2.25 6.5A2.25 2.25 0 0 1 4.5 4.25h4.691a1.25 1.25 0 0 1 1.118.691l1.155 2.309H19.5a2.25 2.25 0 0 1 2.25 2.25v8a2.25 2.25 0 0 1-2.25 2.25h-15a2.25 2.25 0 0 1-2.25-2.25v-11m1.5 0A.75.75 0 0 1 4.5 5.75h4.536l1.155 2.309a1.25 1.25 0 0 0 1.118.691H19.5a.75.75 0 0 1 .75.75v1.263a2.247 2.247 0 0 0-.75-.128h-8.207l-1.14-1.053A1.25 1.25 0 0 0 9.304 9.25H4.5a2.246 2.246 0 0 0-.75.128V6.5m0 5v6a.75.75 0 0 0 .75.75h15a.75.75 0 0 0 .75-.75v-4.615a.75.75 0 0 0-.75-.75h-8.304a1.25 1.25 0 0 1-.848-.332L9.207 10.75H4.5a.75.75 0 0 0-.75.75" clip-rule="evenodd" fill="currentColor"/></g><defs><clipPath id="icon-file-clip"><path d="M0 0h24v24H0z"/></clipPath></defs>
</svg>
