<svg xmlns="http://www.w3.org/2000/svg" viewBox="0 0 24 24">
  <g clip-path="url(#icon-attachment-clip)"><path fill-rule="evenodd" d="M10.75 3.75a2.5 2.5 0 0 0-2.5 2.5V16.5a3.75 3.75 0 1 0 7.5 0v-9a.75.75 0 0 1 1.5 0v9a5.25 5.25 0 1 1-10.5 0V6.242a4 4 0 0 1 8 .008V16.5a2.75 2.75 0 1 1-5.5 0v-9a.75.75 0 0 1 1.5 0v9a1.25 1.25 0 1 0 2.5 0V6.25a2.5 2.5 0 0 0-2.5-2.5" clip-rule="evenodd" fill="currentColor"/></g><defs><clipPath id="icon-attachment-clip"><path d="M0 0h24v24H0z"/></clipPath></defs>
</svg>
