<svg xmlns="http://www.w3.org/2000/svg" viewBox="0 0 24 24">
  <path d="M12 10.5c.817 0 1.5-.683 1.5-1.5S12.817 7.5 12 7.5A1.515 1.515 0 0 0 10.5 9c0 .817.683 1.5 1.5 1.5" fill="currentColor"/><path fill-rule="evenodd" d="M6.25 9A5.73 5.73 0 0 1 12 3.25 5.73 5.73 0 0 1 17.75 9c0 .789-.271 1.623-.64 2.407-.372.794-.874 1.598-1.4 2.342-1.052 1.488-2.243 2.798-2.82 3.408a1.223 1.223 0 0 1-1.78 0c-.577-.61-1.768-1.92-2.82-3.408-.526-.744-1.028-1.548-1.4-2.342C6.52 10.623 6.25 9.789 6.25 9M12 4.75A4.23 4.23 0 0 0 7.75 9c0 .47.17 1.071.497 1.77.322.686.772 1.411 1.268 2.113.885 1.253 1.885 2.384 2.485 3.03.6-.646 1.6-1.777 2.485-3.03.496-.702.946-1.427 1.268-2.114C16.081 10.071 16.25 9.47 16.25 9A4.23 4.23 0 0 0 12 4.75" clip-rule="evenodd" fill="currentColor"/><path d="M14.5 19.75c0 .68-1.138 1.25-2.5 1.25s-2.5-.57-2.5-1.25 1.138-1.25 2.5-1.25 2.5.57 2.5 1.25" fill="currentColor"/>
</svg>
