<svg xmlns="http://www.w3.org/2000/svg" viewBox="0 0 24 24">
  <path d="m9.944 17-.728-2.38h-3.64L4.848 17H2.566L6.094 6.962h2.59L12.226 17H9.944m-1.96-6.482a52.05 52.05 0 0 0-.182-.602 73.839 73.839 0 0 1-.224-.742 16.122 16.122 0 0 1-.182-.658 16.163 16.163 0 0 1-.196.7A43.279 43.279 0 0 1 6.976 10a7.187 7.187 0 0 1-.154.518l-.714 2.324h2.604l-.728-2.324m7.734 6.622c-.597 0-1.11-.159-1.54-.476-.429-.327-.756-.784-.98-1.372-.224-.597-.336-1.293-.336-2.086 0-1.307.266-2.296.798-2.968.532-.681 1.242-1.022 2.128-1.022A2.679 2.679 0 0 1 16.74 9.37a2.27 2.27 0 0 1 .728.392A2.815 2.815 0 0 1 18 10.336h.056l.182-.98h1.764v5.222c0 .317.056.532.168.644a.585.585 0 0 0 .406.168 1.05 1.05 0 0 0 .224-.028 8.351 8.351 0 0 0 .182-.042v1.638a.947.947 0 0 1-.238.084 3.615 3.615 0 0 1-.364.07 2.229 2.229 0 0 1-.336.028c-.466 0-.844-.084-1.134-.252-.289-.168-.513-.467-.672-.896h-.14a2.624 2.624 0 0 1-1.344.994 3.267 3.267 0 0 1-1.036.154m.77-1.638c.383 0 .686-.08.91-.238.234-.159.402-.401.504-.728.103-.336.154-.756.154-1.26v-.084c0-.747-.116-1.311-.35-1.694-.224-.392-.639-.588-1.246-.588-.494 0-.863.196-1.106.588-.242.392-.364.966-.364 1.722 0 .747.122 1.316.364 1.708.243.383.621.574 1.134.574" fill="currentColor"/>
</svg>
