<svg xmlns="http://www.w3.org/2000/svg" viewBox="0 0 24 24">
  <g clip-path="url(#icon-tablet-clip)"><path d="M12 19a1 1 0 1 0 0-2 1 1 0 0 0 0 2" fill="currentColor"/><path fill-rule="evenodd" d="M3.25 5.5A3.25 3.25 0 0 1 6.5 2.25h11a3.25 3.25 0 0 1 3.25 3.25v13a3.25 3.25 0 0 1-3.25 3.25h-11a3.25 3.25 0 0 1-3.25-3.25v-13M6.5 3.75A1.75 1.75 0 0 0 4.75 5.5v13a1.75 1.75 0 0 0 1.75 1.75h11a1.75 1.75 0 0 0 1.75-1.75v-13a1.75 1.75 0 0 0-1.75-1.75h-11" clip-rule="evenodd" fill="currentColor"/></g><defs><clipPath id="icon-tablet-clip"><path d="M0 0h24v24H0z"/></clipPath></defs>
</svg>
