<svg xmlns="http://www.w3.org/2000/svg" viewBox="0 0 24 24">
  <path fill-rule="evenodd" d="M3.75 12a8.25 8.25 0 1 1 10.75 7.865l.001-3.496c1.624-.934 2.75-2.724 2.75-4.57 0-2.441-1.683-3.993-2.628-4.677a1.162 1.162 0 0 0-1.263-.077 1.213 1.213 0 0 0-.61 1.063v3.38L12 12.239l-.75-.75v-3.38a1.213 1.213 0 0 0-.61-1.063 1.162 1.162 0 0 0-1.263.077C8.432 7.806 6.75 9.358 6.75 11.8c0 1.846 1.126 3.636 2.749 4.57l.002 3.496A8.254 8.254 0 0 1 3.75 12m7.251 8.19a8.32 8.32 0 0 0 1.998 0l.002-3.957a1.286 1.286 0 0 1 .678-1.123c1.243-.678 2.071-2.024 2.071-3.31 0-1.375-.769-2.397-1.5-3.054v2.846a1.25 1.25 0 0 1-.366.884l-1 1a1.25 1.25 0 0 1-1.768 0l-1-1a1.25 1.25 0 0 1-.366-.884V8.746c-.73.657-1.5 1.679-1.5 3.053 0 1.287.828 2.633 2.071 3.312A1.286 1.286 0 0 1 11 16.233v3.957m1-17.94c-5.385 0-9.75 4.365-9.75 9.75s4.365 9.75 9.75 9.75 9.75-4.365 9.75-9.75S17.385 2.25 12 2.25" clip-rule="evenodd" fill="currentColor"/>
</svg>
