<svg xmlns="http://www.w3.org/2000/svg" viewBox="0 0 24 24">
  <path d="M14.712 9.288a1.48 1.48 0 1 0 2.094-2.094 1.48 1.48 0 0 0-2.094 2.094" fill="currentColor"/><path fill-rule="evenodd" d="m9.803 16.605.27 2.973a1.25 1.25 0 0 0 1.574 1.093l.877-.24a4.75 4.75 0 0 0 3.408-3.65l.527-2.634.012-.009c1.355-.98 2.677-2.261 3.491-3.88.826-1.64 1.108-3.59.43-5.829a1.24 1.24 0 0 0-.821-.821c-2.24-.679-4.189-.396-5.83.43-1.618.814-2.899 2.136-3.88 3.491L9.853 7.541 7.219 8.068a4.75 4.75 0 0 0-3.65 3.408l-.24.877a1.25 1.25 0 0 0 1.093 1.574l2.973.27 2.408 2.408m9.194-11.602c-1.799-.511-3.307-.267-4.581.374-1.328.669-2.44 1.789-3.34 3.031-.896 1.24-1.555 2.562-1.99 3.582a20.046 20.046 0 0 0-.482 1.237L8.59 13.27l2.14 2.14.042-.015a20.067 20.067 0 0 0 1.237-.481c1.02-.436 2.343-1.094 3.582-1.99 1.243-.9 2.363-2.012 3.031-3.34.642-1.275.886-2.783.375-4.581M11.326 16.79l.214 2.354.59-.16a3.25 3.25 0 0 0 2.331-2.499l.246-1.226a22.027 22.027 0 0 1-3.381 1.53m-3.812-7.25L8.74 9.293a22.058 22.058 0 0 0-1.531 3.381L4.855 12.46l.16-.59a3.25 3.25 0 0 1 2.499-2.33" clip-rule="evenodd" fill="currentColor"/><path fill-rule="evenodd" d="M5.017 15.83a2.23 2.23 0 1 1 3.154 3.153c-.349.349-.936.624-1.433.825a18.114 18.114 0 0 1-1.57.537 1.213 1.213 0 0 1-1.513-1.512 18.105 18.105 0 0 1 .537-1.57c.201-.498.476-1.085.825-1.434m2.093 1.06a.73.73 0 0 0-1.032 0c-.108.107-.289.423-.495.934a14.292 14.292 0 0 0-.332.925 14.272 14.272 0 0 0 .925-.332c.511-.206.827-.387.934-.494a.73.73 0 0 0 0-1.033" clip-rule="evenodd" fill="currentColor"/>
</svg>
