<svg xmlns="http://www.w3.org/2000/svg" viewBox="0 0 24 24">
  <path fill-rule="evenodd" d="M5 3.75A1.25 1.25 0 0 0 3.75 5v5A1.25 1.25 0 0 0 5 11.25h5A1.25 1.25 0 0 0 11.25 10V5A1.25 1.25 0 0 0 10 3.75H5m.25 6v-4.5h4.5v4.5h-4.5m8.75-6A1.25 1.25 0 0 0 12.75 5v5A1.25 1.25 0 0 0 14 11.25h5A1.25 1.25 0 0 0 20.25 10V5A1.25 1.25 0 0 0 19 3.75h-5m.25 6v-4.5h4.5v4.5h-4.5M3.75 14A1.25 1.25 0 0 1 5 12.75h5A1.25 1.25 0 0 1 11.25 14v5A1.25 1.25 0 0 1 10 20.25H5A1.25 1.25 0 0 1 3.75 19v-5m1.5.25v4.5h4.5v-4.5h-4.5m8.75-1.5A1.25 1.25 0 0 0 12.75 14v5A1.25 1.25 0 0 0 14 20.25h5A1.25 1.25 0 0 0 20.25 19v-5A1.25 1.25 0 0 0 19 12.75h-5m.25 6v-4.5h4.5v4.5h-4.5" clip-rule="evenodd" fill="currentColor"/>
</svg>
