<svg xmlns="http://www.w3.org/2000/svg" viewBox="0 0 24 24">
  <g clip-path="url(#icon-arrow-up-right-in-circle-clip)"><path d="M12 20.25a8.25 8.25 0 1 0 0-16.5 8.25 8.25 0 0 0 0 16.5m0 1.5c-5.385 0-9.75-4.365-9.75-9.75S6.615 2.25 12 2.25s9.75 4.365 9.75 9.75-4.365 9.75-9.75 9.75" fill="currentColor"/><path d="M15.53 9.53a.75.75 0 0 0-1.06-1.06l-6 6a.75.75 0 0 0 1.06 1.06l6-6" fill="currentColor"/><path d="M14.614 13.707a.75.75 0 0 0 1.5 0V9.136a1.25 1.25 0 0 0-1.25-1.25h-4.571a.75.75 0 1 0 0 1.5h4.321v4.321" fill="currentColor"/><path d="M16.114 13.707a.75.75 0 0 1-1.5 0v-3.26L9.53 15.53a.75.75 0 1 1-1.06-1.06l5.084-5.084h-3.261a.75.75 0 1 1 0-1.5h4.571a1.25 1.25 0 0 1 1.25 1.25v4.571" fill="currentColor"/></g><defs><clipPath id="icon-arrow-up-right-in-circle-clip"><path d="M0 0h24v24H0z"/></clipPath></defs>
</svg>
