<svg xmlns="http://www.w3.org/2000/svg" viewBox="0 0 24 24">
  <g clip-path="url(#icon-express-replacement-clip)"><path d="M12 6.75H3a.75.75 0 0 1 0-1.5h17.5a1.25 1.25 0 0 1 1.25 1.25v11a1.25 1.25 0 0 1-1.25 1.25h-14a1.25 1.25 0 0 1-1.25-1.25V12a.75.75 0 0 1 1.5 0v5.25h13.5V6.75H16v3.8a.3.3 0 0 1-.415.277l-1.47-.612a.3.3 0 0 0-.23 0l-1.47.612A.3.3 0 0 1 12 10.55v-3.8" fill="currentColor"/><path d="M3.25 9A.75.75 0 0 1 4 8.25h4a.75.75 0 0 1 0 1.5H4A.75.75 0 0 1 3.25 9" fill="currentColor"/></g><defs><clipPath id="icon-express-replacement-clip"><path d="M0 0h24v24H0z"/></clipPath></defs>
</svg>
