<svg xmlns="http://www.w3.org/2000/svg" viewBox="0 0 24 24">
  <g clip-path="url(#icon-scratches-clip)"><path d="M12.53 3.47a.75.75 0 1 0-1.06 1.06l8 8a.75.75 0 1 0 1.06-1.06l-8-8m-8.06 1a.75.75 0 0 1 1.06 0l3 3a.75.75 0 0 1-1.06 1.06l-3-3a.75.75 0 0 1 0-1.06m5.25 5.25a.75.75 0 0 1 1.06 0l8.75 8.75a.75.75 0 1 1-1.06 1.06l-8.75-8.75a.75.75 0 0 1 0-1.06m-6.25 1.75a.75.75 0 0 1 1.06 0l8 8a.75.75 0 1 1-1.06 1.06l-8-8a.75.75 0 0 1 0-1.06" fill="currentColor"/></g><defs><clipPath id="icon-scratches-clip"><path d="M0 0h24v24H0z"/></clipPath></defs>
</svg>
