<svg xmlns="http://www.w3.org/2000/svg" viewBox="0 0 24 24">
  <path fill-rule="evenodd" d="M19.638 2.573c.989-.346 1.94.604 1.593 1.592l-2.74 7.83c-.374 1.068-1.863 1.13-2.322.095l-1.37-3.084-3.085-1.371c-1.034-.46-.974-1.948.095-2.322l7.83-2.74m.006 1.587L12.9 6.52l2.77 1.232a.75.75 0 0 1 .382.38l1.231 2.772 2.36-6.744M8.116 8.937c0-.55-.188-1.03-.532-1.374a1.72 1.72 0 0 0-1.218-.5 1.719 1.719 0 0 0-1.218.5C4.804 7.908 4.616 8.388 4.616 8.937v4.25l-1.35 1.8C2.954 15.404 2.81 15.945 2.8 16.441c-.008.49.117 1.071.514 1.503a.67.67 0 0 0 .022.024l2.49 2.489c.347.375.876.73 1.54.73h3c1.947 0 3.75-1.324 3.75-3.25v-4.5c0-.55-.187-1.03-.532-1.374a1.72 1.72 0 0 0-1.63-.451 1.72 1.72 0 0 0-1.588-1.05 1.728 1.728 0 0 0-1 .317 1.728 1.728 0 0 0-1.25-.299V8.937m0 3.5v1-1m0 0c0-.2.063-.282.093-.313a.22.22 0 0 1 .157-.062.22.22 0 0 1 .158.062c.03.03.092.113.092.313v1a.75.75 0 0 0 1.5 0v-1c0-.2.063-.282.093-.313a.22.22 0 0 1 .157-.062.22.22 0 0 1 .158.062c.03.03.092.113.092.313v1.501a.75.75 0 0 0 1.5 0v-.509c.002-.194.063-.275.093-.305a.22.22 0 0 1 .157-.062.22.22 0 0 1 .158.062c.03.03.092.113.092.313v4.5c0 .853-.863 1.75-2.25 1.75h-3c-.107 0-.269-.062-.446-.256a.684.684 0 0 0-.023-.024l-2.484-2.484c-.05-.06-.117-.212-.113-.457.004-.251.082-.467.166-.579l.15-.2v.25a.75.75 0 0 0 1.5 0v-7c0-.2.063-.283.093-.313a.219.219 0 0 1 .157-.062.22.22 0 0 1 .157.062c.03.03.093.114.093.314v4.5a.752.752 0 0 0 .75.75.75.75 0 0 0 .75-.75" clip-rule="evenodd" fill="currentColor"/>
</svg>
