<svg xmlns="http://www.w3.org/2000/svg" viewBox="0 0 24 24">
  <path d="M6.5 2.75A2.25 2.25 0 0 0 4.25 5v13a2.25 2.25 0 0 0 2.25 2.25h5a.75.75 0 0 0 0-1.5h-5A.75.75 0 0 1 5.75 18V5A.75.75 0 0 1 6.5 4.25h11A.75.75 0 0 1 18.25 5v7a.75.75 0 0 0 1.5 0V5a2.25 2.25 0 0 0-2.25-2.25h-11" fill="currentColor"/><path d="M9.53 5.47a.75.75 0 0 0-1.06 0l-1.5 1.5a.75.75 0 0 0 1.06 1.06l.22-.22v2.38L8.03 9.97a.75.75 0 0 0-1.06 1.06l1.5 1.5a.75.75 0 0 0 1.06 0l1.5-1.5a.75.75 0 1 0-1.06-1.06l-.22.22V7.81l.22.22a.75.75 0 1 0 1.06-1.06l-1.5-1.5" fill="currentColor"/><path fill-rule="evenodd" d="M21 17.5a4 4 0 1 1-8 0 4 4 0 0 1 8 0m-2.146-1.354a.5.5 0 0 1 0 .708l-2 2a.5.5 0 0 1-.708 0l-1-1a.5.5 0 0 1 .708-.708l.646.647 1.646-1.647a.5.5 0 0 1 .708 0" clip-rule="evenodd" fill="currentColor"/><path d="M12.25 6A.75.75 0 0 1 13 5.25h3.5a.75.75 0 0 1 0 1.5H13A.75.75 0 0 1 12.25 6m0 3A.75.75 0 0 1 13 8.25h3.5a.75.75 0 0 1 0 1.5H13A.75.75 0 0 1 12.25 9m0 3A.75.75 0 0 1 13 11.25h3.5a.75.75 0 0 1 0 1.5H13A.75.75 0 0 1 12.25 12" fill="currentColor"/>
</svg>
