<svg xmlns="http://www.w3.org/2000/svg" viewBox="0 0 24 24">
  <g clip-path="url(#icon-arrow-up-left-in-circle-clip)"><path d="M20.25 12a8.25 8.25 0 1 0-16.5 0 8.25 8.25 0 0 0 16.5 0m1.5 0c0 5.385-4.365 9.75-9.75 9.75S2.25 17.385 2.25 12 6.615 2.25 12 2.25s9.75 4.365 9.75 9.75" fill="currentColor"/><path d="M9.53 8.47a.75.75 0 0 0-1.06 1.06l6 6a.75.75 0 0 0 1.06-1.06l-6-6" fill="currentColor"/><path d="M13.707 9.386a.75.75 0 0 0 0-1.5H9.136a1.25 1.25 0 0 0-1.25 1.25v4.571a.75.75 0 1 0 1.5 0V9.386h4.321" fill="currentColor"/><path d="M13.707 7.886a.75.75 0 0 1 0 1.5h-3.26l5.083 5.084a.75.75 0 1 1-1.06 1.06l-5.084-5.084v3.261a.75.75 0 1 1-1.5 0V9.136a1.25 1.25 0 0 1 1.25-1.25h4.571" fill="currentColor"/></g><defs><clipPath id="icon-arrow-up-left-in-circle-clip"><path d="M0 0h24v24H0z"/></clipPath></defs>
</svg>
