<svg xmlns="http://www.w3.org/2000/svg" viewBox="0 0 24 24">
  <path d="M17.53 9.03a.75.75 0 0 0-1.06-1.06L10 14.44l-2.47-2.47a.75.75 0 0 0-1.06 1.06l2.646 2.647a1.25 1.25 0 0 0 1.768 0L17.53 9.03" fill="currentColor"/><path fill-rule="evenodd" d="M5.5 3.25A2.25 2.25 0 0 0 3.25 5.5v13a2.25 2.25 0 0 0 2.25 2.25h13a2.25 2.25 0 0 0 2.25-2.25v-13a2.25 2.25 0 0 0-2.25-2.25h-13M4.75 5.5A.75.75 0 0 1 5.5 4.75h13a.75.75 0 0 1 .75.75v13a.75.75 0 0 1-.75.75h-13a.75.75 0 0 1-.75-.75v-13" clip-rule="evenodd" fill="currentColor"/>
</svg>
