<svg xmlns="http://www.w3.org/2000/svg" viewBox="0 0 24 24">
  <path d="M18 16.85v1.5h-4.515l-4.863 3.435A.902.902 0 0 1 7.2 21.05v-2.7H6v-1.5h1.9a.8.8 0 0 1 .8.8v2.243l3.92-2.768.129-.091a1 1 0 0 1 .578-.184H18m2.1-2.1v-8.4c0-1.16-.942-2.1-2.1-2.1H6a2.101 2.101 0 0 0-2.09 1.886L3.9 6.35v8.4a2.1 2.1 0 0 0 2.1 2.1v1.5a3.6 3.6 0 0 1-3.595-3.415L2.4 14.75v-8.4A3.6 3.6 0 0 1 6 2.75h12a3.6 3.6 0 0 1 3.6 3.6v8.4l-.005.185A3.601 3.601 0 0 1 18 18.35v-1.5a2.1 2.1 0 0 0 2.1-2.1" fill="currentColor"/><path d="M9.97 7.253a.75.75 0 1 1 1.06 1.061l-2.47 2.47 2.47 2.47a.75.75 0 1 1-1.06 1.06l-3-3a.75.75 0 0 1 0-1.06l3-3m4.06-.001a.75.75 0 1 0-1.06 1.061l2.47 2.47-2.47 2.47a.75.75 0 1 0 1.06 1.06l3-3a.75.75 0 0 0 0-1.06l-3-3" fill="currentColor"/>
</svg>
