<svg xmlns="http://www.w3.org/2000/svg" viewBox="0 0 24 24">
  <path d="M6 8.25a.75.75 0 0 0 0 1.5h.25v4.5H6a.75.75 0 0 0 0 1.5h2a.75.75 0 0 0 0-1.5H7.75v-4.5H8a.75.75 0 0 0 0-1.5H6" fill="currentColor"/><path fill-rule="evenodd" d="M4.5 5.25A2.25 2.25 0 0 0 2.25 7.5v9a2.25 2.25 0 0 0 2.25 2.25h15a2.25 2.25 0 0 0 2.25-2.25v-9a2.25 2.25 0 0 0-2.25-2.25h-15M3.75 7.5A.75.75 0 0 1 4.5 6.75h15a.75.75 0 0 1 .75.75v9a.75.75 0 0 1-.75.75h-15a.75.75 0 0 1-.75-.75v-9" clip-rule="evenodd" fill="currentColor"/>
</svg>
