<svg xmlns="http://www.w3.org/2000/svg" viewBox="0 0 24 24">
  <g clip-path="url(#icon-laptop-clip)"><path fill-rule="evenodd" d="M3.25 6.5A2.25 2.25 0 0 1 5.5 4.25h13a2.25 2.25 0 0 1 2.25 2.25v8a2.241 2.241 0 0 1-.23.994 2.25 2.25 0 0 1-1.02 4.256h-15a2.25 2.25 0 0 1-1.02-4.256A2.24 2.24 0 0 1 3.25 14.5v-8m2.25 8.75h13a.75.75 0 0 0 .75-.75v-8a.75.75 0 0 0-.75-.75h-13A.75.75 0 0 0 4.75 6.5v8a.75.75 0 0 0 .75.75m13 1.5h-14a.75.75 0 0 0 0 1.5h15a.75.75 0 0 0 0-1.5h-1" clip-rule="evenodd" fill="currentColor"/></g><defs><clipPath id="icon-laptop-clip"><path d="M0 0h24v24H0z"/></clipPath></defs>
</svg>
