<svg xmlns="http://www.w3.org/2000/svg" viewBox="0 0 24 24">
  <g clip-path="url(#icon-sos-clip)"><path d="M3.75 9a1.25 1.25 0 1 1 2.5 0 .75.75 0 0 0 1.5 0 2.75 2.75 0 0 0-5.5 0v.114a3.25 3.25 0 0 0 1.527 2.756l1.65 1.032a1.75 1.75 0 0 1 .823 1.484V15a1.25 1.25 0 1 1-2.5 0 .75.75 0 0 0-1.5 0 2.75 2.75 0 1 0 5.5 0v-.614a3.25 3.25 0 0 0-1.527-2.756l-1.65-1.032A1.75 1.75 0 0 1 3.75 9.114V9m14 0a1.25 1.25 0 1 1 2.5 0 .75.75 0 0 0 1.5 0 2.75 2.75 0 1 0-5.5 0v.114a3.25 3.25 0 0 0 1.527 2.756l1.65 1.032a1.75 1.75 0 0 1 .823 1.484V15a1.25 1.25 0 1 1-2.5 0 .75.75 0 0 0-1.5 0 2.75 2.75 0 1 0 5.5 0v-.614a3.25 3.25 0 0 0-1.527-2.756l-1.65-1.032a1.75 1.75 0 0 1-.823-1.484V9" fill="currentColor"/><path fill-rule="evenodd" d="M14.75 9v6a2.75 2.75 0 1 1-5.5 0V9a2.75 2.75 0 1 1 5.5 0M12 7.75A1.25 1.25 0 0 0 10.75 9v6a1.25 1.25 0 1 0 2.5 0V9A1.25 1.25 0 0 0 12 7.75" clip-rule="evenodd" fill="currentColor"/></g><defs><clipPath id="icon-sos-clip"><path d="M0 0h24v24H0z"/></clipPath></defs>
</svg>
