<svg xmlns="http://www.w3.org/2000/svg" viewBox="0 0 24 24">
  <g clip-path="url(#icon-trash-clip)"><path d="M14.65 8.75a.75.75 0 0 0-1.5 0v9a.75.75 0 1 0 1.5 0v-9M9.9 8a.75.75 0 0 1 .75.75v9a.75.75 0 0 1-1.5 0v-9A.75.75 0 0 1 9.9 8" fill="currentColor"/><path fill-rule="evenodd" d="M9.166 5a.757.757 0 0 1 .006-.093 2.75 2.75 0 0 1 5.458 0A.767.767 0 0 1 14.635 5H19.6a.75.75 0 1 1 0 1.5h-.948v12.75a2.25 2.25 0 0 1-2.25 2.25h-9a2.25 2.25 0 0 1-2.25-2.25V6.5H4.4a.75.75 0 1 1 0-1.5h4.765m3.96 0a1.25 1.25 0 0 0-2.45 0h2.45M6.65 6.5h10.5v12.75A.75.75 0 0 1 16.4 20h-9a.75.75 0 0 1-.75-.75V6.5" clip-rule="evenodd" fill="currentColor"/></g><defs><clipPath id="icon-trash-clip"><path d="M0 0h24v24H0z"/></clipPath></defs>
</svg>
