<svg xmlns="http://www.w3.org/2000/svg" viewBox="0 0 24 24">
  <path d="M7.055 14.049a2.824 2.824 0 0 0 .668.02 4.75 4.75 0 0 0 7.84 1.073.75.75 0 1 0-1.125-.992 3.25 3.25 0 0 1-5.339-.683A2.436 2.436 0 0 0 9.6 12.822c.203-.387.089-.897-.347-1.083a.75.75 0 0 0-.98.382S8.26 12.15 8.24 12.181a.932.932 0 0 1-.167.192C7.936 12.491 7.7 12.627 7.27 12.564a.75.75 0 0 0-.214 1.485M14.5 11c.552 0 1-.56 1-1.25s-.448-1.25-1-1.25-1 .56-1 1.25.448 1.25 1 1.25M7.883 8.912a2.792 2.792 0 0 0-.2.06c-.411.14-.684.576-.505 1.013a.75.75 0 0 0 .977.41l.105-.032a1.528 1.528 0 0 1 .33-.048c.254-.008.49.053.675.268a.75.75 0 0 0 1.136-.98C9.825 8.935 9.08 8.8 8.543 8.816a3.028 3.028 0 0 0-.66.097" fill="currentColor"/><path fill-rule="evenodd" d="M2.25 12c0-5.385 4.365-9.75 9.75-9.75s9.75 4.365 9.75 9.75-4.365 9.75-9.75 9.75S2.25 17.385 2.25 12M12 3.75a8.25 8.25 0 1 0 0 16.5 8.25 8.25 0 0 0 0-16.5" clip-rule="evenodd" fill="currentColor"/>
</svg>
