<svg xmlns="http://www.w3.org/2000/svg" viewBox="0 0 24 24">
  <g clip-path="url(#icon-speaker-in-square-filled-clip)"><path fill-rule="evenodd" d="M18 3.25A2.75 2.75 0 0 1 20.75 6v12A2.75 2.75 0 0 1 18 20.75H6A2.75 2.75 0 0 1 3.25 18V6A2.75 2.75 0 0 1 6 3.25h12m-5.5 5.476a.5.5 0 0 0-.799-.4l-2.735 2.036a.5.5 0 0 1-.298.1H7.5a.5.5 0 0 0-.5.5v2.035a.5.5 0 0 0 .5.5h1.168a.5.5 0 0 1 .298.1l2.735 2.038a.5.5 0 0 0 .799-.402V8.726m3.773.138a.75.75 0 0 0-1.05 1.073 2.848 2.848 0 0 1 .86 2.043 2.85 2.85 0 0 1-.86 2.043.75.75 0 0 0 1.05 1.073 4.351 4.351 0 0 0 1.31-3.117 4.349 4.349 0 0 0-1.31-3.115" clip-rule="evenodd" fill="currentColor"/></g><defs><clipPath id="icon-speaker-in-square-filled-clip"><path d="M0 0h24v24H0z"/></clipPath></defs>
</svg>
