<svg xmlns="http://www.w3.org/2000/svg" viewBox="0 0 24 24">
  <path d="M8.288 7.763a.75.75 0 0 1 .95-.474L12 8.209l2.763-.92a.75.75 0 0 1 .474 1.423L12.75 9.54v1.26l1.901 3.327a.75.75 0 0 1-1.302.744L12 12.512l-1.349 2.36a.75.75 0 1 1-1.302-.744L11.25 10.8V9.54L8.763 8.71a.75.75 0 0 1-.475-.948" fill="currentColor"/><path d="M11.293 7.207a1 1 0 1 0 1.414-1.414 1 1 0 0 0-1.414 1.414" fill="currentColor"/><path fill-rule="evenodd" d="M4.25 18.5v-13A2.25 2.25 0 0 1 6.5 3.25h12a1.25 1.25 0 0 1 1.25 1.25V17A.75.75 0 0 1 19 17.75H6.5a.75.75 0 0 0 0 1.5H19a.75.75 0 0 1 0 1.5H6.5a2.25 2.25 0 0 1-2.25-2.25m1.5-13A.75.75 0 0 1 6.5 4.75h11.75v11.5H6.5a2.247 2.247 0 0 0-.75.128V5.5" clip-rule="evenodd" fill="currentColor"/>
</svg>
