<svg xmlns="http://www.w3.org/2000/svg" viewBox="0 0 24 24">
  <path fill-rule="evenodd" d="M5.5 2.25A1.25 1.25 0 0 0 4.25 3.5v17a1.25 1.25 0 0 0 1.25 1.25h9.293a1.25 1.25 0 0 0 .884-.366l3.707-3.707a1.25 1.25 0 0 0 .366-.884V3.5a1.25 1.25 0 0 0-1.25-1.25h-13m.25 18V3.75h12.5v11.53h-3.717a1.25 1.25 0 0 0-1.25 1.25v3.72H5.75m9.033-.094 3.377-3.376h-3.377v3.376" clip-rule="evenodd" fill="currentColor"/><path d="M15.645 5.356a1.21 1.21 0 0 0-1.714 0l-5.24 5.25a.3.3 0 0 0 0 .426l1.29 1.293a.3.3 0 0 0 .424 0l5.24-5.251a1.216 1.216 0 0 0 0-1.718M7.838 11.58l-.792 1.984a.3.3 0 0 0 .39.39l1.98-.793a.2.2 0 0 0 .067-.327l-1.318-1.32a.2.2 0 0 0-.327.067" fill="currentColor"/>
</svg>
