<svg xmlns="http://www.w3.org/2000/svg" viewBox="0 0 24 24">
  <path fill-rule="evenodd" d="M13.5 5.25A2.25 2.25 0 0 1 15.177 9a2.25 2.25 0 0 1-2.427 3.621V13.5A2.25 2.25 0 1 1 8.823 12a2.25 2.25 0 0 1 0-3A2.25 2.25 0 0 1 10.5 5.25h3m-.53 5.78a.75.75 0 1 1 1.06-1.06.75.75 0 0 1-1.06 1.06m-2.47 1.72h.75v.75a.75.75 0 1 1-.75-.75m.75-4.5H10.5a.75.75 0 1 1 0-1.5h.75v1.5M9.97 9.97a.75.75 0 0 1 .53-.22h.75v1.5H10.5a.75.75 0 0 1-.53-1.28m2.78-1.72h.75a.75.75 0 1 0 0-1.5h-.75v1.5" clip-rule="evenodd" fill="currentColor"/><path fill-rule="evenodd" d="M4.25 5.5v13a2.25 2.25 0 0 0 2.25 2.25H19a.75.75 0 0 0 0-1.5H6.5a.75.75 0 0 1 0-1.5H19A.75.75 0 0 0 19.75 17V4.5a1.25 1.25 0 0 0-1.25-1.25h-12A2.25 2.25 0 0 0 4.25 5.5M6.5 4.75A.75.75 0 0 0 5.75 5.5v10.878A2.247 2.247 0 0 1 6.5 16.25h11.75V4.75H6.5" clip-rule="evenodd" fill="currentColor"/>
</svg>
