<svg xmlns="http://www.w3.org/2000/svg" viewBox="0 0 24 24">
  <path fill-rule="evenodd" d="M3.25 4.5A1.25 1.25 0 0 1 4.5 3.25h4A1.25 1.25 0 0 1 9.75 4.5v15a1.25 1.25 0 0 1-1.25 1.25h-4a1.25 1.25 0 0 1-1.25-1.25v-15m1.5.25v14.5h3.5V4.75h-3.5m9.5-.25a1.25 1.25 0 0 1 1.25-1.25h4a1.25 1.25 0 0 1 1.25 1.25v15a1.25 1.25 0 0 1-1.25 1.25h-4a1.25 1.25 0 0 1-1.25-1.25v-15m1.5.25v14.5h3.5V4.75h-3.5" clip-rule="evenodd" fill="currentColor"/><path d="M12.75 4a.75.75 0 0 0-1.5 0v.889a.75.75 0 0 0 1.5 0V4m0 4.444a.75.75 0 0 0-1.5 0v1.778a.75.75 0 0 0 1.5 0V8.444m0 5.334a.75.75 0 0 0-1.5 0v1.778a.75.75 0 0 0 1.5 0v-1.778m0 5.333a.75.75 0 0 0-1.5 0V20a.75.75 0 0 0 1.5 0v-.889" fill="currentColor"/>
</svg>
