<svg xmlns="http://www.w3.org/2000/svg" viewBox="0 0 24 24">
  <g clip-path="url(#icon-arrow-right-in-circle-filled-clip)"><path d="M18.894 18.894c-3.807 3.808-9.98 3.808-13.788 0-3.808-3.807-3.808-9.98 0-13.788 3.807-3.808 9.98-3.808 13.788 0 3.808 3.807 3.808 9.98 0 13.788m-1.96-6.01a1.25 1.25 0 0 0 0-1.768l-3.232-3.232a.75.75 0 0 0-1.06 1.06l2.305 2.306h-7.19a.75.75 0 1 0 0 1.5h7.19l-2.305 2.306a.75.75 0 0 0 1.06 1.06l3.233-3.232" fill="currentColor"/></g><defs><clipPath id="icon-arrow-right-in-circle-filled-clip"><path d="M0 0h24v24H0z"/></clipPath></defs>
</svg>
