<svg xmlns="http://www.w3.org/2000/svg" viewBox="0 0 24 24">
  <path fill-rule="evenodd" d="M15.75 3a.75.75 0 1 0-1.5 0v.545a.75.75 0 0 0 1.5 0V3m-4.583 1.106a.75.75 0 1 0-1.061 1.06l.545.546a.75.75 0 0 0 1.061-1.06l-.545-.546m8.727 1.06a.75.75 0 0 0-1.06-1.06l-.546.545a.75.75 0 1 0 1.06 1.061l.546-.545M15 4.978c-2.197 0-4.023 1.826-4.023 4.023 0 2.197 1.826 4.023 4.023 4.023 2.197 0 4.023-1.826 4.023-4.023 0-2.197-1.826-4.023-4.023-4.023M12.477 9c0-1.368 1.155-2.523 2.523-2.523S17.523 7.632 17.523 9 16.368 11.523 15 11.523 12.477 10.368 12.477 9M9 8.25a.75.75 0 1 0 0 1.5h.545a.75.75 0 0 0 0-1.5H9m11.455 0a.75.75 0 0 0 0 1.5H21a.75.75 0 1 0 0-1.5h-.546m-8.743 5.099a.75.75 0 1 0-1.06-1.061l-.546.545a.75.75 0 0 0 1.06 1.061l.546-.546m7.637-1.061a.75.75 0 0 0-1.061 1.06l.545.546a.75.75 0 1 0 1.06-1.06l-.544-.546m-3.6 2.166a.75.75 0 1 0-1.5 0V15a.75.75 0 0 0 1.5 0v-.546M6.68 11a.75.75 0 0 0-1.083-.672C2.214 12.006 1.2 16.5 3.552 19.468c2.7 3.409 8.186 2.83 10.117-1.068a.75.75 0 0 0-.673-1.082c-2.248 0-3.79-.558-4.775-1.543C7.236 14.79 6.68 13.248 6.68 11m-1.952 7.536c-1.494-1.887-1.166-4.62.52-6.168.195 1.848.808 3.362 1.914 4.468 1.106 1.106 2.62 1.72 4.47 1.913-1.795 1.96-5.15 2-6.904-.213" clip-rule="evenodd" fill="currentColor"/>
</svg>
