<svg xmlns="http://www.w3.org/2000/svg" viewBox="0 0 24 24">
  <path fill-rule="evenodd" d="M7.309 6.25H5.5A1.25 1.25 0 0 0 4.25 7.5v11a3.25 3.25 0 0 0 3.25 3.25H12a.75.75 0 0 0 0-1.5H7.5a1.75 1.75 0 0 1-1.75-1.75V7.75h12.5V14a.75.75 0 0 0 1.5 0V7.5a1.25 1.25 0 0 0-1.25-1.25h-1.809a4.751 4.751 0 0 0-9.382 0m1.528 0h6.326a3.251 3.251 0 0 0-6.326 0m7.163 8A.75.75 0 0 1 16.75 15v2.25H19a.75.75 0 0 1 0 1.5h-2.25V21a.75.75 0 0 1-1.5 0v-2.25H13a.75.75 0 0 1 0-1.5h2.25V15A.75.75 0 0 1 16 14.25" clip-rule="evenodd" fill="currentColor"/>
</svg>
