<svg xmlns="http://www.w3.org/2000/svg" viewBox="0 0 24 24">
  <path d="M19 2.6a1.25 1.25 0 0 1 1.25 1.25v8.531a.75.75 0 0 1-1.5 0V4.1H4.25v14.5h8.284a.75.75 0 0 1 0 1.5H4a1.25 1.25 0 0 1-1.25-1.25v-15A1.25 1.25 0 0 1 4 2.6h15" fill="currentColor"/><path d="M15.5 6.1a1.25 1.25 0 0 1 1.25 1.25v1.5a.75.75 0 0 1-1.5 0V7.6h-3v7.5h.782a4.008 4.008 0 0 0-.288 1.5H9.5a.75.75 0 0 1 0-1.5h1.25V7.6h-3v1.25a.75.75 0 0 1-1.5 0v-1.5A1.25 1.25 0 0 1 7.5 6.1h8" fill="currentColor"/><path fill-rule="evenodd" d="M19.21 14.686a2.998 2.998 0 0 1 .46 3.643l2.367 2.367a.75.75 0 1 1-1.06 1.06L18.61 19.39a2.998 2.998 0 0 1-3.643-4.704 3 3 0 0 1 4.242 0m-1.061 1.06a1.5 1.5 0 1 0-2.122 2.122 1.5 1.5 0 0 0 2.122-2.121" clip-rule="evenodd" fill="currentColor"/>
</svg>
