<svg xmlns="http://www.w3.org/2000/svg" viewBox="0 0 24 24">
  <path d="M7 13.25a.75.75 0 0 0 0 1.5h10a.75.75 0 0 0 0-1.5H7m0 3a.75.75 0 0 0 0 1.5h6a.75.75 0 0 0 0-1.5H7" fill="currentColor"/><path fill-rule="evenodd" d="M5.5 3.25A2.25 2.25 0 0 0 3.25 5.5v13a2.25 2.25 0 0 0 2.25 2.25h13a2.25 2.25 0 0 0 2.25-2.25v-13a2.25 2.25 0 0 0-2.25-2.25h-13M4.75 18.5v-6.75h14.5v6.75a.75.75 0 0 1-.75.75h-13a.75.75 0 0 1-.75-.75m0-8.25h14.5V5.5a.75.75 0 0 0-.75-.75h-13A.75.75 0 0 0 4.75 5.5v4.75" clip-rule="evenodd" fill="currentColor"/>
</svg>
