<svg xmlns="http://www.w3.org/2000/svg" viewBox="0 0 24 24">
  <path fill-rule="evenodd" d="M12.582 2.539a1.187 1.187 0 0 0-1.164 0l-7.5 4.219a1.187 1.187 0 0 0-.606 1.035v8.415a1.187 1.187 0 0 0 .606 1.035l7.5 4.219a1.188 1.188 0 0 0 1.164 0l7.5-4.22a1.187 1.187 0 0 0 .605-1.034V7.793a1.187 1.187 0 0 0-.605-1.035l-7.5-4.22m-7.176 4.96L12 3.788l6.594 3.71a2081.004 2081.004 0 0 0-6.052 3.406L12 11.21l-.54-.305a4297.094 4297.094 0 0 0-6.054-3.408M4.687 8.671v7.426l6.625 3.727v-7.423l-.528-.299a5196.605 5196.605 0 0 0-6.097-3.431m8 11.153 6.625-3.727V8.672a2000.717 2000.717 0 0 0-6.094 3.43l-.53.3v7.423" clip-rule="evenodd" fill="currentColor"/>
</svg>
