<svg width="24" height="24" viewBox="0 0 24 24" fill="none" xmlns="http://www.w3.org/2000/svg">
<path d="M13.1795 18.9565H9.03764C8.89958 18.9565 8.77532 18.9011 8.67868 18.8042L2.05177 12.1592C1.98274 12.0761 1.98274 11.9377 2.05177 11.8546L8.67868 5.20958C8.77532 5.11268 8.89958 5.0573 9.03764 5.0573H13.1795C13.2899 5.0573 13.3451 5.19574 13.2761 5.2788L6.71822 11.8546C6.63539 11.9377 6.63539 12.0761 6.71822 12.1592L13.2761 18.735C13.3589 18.8181 13.3037 18.9565 13.1795 18.9565ZM15.4022 12.1592L21.9601 18.735C22.043 18.8181 21.9877 18.9565 21.8773 18.9565H17.7355C17.5974 18.9565 17.4731 18.9011 17.3765 18.8042L10.7496 12.1453C10.6668 12.0623 10.6668 11.9238 10.7496 11.8408L17.3765 5.19574C17.4731 5.09883 17.5974 5.04346 17.7355 5.04346H21.8773C21.9877 5.04346 22.043 5.1819 21.9601 5.26496L15.4022 11.8408C15.3194 11.9377 15.3194 12.0761 15.4022 12.1592Z" fill="#2B0F3A"/>
</svg>
