<svg width="64" height="32" viewBox="0 0 64 32" fill="none" xmlns="http://www.w3.org/2000/svg">
<g clip-path="url(#clip0_2280_1303)">
<path fill-rule="evenodd" clip-rule="evenodd" d="M1.27057 0H14.6267C15.3283 0 15.8972 0.567667 15.8972 1.26771V13.1976C15.8972 13.898 15.3283 14.4653 14.6267 14.4653H1.27057C0.56894 14.4653 0 13.8977 0 13.1976V1.26771C0 0.567349 0.56894 0 1.27057 0ZM6.03846 11.6152H8.65947C8.73075 11.6152 8.76638 11.5287 8.71611 11.4784L4.56393 7.32622C4.51206 7.27467 4.51206 7.19066 4.56393 7.1388L8.71611 2.9863C8.76638 2.93602 8.73075 2.84979 8.65947 2.84979H6.03846C5.95478 2.84979 5.87491 2.88288 5.81572 2.94207L1.619 7.1388C1.56713 7.19035 1.56713 7.27435 1.619 7.32622L5.81572 11.5229C5.87491 11.5821 5.95478 11.6152 6.03846 11.6152ZM14.2127 11.4784L10.0605 7.32622C10.0086 7.27467 10.0086 7.19035 10.0605 7.13848L14.2127 2.9863C14.263 2.93602 14.2273 2.84979 14.156 2.84979H11.535C11.4513 2.84979 11.3715 2.88288 11.3123 2.94207L7.11557 7.1388C7.0637 7.19035 7.0637 7.27435 7.11557 7.32622L11.3123 11.5226C11.3715 11.5818 11.4513 11.6149 11.535 11.6149H14.156C14.2273 11.6149 14.263 11.5287 14.2127 11.4784Z" fill="black"/>
<path fill-rule="evenodd" clip-rule="evenodd" d="M18.7212 14.465V0H24.2767C26.8134 0 28.5743 1.63523 28.5743 3.96222C28.5743 5.19906 27.9662 6.33121 26.876 6.93897C28.3226 7.48404 29.161 8.72088 29.161 10.3351C29.161 12.7668 27.4421 14.465 24.8214 14.465H18.7212ZM21.1322 6.12152H24.0253C25.3461 6.12152 26.1846 5.32474 26.1846 4.12991C26.1846 2.93507 25.3461 2.1173 24.0253 2.1173H21.1322V6.12152ZM21.1322 12.3477H24.3187C25.7862 12.3477 26.7504 11.5303 26.7504 10.2514C26.7504 8.97258 25.7859 8.15513 24.3187 8.15513H21.1322V12.3477Z" fill="black"/>
<path fill-rule="evenodd" clip-rule="evenodd" d="M30.1739 9.26596C30.1739 6.2262 32.4378 3.85721 35.4149 3.85721C36.8824 3.85721 38.1193 4.44429 38.8951 5.45043V4.0669H41.1174V14.465H38.8951V13.0815C38.1403 14.0876 36.8824 14.6747 35.4149 14.6747C32.4382 14.6747 30.1739 12.3057 30.1739 9.26596ZM38.811 9.26596C38.811 7.40004 37.4902 6.03751 35.6663 6.03751C33.8424 6.03751 32.5008 7.40004 32.5008 9.26596C32.5008 11.1319 33.8427 12.4734 35.6663 12.4734C37.4899 12.4734 38.811 11.1316 38.811 9.26596Z" fill="black"/>
<path d="M47.8635 3.85721C44.7612 3.85721 42.3922 6.22603 42.3921 9.26564C42.3921 12.3054 44.7607 14.6744 47.8635 14.6744C50.4212 14.6744 52.1614 13.1232 52.8112 11.4459L50.6309 10.6285C50.2115 11.7186 49.1633 12.4944 47.8635 12.4944C46.0609 12.4944 44.7191 11.0899 44.7191 9.26596C44.7191 7.44204 46.0396 6.03751 47.8635 6.03751C49.1423 6.03751 50.2115 6.83396 50.6309 7.92411L52.8112 7.08566C52.1611 5.42943 50.4212 3.85721 47.8635 3.85721Z" fill="black"/>
<path d="M54.2987 14.465V0H56.6257V8.6792L60.6926 4.06722H63.439L59.1204 9.03558L63.6277 14.4653H60.7976L56.6257 9.51797V14.4653L54.2987 14.465Z" fill="black"/>
<path d="M0.0149554 17.2655V31.7903L2.40145 31.7906V21.3706L7.02424 30.1061H8.8733L13.4958 21.3702V31.7903H15.8823V17.2655H13.0442L7.99157 26.8436L2.91757 17.2655H0.0149554Z" fill="black"/>
<path fill-rule="evenodd" clip-rule="evenodd" d="M17.1608 26.5913C17.1608 23.5515 19.4248 21.1825 22.4018 21.1825C23.8694 21.1825 25.1062 21.7696 25.882 22.7757V21.3922H28.1043V31.7903H25.882V30.4068C25.1272 31.4129 23.8694 32 22.4018 32C19.4251 32 17.1608 29.631 17.1608 26.5913ZM25.798 26.5913C25.798 24.7253 24.4771 23.3628 22.6532 23.3628C20.8293 23.3628 19.4878 24.7253 19.4878 26.5913C19.4878 28.4572 20.8296 29.7987 22.6532 29.7987C24.4768 29.7987 25.798 28.4569 25.798 26.5913Z" fill="black"/>
<path d="M29.7036 21.3922V31.7903H32.0305V26.3606C32.0305 24.7464 32.806 23.7192 34.6929 23.7192H35.6784V21.3922H34.9656C33.4981 21.3922 32.5129 21.9373 31.9259 22.8388V21.3922H29.7036Z" fill="black"/>
<path d="M36.9989 31.7903V17.3253H39.3259V26.0045L43.3928 21.3925H46.1392L41.8206 26.3609L46.3279 31.7906H43.4978L39.3259 26.8433V31.7906L36.9989 31.7903Z" fill="black"/>
<path fill-rule="evenodd" clip-rule="evenodd" d="M51.0617 21.1825C48.106 21.1825 45.779 23.5515 45.779 26.5913C45.779 29.61 48.1056 32 51.1664 32C53.179 32 54.8142 31.0565 55.8624 29.4843L53.9338 28.3942C53.3887 29.3373 52.4242 29.9664 51.1664 29.9664C49.5312 29.9664 48.357 29.0022 48.0846 27.304H56.2188C56.2608 27.0523 56.2608 26.7799 56.2608 26.5282C56.2608 23.4465 54.0175 21.1825 51.0617 21.1825ZM53.9131 25.6061H48.148C48.4833 24.0966 49.5945 23.1951 51.041 23.1951C52.6133 23.1951 53.7034 24.2016 53.9131 25.6061Z" fill="black"/>
<path d="M62.0466 31.7903C59.6776 31.7903 58.5454 30.7632 58.5454 28.6039V23.5305H56.8265V21.3922H58.0214C58.3357 21.3922 58.5454 21.1825 58.5454 20.8051V18.7925H60.8724V21.3922H63.6398V23.5305H60.8724V28.3732C60.8724 29.1906 61.2708 29.61 62.2143 29.61H63.6398V31.7903H62.0466Z" fill="black"/>
</g>
<defs>
<clipPath id="clip0_2280_1303">
<rect width="63.6398" height="32" fill="white"/>
</clipPath>
</defs>
</svg>
