<svg width="285" height="32" viewBox="0 0 285 32" fill="none" xmlns="http://www.w3.org/2000/svg">
<g clip-path="url(#clip0_3712_50668)">
<path d="M146.43 0V31.5372H151.611V8.91228L161.648 27.8805H165.663L175.7 8.91228V31.5391H180.882V0H174.72L163.75 20.7966L152.732 0H146.43Z" fill="black"/>
<path fill-rule="evenodd" clip-rule="evenodd" d="M41.9782 31.5448V0.136552H54.0408C59.5486 0.136552 63.3722 3.68705 63.3722 8.73968C63.3722 11.4253 62.0522 13.8834 59.6852 15.2034C62.826 16.3869 64.6468 19.0725 64.6468 22.5775C64.6468 27.8577 60.9142 31.5448 55.2243 31.5448H41.9782ZM47.2129 13.4282H53.4945C56.3623 13.4282 58.183 11.6984 58.183 9.10384C58.183 6.50924 56.3623 4.73399 53.4945 4.73399H47.2129V13.4282ZM47.2129 26.9474H54.1318C57.3182 26.9474 59.412 25.1721 59.412 22.3954C59.412 19.6188 57.3182 17.8435 54.1318 17.8435H47.2129V26.9474Z" fill="black"/>
<path fill-rule="evenodd" clip-rule="evenodd" d="M66.8468 20.256C66.8468 13.6558 71.7629 8.51209 78.2266 8.51209C81.413 8.51209 84.0986 9.78663 85.7828 11.9716V8.96728H90.6079V31.5448H85.7828V28.5405C84.1441 30.7255 81.413 32 78.2266 32C71.7629 32 66.8468 26.8563 66.8468 20.256ZM85.6008 20.256C85.6008 16.2048 82.733 13.2461 78.7729 13.2461C74.8127 13.2461 71.8995 16.2048 71.8995 20.256C71.8995 24.3073 74.8127 27.2205 78.7729 27.2205C82.733 27.2205 85.6008 24.3073 85.6008 20.256Z" fill="black"/>
<path d="M105.256 8.51209C98.5187 8.51209 93.3751 13.6558 93.3751 20.256C93.3751 26.8563 98.5187 32 105.256 32C110.809 32 114.587 28.6316 115.998 24.99L111.264 23.2148C110.354 25.5818 108.078 27.266 105.256 27.266C101.341 27.266 98.4277 24.2162 98.4277 20.256C98.4277 16.2959 101.295 13.2461 105.256 13.2461C108.032 13.2461 110.354 14.9758 111.264 17.3428L115.998 15.522C114.587 11.926 110.809 8.51209 105.256 8.51209Z" fill="black"/>
<path d="M119.23 31.5448V0.136552H124.283V18.9815L133.113 8.96728H139.076L129.699 19.7553L139.486 31.5448H133.341L124.283 20.8023V31.5448H119.23Z" fill="black"/>
<path fill-rule="evenodd" clip-rule="evenodd" d="M183.659 20.2504C183.659 13.6501 188.575 8.5064 195.038 8.5064C198.225 8.5064 200.91 9.78093 202.595 11.9659V8.96159H207.42V31.5391H202.595V28.5348C200.956 30.7198 198.225 31.9943 195.038 31.9943C188.575 31.9943 183.659 26.8506 183.659 20.2504ZM202.412 20.2504C202.412 16.1991 199.545 13.2404 195.585 13.2404C191.624 13.2404 188.711 16.1991 188.711 20.2504C188.711 24.3016 191.624 27.2148 195.585 27.2148C199.545 27.2148 202.412 24.3016 202.412 20.2504Z" fill="black"/>
<path d="M210.894 8.96159V31.5391H215.947V19.7496C215.947 16.2447 217.631 14.0142 221.728 14.0142H223.867V8.96159H222.32C219.133 8.96159 216.994 10.1451 215.719 12.1024V8.96159H210.894Z" fill="black"/>
<path d="M226.735 31.5391V0.12897H231.788V18.9758L240.618 8.96159H246.581L237.204 19.7496L246.991 31.5391H240.846L231.788 20.7966V31.5391H226.735Z" fill="black"/>
<path fill-rule="evenodd" clip-rule="evenodd" d="M257.271 8.5064C250.853 8.5064 245.8 13.6501 245.8 20.2504C245.8 26.8051 250.853 31.9943 257.498 31.9943C261.868 31.9943 265.419 29.9459 267.695 26.532L263.507 24.165C262.323 26.2134 260.229 27.5789 257.498 27.5789C253.948 27.5789 251.399 25.4851 250.807 21.798H268.468C268.559 21.2518 268.559 20.66 268.559 20.1138C268.559 13.4225 263.689 8.5064 257.271 8.5064ZM263.461 18.1109H250.944C251.672 14.8336 254.084 12.8762 257.225 12.8762C260.639 12.8762 263.006 15.0612 263.461 18.1109Z" fill="black"/>
<path d="M281.121 31.5391C275.977 31.5391 273.519 29.3087 273.519 24.6202V13.6045H269.787V8.96159H272.381C273.064 8.96159 273.519 8.5064 273.519 7.68705V3.31531H278.572V8.95969H284.58V13.6027H278.572V24.1176C278.572 25.8928 279.437 26.8032 281.485 26.8032H284.58V31.5372H281.121V31.5391Z" fill="black"/>
<path fill-rule="evenodd" clip-rule="evenodd" d="M2.7596 0.136552H31.7591C33.284 0.136552 34.5187 1.36936 34.5187 2.88857V28.7928C34.5187 30.312 33.2821 31.5448 31.7591 31.5448H2.7596C1.23471 31.5448 0 30.3139 0 28.7928V2.88857C0 1.36747 1.23471 0.136552 2.7596 0.136552ZM13.1114 25.3561H18.8032C18.9587 25.3561 19.0365 25.1702 18.9265 25.0602L9.90991 16.0436C9.79801 15.9298 9.79801 15.7477 9.90991 15.6358L18.9265 6.61925C19.0365 6.51114 18.9587 6.32337 18.8032 6.32337H13.1114C12.9293 6.32337 12.7568 6.39544 12.6278 6.52441L3.51636 15.6358C3.40446 15.7496 3.40446 15.9317 3.51636 16.0436L12.6278 25.155C12.7568 25.284 12.9293 25.3561 13.1114 25.3561ZM30.862 25.0602L21.8454 16.0436V16.0417C21.7335 15.9279 21.7335 15.7458 21.8454 15.6339L30.862 6.61735C30.972 6.50924 30.8943 6.32147 30.7387 6.32147H25.0469C24.8649 6.32147 24.6923 6.39355 24.5633 6.52252L15.4519 15.6339C15.34 15.7477 15.34 15.9298 15.4519 16.0417L24.5633 25.155C24.6923 25.284 24.8649 25.3561 25.0469 25.3561H30.7387C30.8943 25.3561 30.972 25.1702 30.862 25.0602Z" fill="black"/>
</g>
<defs>
<clipPath id="clip0_3712_50668">
<rect width="284.58" height="32" fill="white"/>
</clipPath>
</defs>
</svg>
